<svg width="882" height="165" viewBox="0 0 882 165" fill="none" xmlns="http://www.w3.org/2000/svg">
<path d="M579.788 75.1409C579.788 82.1369 579.617 89.1389 579.859 96.1269C579.983 99.7099 580.501 103.362 581.45 106.816C583.223 113.27 587.412 117.841 593.951 119.587C598.131 120.702 602.504 121.405 606.824 121.618C613.679 121.955 620.561 121.732 627.433 121.737C634.929 121.742 642.425 121.768 649.92 121.723C653.401 121.701 654.036 121.026 654.131 117.545C654.182 115.672 654.15 113.797 654.142 111.923C654.118 106.852 653.827 106.541 648.899 106.538C636.031 106.528 623.163 106.543 610.296 106.523C608.55 106.521 606.779 106.545 605.064 106.277C599.214 105.363 596.717 102.818 596.417 96.8449C596.059 89.7399 596.033 82.6169 595.968 75.5009C595.897 67.8809 595.986 60.2599 595.932 52.6399C595.906 49.1929 595.464 48.8129 591.991 48.7589C589.368 48.7169 586.744 48.7269 584.121 48.7549C580.202 48.7959 579.792 49.1699 579.775 53.0279C579.742 60.3989 579.766 67.7699 579.766 75.1409H579.788ZM284.888 94.3499C284.454 93.4139 284.183 92.7379 283.838 92.1009C279.207 83.5349 274.567 74.9739 269.926 66.4139C269.628 65.8659 269.363 65.2819 268.971 64.8069C268.066 63.7109 267.076 63.6789 266.183 64.8279C265.804 65.3159 265.532 65.8909 265.237 66.4409C260.698 74.9139 256.155 83.3869 251.641 91.8739C251.255 92.5989 251.064 93.4299 250.733 94.3499H284.888ZM317.115 120.951C315.579 121.287 314.562 121.679 313.536 121.702C310.04 121.783 306.538 121.663 303.043 121.763C300.903 121.824 299.533 120.975 298.556 119.095C296.83 115.772 294.92 112.546 293.197 109.223C292.372 107.632 291.392 106.821 289.447 106.832C274.955 106.91 260.462 106.907 245.969 106.835C244.053 106.825 243.049 107.54 242.238 109.2C240.705 112.339 238.828 115.311 237.352 118.474C236.173 120.999 234.43 121.926 231.713 121.777C228.599 121.606 225.468 121.771 222.345 121.72C221.161 121.7 219.979 121.484 218.163 121.289C218.874 119.516 219.242 118.254 219.855 117.126C230.713 97.1729 241.593 77.2299 252.501 57.3049C253.396 55.6689 254.458 54.1089 255.59 52.6259C256.258 51.7509 257.115 50.9209 258.061 50.3719C262.834 47.6019 268.055 48.6569 273.08 49.0729C276.957 49.3949 279.488 52.2419 281.336 55.5129C284.468 61.0559 287.522 66.6409 290.596 72.2169C298.729 86.9749 306.861 101.735 314.976 116.504C315.675 117.776 316.24 119.122 317.115 120.951ZM770.395 74.8729C770.395 71.2479 770.396 67.6239 770.395 63.9989C770.394 60.2489 770.447 56.4989 770.375 52.7499C770.309 49.3529 769.75 48.8309 766.434 48.7579C764.56 48.7169 762.684 48.7489 760.809 48.7489C753.943 48.7489 753.954 48.7489 753.937 55.4769C753.905 68.9749 753.97 82.4749 753.774 95.9719C753.674 103.003 750.665 106.237 743.72 106.391C731.977 106.649 720.22 106.662 708.478 106.367C701.804 106.2 698.858 102.803 698.499 96.1439C698.398 94.2729 698.395 92.3959 698.394 90.5209C698.386 78.6469 698.391 66.7729 698.389 54.8999C698.389 53.8999 698.396 52.8989 698.359 51.8999C698.281 49.8039 697.293 48.6919 695.074 48.7419C692.326 48.8029 689.575 48.7389 686.826 48.7519C682.373 48.7729 681.948 49.1729 681.937 53.7139C681.912 64.0879 681.862 74.4629 681.955 84.8359C682.006 90.4519 682.072 96.0889 682.585 101.675C683.529 111.954 689.004 118.118 699.061 120.405C702.325 121.148 705.721 121.602 709.063 121.646C720.435 121.797 731.811 121.785 743.184 121.654C746.407 121.618 749.681 121.226 752.833 120.543C763.413 118.251 768.88 112.286 769.715 101.455C770.395 92.6249 770.384 83.7419 770.68 74.8819C770.585 74.8789 770.49 74.8759 770.395 74.8729ZM546.142 52.5149C546.114 49.3689 545.5 48.8389 542.372 48.7609C540.374 48.7099 538.373 48.7489 536.373 48.7489C529.728 48.7499 529.74 48.7499 529.721 55.3259C529.681 68.9489 529.745 82.5749 529.532 96.1959C529.425 103.004 526.42 105.868 519.65 106.45C518.904 106.514 518.152 106.516 517.402 106.517C507.152 106.521 496.903 106.559 486.654 106.486C484.676 106.473 482.667 106.174 480.733 105.738C477.825 105.084 475.745 103.212 475.106 100.311C474.522 97.6559 474.225 94.8889 474.206 92.1669C474.114 79.5429 474.165 66.9179 474.159 54.2939C474.159 53.2949 474.186 52.2879 474.083 51.2979C473.919 49.7199 473.055 48.7809 471.392 48.7759C467.767 48.7649 464.142 48.7669 460.517 48.7749C458.834 48.7779 458.014 49.7769 457.83 51.3169C457.698 52.4289 457.716 53.5619 457.715 54.6849C457.708 65.0599 457.652 75.4349 457.735 85.8089C457.776 90.9259 457.87 96.0579 458.305 101.153C459.226 111.967 464.809 118.298 475.423 120.578C478.695 121.281 482.101 121.622 485.452 121.663C496.325 121.797 507.201 121.774 518.075 121.679C521.185 121.651 524.323 121.368 527.393 120.865C537.739 119.171 543.611 113.483 545.31 103.457C545.851 100.268 546.064 96.9999 546.128 93.7629C546.253 87.5149 546.165 81.2639 546.164 75.0139C546.163 67.5139 546.208 60.0139 546.142 52.5149ZM409.497 100.888C409.392 105.402 408.158 106.623 403.622 106.634C392.253 106.662 380.884 106.644 369.516 106.621C368.019 106.618 366.499 106.612 365.033 106.362C360.271 105.551 357.466 102.943 357.302 98.1159C357.011 89.5199 357.032 80.8999 357.321 72.3029C357.467 67.9619 359.947 65.5299 364.228 64.6219C366.401 64.1619 368.677 64.0229 370.907 64.0159C386.773 63.9659 402.64 63.9889 418.506 63.9879C419.505 63.9879 420.505 63.9759 421.504 63.9749C423.635 63.9719 424.754 62.9649 424.744 60.7779C424.732 58.1539 424.779 55.5299 424.745 52.9069C424.695 49.1809 424.33 48.7639 420.669 48.7619C402.554 48.7489 384.437 48.6379 366.325 48.8899C362.159 48.9479 357.892 49.9089 353.884 51.1439C348.482 52.8089 344.512 56.5739 342.834 62.0289C341.639 65.9169 340.832 70.0409 340.642 74.0969C340.299 81.4519 340.398 88.8389 340.609 96.2039C340.705 99.5389 341.244 102.92 342.043 106.167C343.882 113.634 348.813 118.313 356.194 120.116C359.923 121.027 363.827 121.589 367.66 121.637C382.15 121.818 396.643 121.725 411.136 121.733C411.51 121.734 411.885 121.729 412.26 121.712C419.075 121.382 422.868 118.152 424.077 111.473C424.453 109.397 424.656 107.265 424.677 105.155C424.75 98.0349 424.716 90.9129 424.703 83.7919C424.693 78.6779 424.087 78.0899 418.794 78.0859C406.176 78.0749 393.558 78.0809 380.94 78.0829C380.19 78.0829 379.44 78.0789 378.691 78.1059C376.738 78.1789 375.705 79.1369 375.727 81.1579C375.749 83.2809 375.672 85.4069 375.737 87.5279C375.828 90.5149 376.269 91.0059 379.286 91.0239C387.781 91.0769 396.277 91.0449 404.772 91.0459H409.511C409.511 94.6979 409.568 97.7939 409.497 100.888ZM881.38 90.8969C881.046 90.1109 880.676 89.3369 880.382 88.5359C878.347 82.9859 874.326 79.7849 868.584 78.8039C866.138 78.3849 863.625 78.1889 861.141 78.1749C849.649 78.1109 838.158 78.1529 826.666 78.1439C820.119 78.1389 819.193 77.1719 819.233 70.4669C819.234 70.3419 819.233 70.2169 819.234 70.0919C819.299 65.0419 820.659 63.6169 825.626 63.4319C826.624 63.3939 827.624 63.4199 828.624 63.4199C842.238 63.4189 855.853 63.4189 869.469 63.4189C871.468 63.4189 873.468 63.4689 875.464 63.3989C878.172 63.3049 878.749 62.7939 878.932 60.1109C879.066 58.1209 878.996 56.1159 878.984 54.1179C878.954 49.0479 878.673 48.7529 873.752 48.7509C856.639 48.7449 839.526 48.7475 822.414 48.7509C821.29 48.7509 820.164 48.7429 819.042 48.7969C809.535 49.2559 803.71 54.7979 803.139 64.2789C802.885 68.5019 802.959 72.7749 803.283 76.9949C803.869 84.6289 809.033 89.9689 816.556 90.9889C818.899 91.3069 821.282 91.4659 823.647 91.4759C834.639 91.5259 845.631 91.4959 856.623 91.4989C864.655 91.5019 865.9 92.8419 865.375 100.963C865.319 101.826 865.136 102.689 864.928 103.532C864.453 105.456 863.213 106.53 861.216 106.638C859.97 106.705 858.72 106.732 857.472 106.733C841.608 106.739 825.745 106.736 809.882 106.739C808.758 106.739 807.627 106.683 806.511 106.784C803.855 107.026 803.25 107.624 803.158 110.242C803.075 112.612 803.111 114.988 803.141 117.361C803.188 121.31 803.538 121.721 807.417 121.725C826.028 121.748 844.64 121.752 863.252 121.719C871.774 121.703 878.322 118.616 881.092 109.879C881.122 109.781 881.281 109.724 881.38 109.647V90.8969ZM23.5639 133.048C32.0719 118.309 40.1069 104.386 48.1469 90.4649C56.1399 76.6249 64.2059 62.8279 72.1139 48.9409C80.0269 35.0459 88.5659 21.5009 96.5089 6.81392C93.7839 6.81392 91.9139 6.93692 90.0679 6.78292C87.8019 6.59392 86.4729 7.45292 85.3199 9.46092C60.3809 52.8729 35.3729 96.2459 10.3919 139.634C9.92388 140.447 9.62688 141.358 9.09588 142.576H142.58C141.377 140.388 140.154 138.642 139.417 136.712C138.178 133.465 135.938 132.871 132.695 132.885C98.0939 133.028 63.4909 133.016 28.8889 133.048C27.4069 133.049 25.9239 133.048 23.5639 133.048ZM104.289 41.0959C102.741 43.7629 101.772 45.9419 100.348 47.7659C98.1339 50.5989 98.7489 52.9339 100.428 55.8349C117.627 85.5659 134.692 115.376 151.788 145.167C152.498 146.406 153.147 147.681 154.121 149.489H10.0589C11.4259 151.536 12.5939 152.989 13.4339 154.613C14.6809 157.027 16.4709 157.702 19.1639 157.7C68.3979 157.662 117.632 157.729 166.866 157.774C168.173 157.774 169.481 157.774 171.647 157.774C148.996 118.537 126.81 80.1059 104.289 41.0959ZM104.329 27.9839C128.802 70.4089 152.853 112.105 177.009 153.981C177.758 153.386 178.187 153.139 178.494 152.784C179.957 151.089 181.388 149.363 182.956 147.5C156.397 101.552 129.89 55.6949 102.987 9.15492C80.3939 48.3759 58.2539 86.8099 35.7159 125.937C38.9169 125.937 41.2789 125.723 43.5859 125.99C46.6729 126.349 48.2299 124.969 49.7099 122.391C67.0599 92.1789 84.5279 62.0339 101.968 31.8739C102.585 30.8069 103.246 29.7659 104.329 27.9839ZM94.4139 58.8969C90.2009 64.4339 56.6379 123.387 56.1459 126.116H133.226C120.123 103.424 107.309 81.2299 94.4139 58.8969ZM0.129883 143.397C8.84988 128.4 17.5959 113.419 26.2839 98.4039C44.5449 66.8469 62.8159 35.2949 80.9479 3.66292C82.5459 0.873924 84.2789 -0.152076 87.4239 0.0179243C92.4069 0.286924 97.4209 0.242924 102.41 0.0379243C104.914 -0.0640756 106.182 0.909924 107.377 2.99792C120.469 25.8669 133.654 48.6819 146.817 71.5089C160.478 95.2029 174.143 118.894 187.807 142.587C188.369 143.56 188.833 144.608 189.508 145.495C190.912 147.336 190.49 148.79 189.041 150.435C185 155.026 181.091 159.735 177.13 164.397H12.8799L0.129883 144.897V143.397Z" fill="black"/>
</svg>
