<svg width="869" height="277" viewBox="0 0 869 277" fill="none" xmlns="http://www.w3.org/2000/svg">
<path fill-rule="evenodd" clip-rule="evenodd" d="M93.838 54.571C89.4091 55.5262 85.4143 55.8736 84.8064 55.8736C95.488 53.7025 111.206 30.7763 105.735 4.37624L124.493 0.555176C130.92 27.0421 120.325 49.1868 93.838 54.571ZM685.237 7.65772H703.735V212.345H685.237V7.65772ZM547.74 15.5023C540.186 15.5023 534.28 21.6681 534.28 28.9629C534.28 36.2577 540.186 42.4235 547.74 42.4235C555.299 42.4235 561.201 36.2577 561.201 28.9629C561.201 21.6681 555.299 15.5023 547.74 15.5023ZM557.036 72.2104H538.537V212.461H557.036V72.2104ZM503.645 212.481V72.2304H485.146V99.7596C473.423 81.0018 453.449 68.9304 428.526 68.9304C389.013 68.9304 356.187 100.889 356.187 142.399C356.187 183.91 389.013 215.868 428.526 215.868C453.449 215.868 473.338 203.797 485.146 185.039V212.481H503.645ZM429.917 86.8202C461.008 86.8202 485.146 111.223 485.146 142.313C485.146 173.402 460.919 197.804 429.829 197.804C398.74 197.804 374.598 173.402 374.598 142.313C374.598 111.223 398.827 86.8202 429.917 86.8202ZM653.042 69.8844V87.8607C630.636 87.8607 608.748 99.6712 608.748 134.408V212.393H590.254V72.1423H608.748V95.4159C618.562 75.7897 635.151 69.8844 653.042 69.8844ZM868.418 72.2177L808.409 225.321C797.726 252.242 776.973 270.479 751.789 268.481V251.113C770.026 253.11 782.618 240.171 790.172 221.934L793.819 213.25L731.031 72.2177H750.659L803.371 189.715L848.79 72.2177H868.418ZM44.2459 109.722C44.2753 109.693 44.3158 109.653 44.3667 109.602C45.0677 108.908 47.734 106.268 50.3248 102.949C67.0857 81.7592 61.0068 58.0509 39.0355 41.8983L27.1381 56.8352C48.2406 73.5088 50.9327 101.212 44.2459 109.722ZM47.9371 167.951C48.1108 172.467 47.7634 176.462 47.6766 177.07C47.416 166.301 27.529 146.762 0.521055 147.544L0 128.438C27.1817 126.701 47.1555 140.944 47.9371 167.951ZM93.1791 226.629C92.8318 226.108 90.5739 222.808 87.5344 219.421C69.6446 199.273 45.1552 201.097 25.4419 219.942L38.1209 234.271C58.2683 216.381 85.9708 218.552 93.1791 226.629ZM152.402 233.162C156.918 233.857 160.739 234.899 161.347 235.073C150.666 233.509 127.999 249.662 124.092 276.236L105.16 273.457C108.199 246.362 125.742 229.254 152.402 233.162ZM217.854 198.473C217.247 198.734 213.686 200.384 209.778 202.815C186.765 216.971 184.42 241.374 199.531 264.039L215.77 254.052C201.615 231.039 208.562 204.118 217.854 198.473ZM233.173 142.425C234.562 138.083 236.212 134.435 236.56 133.914C233.086 144.162 245.07 169.259 270.688 177.769L264.696 195.92C238.557 188.278 224.662 168.043 233.173 142.425ZM210.32 71.6876C210.407 72.2955 211.449 76.2034 213.186 80.3718C223.086 105.469 246.794 112.069 271.718 101.127L264.683 83.3244C239.586 93.3112 214.315 81.7613 210.32 71.6876ZM158.684 45.6954C154.69 43.5243 151.477 41.2663 150.955 40.8321C160.508 46.0427 187.343 38.5742 200.022 14.8663L216.869 23.9847C204.798 48.3875 182.392 58.5479 158.684 45.6954Z" fill="black"/>
</svg>
