<svg width="870" height="277" viewBox="0 0 870 277" fill="none" xmlns="http://www.w3.org/2000/svg">
<path fill-rule="evenodd" clip-rule="evenodd" d="M94.7079 54.5711C90.2789 55.5263 86.2842 55.8737 85.6763 55.8737C96.3579 53.7027 112.076 30.7765 106.605 4.37636L125.363 0.555298C131.79 27.0422 121.195 49.1869 94.7079 54.5711ZM686.107 7.65784H704.605V212.345H686.107V7.65784ZM548.61 15.5024C541.056 15.5024 535.149 21.6682 535.149 28.963C535.149 36.2578 541.056 42.4236 548.61 42.4236C556.169 42.4236 562.07 36.2578 562.07 28.963C562.07 21.6682 556.169 15.5024 548.61 15.5024ZM557.905 72.2105H539.407V212.461H557.905V72.2105ZM504.514 212.481V72.2305H486.016V99.7598C474.293 81.0019 454.319 68.9305 429.396 68.9305C389.883 68.9305 357.057 100.889 357.057 142.4C357.057 183.91 389.883 215.868 429.396 215.868C454.319 215.868 474.208 203.797 486.016 185.039V212.481H504.514ZM430.787 86.8203C461.878 86.8203 486.016 111.223 486.016 142.313C486.016 173.402 461.789 197.805 430.699 197.805C399.61 197.805 375.467 173.402 375.467 142.313C375.467 111.223 399.697 86.8203 430.787 86.8203ZM653.912 69.8846V87.8608C631.506 87.8608 609.618 99.6713 609.618 134.408V212.393H591.124V72.1425H609.618V95.4161C619.432 75.7898 636.021 69.8846 653.912 69.8846ZM869.288 72.2178L809.279 225.321C798.596 252.242 777.843 270.479 752.659 268.482V251.113C770.895 253.111 783.487 240.171 791.042 221.934L794.688 213.25L731.901 72.2178H751.529L804.241 189.716L849.66 72.2178H869.288ZM45.1158 109.722C45.1452 109.693 45.1857 109.653 45.2366 109.602C45.9376 108.908 48.6039 106.268 51.1947 102.949C67.9556 81.7593 61.8767 58.0511 39.9053 41.8984L28.0079 56.8353C49.1105 73.5089 51.8026 101.212 45.1158 109.722ZM48.807 167.952C48.9807 172.467 48.6333 176.462 48.5464 177.07C48.2859 166.302 28.3989 146.762 1.39093 147.544L0.869873 128.438C28.0515 126.701 48.0254 140.944 48.807 167.952ZM94.049 226.629C93.7016 226.108 91.4437 222.808 88.4043 219.421C70.5145 199.273 46.0251 201.097 26.3118 219.942L38.9908 234.271C59.1382 216.381 86.8407 218.552 94.049 226.629ZM153.272 233.162C157.788 233.857 161.609 234.899 162.217 235.073C151.535 233.51 128.869 249.663 124.961 276.236L106.03 273.457C109.069 246.363 126.611 229.254 153.272 233.162ZM218.724 198.473C218.116 198.734 214.556 200.384 210.648 202.815C187.635 216.971 185.29 241.374 200.401 264.039L216.64 254.053C202.485 231.039 209.432 204.118 218.724 198.473ZM234.043 142.425C235.432 138.083 237.082 134.436 237.429 133.914C233.956 144.162 245.94 169.259 271.558 177.77L265.566 195.92C239.427 188.278 225.532 168.043 234.043 142.425ZM211.19 71.6877C211.277 72.2956 212.319 76.2035 214.056 80.3719C223.956 105.469 247.664 112.07 272.587 101.127L265.553 83.3245C240.456 93.3114 215.185 81.7614 211.19 71.6877ZM159.554 45.6955C155.56 43.5244 152.346 41.2665 151.825 40.8323C161.378 46.0429 188.212 38.5743 200.891 14.8664L217.739 23.9848C205.668 48.3876 183.262 58.5481 159.554 45.6955Z" fill="white"/>
</svg>
