<svg width="285" height="47" viewBox="0 0 285 47" fill="none" xmlns="http://www.w3.org/2000/svg">
<path fill-rule="evenodd" clip-rule="evenodd" d="M121.154 26.1843H107.294C107.542 22.52 110.638 18.9357 114.858 19.2192C118.282 19.4491 121.391 22.827 121.154 26.1843ZM126.591 37.8668C125.57 36.9818 124.567 36.1124 123.564 35.2441C123.462 35.2993 123.388 35.3365 123.332 35.3645L123.332 35.3646C123.247 35.4074 123.204 35.4286 123.171 35.4596C120.483 37.9464 117.351 39.0557 113.672 38.4525C110.495 37.9316 107.832 35.5349 107.375 32.1087H130.449C130.479 31.8399 130.515 31.5851 130.549 31.3397L130.549 31.3391L130.55 31.3376V31.3375V31.3374C130.621 30.8278 130.688 30.3591 130.682 29.891C130.642 26.15 129.977 22.5449 128.121 19.2312C126.712 16.7154 124.754 14.7517 122.141 13.4398C118.795 11.7603 115.281 11.3916 111.604 11.9254C107.411 12.534 104.062 14.5976 101.49 17.8172C99.1988 20.6872 98.0492 24.0857 97.7969 27.7272C97.5818 30.8324 98.121 33.8358 99.434 36.6926C101.069 40.2494 103.671 42.8961 107.24 44.4911C110.627 46.0048 114.197 46.5132 117.941 46.0153C120.946 45.6157 123.656 44.6203 126.057 42.8325C127.141 42.0253 128.122 41.0766 128.953 39.9131C128.151 39.2179 127.366 38.5378 126.591 37.8668ZM25.4151 23.4114L31.1413 17.2135C29.8466 15.8119 28.4722 14.6663 26.8851 13.7936C24.9426 12.7258 22.854 12.1467 20.6334 11.8794C17.7783 11.5358 14.9988 11.6922 12.2446 12.5004C8.85104 13.4962 6.12816 15.4379 3.91417 18.1443C1.55283 21.0304 0.459701 24.3861 0.193881 28.0234C0.0015046 30.6583 0.502583 33.1994 1.50284 35.6606C3.35932 40.2271 6.65719 43.3219 11.26 45.0494C14.1672 46.1405 17.1772 46.4564 20.287 46.0033C22.0461 45.7472 23.7526 45.4003 25.384 44.692C27.3792 43.8253 28.9765 42.422 30.5734 41.0191C30.7106 40.8986 30.8477 40.7781 30.9852 40.6579C31.0789 40.5759 31.1089 40.4224 31.1458 40.2336L31.1458 40.2336C31.1653 40.1338 31.1867 40.0242 31.2205 39.91L25.6363 34.6298C25.5478 34.6986 25.4566 34.7677 25.3641 34.8377C25.1609 34.9917 24.9515 35.1503 24.7522 35.3205C22.5133 37.231 20.0025 38.3501 16.9671 37.985C14.5688 37.6965 12.6142 36.5874 11.2989 34.6197C10.1133 32.8467 9.53312 30.8501 9.61959 28.6535C9.73094 25.8197 10.6912 23.4114 12.8691 21.5544C14.3226 20.3151 16.1064 19.7189 17.9842 19.7619C19.713 19.8017 21.3901 20.3111 22.818 21.3691C23.4188 21.8144 24.0025 22.2824 24.597 22.7589L24.5971 22.759L24.5971 22.759C24.8667 22.9751 25.1385 23.193 25.4151 23.4114ZM83.7931 45.4495H74.3721V12.4541H83.7469V18.2833L83.9506 18.3589C84.0029 18.2751 84.0559 18.1918 84.109 18.1085L84.1091 18.1083C84.2235 17.9286 84.3379 17.7489 84.4451 17.565C85.6391 15.5154 87.0163 13.6486 89.2812 12.6181C90.8814 11.8899 92.54 11.5625 94.3764 11.7651V21.4488C94.0507 21.4861 93.7236 21.516 93.3966 21.5458L93.3965 21.5458C92.6766 21.6115 91.9571 21.6772 91.2545 21.8228C89.0664 22.2764 87.2464 23.3717 85.9452 25.1998C84.8876 26.686 84.2927 28.3744 84.0508 30.1634C83.89 31.3536 83.8085 32.5624 83.7988 33.7634C83.7773 36.4026 83.7828 39.0419 83.7883 41.6814V41.6837C83.7904 42.7156 83.7925 43.7475 83.7931 44.7794V45.4495ZM50.0826 30.9255C52.4681 30.8007 54.77 31.0768 57.0159 32.0869C57.1036 33.7764 57.1841 35.4362 55.9631 36.9243C54.9675 38.1372 53.7379 38.7958 52.2615 39.2088C50.4164 39.725 48.6466 39.7304 46.875 38.9372C45.3445 38.2522 44.547 37.0572 44.5255 35.465C44.5039 33.8794 45.3085 32.6286 46.7098 31.8401C47.7435 31.2588 48.8769 30.9886 50.0826 30.9255ZM51.8744 20.1454C55.1597 20.5999 57.3898 23.2299 56.8844 26.4394C56.8414 26.43 56.7986 26.4207 56.7561 26.4113C56.6531 26.3887 56.5512 26.3664 56.4492 26.3449C55.941 26.2386 55.4341 26.1145 54.9272 25.9904C53.7954 25.7132 52.6635 25.4361 51.5178 25.3575C48.8551 25.1746 46.1628 25.1298 43.5335 25.7992C40.4401 26.5869 37.8494 28.0689 36.3696 31.0216C35.222 33.3111 35.1201 35.7629 35.5982 38.1891C36.3461 41.9851 38.8617 44.2519 42.4896 45.4566C44.2657 46.0464 46.0805 46.0056 47.8973 45.9648C48.0438 45.9615 48.1902 45.9582 48.3367 45.9552C50.7649 45.9062 52.959 45.136 54.9071 43.7021C55.3388 43.3845 55.7562 43.0478 56.2378 42.6592C56.476 42.467 56.7299 42.2622 57.009 42.0407V45.4203H66.0578C66.0759 45.2653 66.0979 45.1161 66.1193 44.9708C66.1633 44.6725 66.2048 44.3906 66.2052 44.1086C66.2061 43.2124 66.2072 42.3161 66.2084 41.4198C66.2147 36.4943 66.221 31.5687 66.1879 26.6435C66.1751 24.7414 66.0251 22.8328 65.5222 20.9855C64.5816 17.5309 62.5832 14.8919 59.2318 13.406C57.1761 12.4944 54.9742 12.0502 52.7379 11.966C51.5151 11.9199 50.2873 11.9968 49.0597 12.0736C48.5577 12.1051 48.0558 12.1365 47.5542 12.1595C45.4651 12.2551 43.4354 12.6717 41.4612 13.3394C41.2837 13.3994 41.105 13.4572 40.9262 13.5152C40.005 13.8133 39.0785 14.1133 38.2863 14.717C38.5744 15.5588 38.8359 16.4006 39.0954 17.2358C39.5731 18.7736 40.0439 20.2894 40.6621 21.7437C44.3975 20.5199 48.0138 19.6116 51.8744 20.1454Z" fill="black"/>
<path fill-rule="evenodd" clip-rule="evenodd" d="M260.215 40.1387C257.001 37.3011 255.805 33.6289 255.759 29.8537C255.786 26.2891 256.532 23.3049 258.533 20.7469C260.763 17.8951 263.73 16.4067 267.392 16.1577C273.935 15.7123 279.454 20.586 280.77 26.2464C282.498 33.6819 278.445 40.7564 271.583 42.7136C267.343 43.9223 263.521 43.0586 260.215 40.1387ZM280.938 0.394531V20.3086C280.821 20.1841 280.719 20.0774 280.627 19.9817L280.627 19.9809L280.626 19.9799C280.453 19.7987 280.318 19.6574 280.188 19.5114C279.968 19.262 279.754 19.006 279.54 18.75C279.103 18.2277 278.667 17.7054 278.176 17.2391C274.522 13.7671 270.126 12.5274 265.201 13.4156C260.814 14.2069 257.384 16.5815 255.011 20.3339C252.239 24.7149 251.803 29.4958 252.982 34.412C254.94 42.5736 262.908 47.2104 270.193 45.9939C273.899 45.3752 276.856 43.6299 279.224 40.8078C279.577 40.3872 279.919 39.9581 280.261 39.529L280.261 39.5288L280.262 39.5285C280.423 39.3264 280.584 39.1242 280.746 38.9229L280.976 38.9855V45.4622H284.013V0.394531H280.938ZM142.057 30.5327C142.026 30.2437 141.994 29.9548 141.959 29.6665C142.043 25.7236 143.412 22.3429 146.298 19.6329C149.19 16.9175 152.693 15.7027 156.63 16.2219C160.517 16.7346 163.593 18.798 165.439 22.2059C168.34 27.5597 168.279 33.0137 164.928 38.1717C162.929 41.2499 159.871 42.7992 156.145 43.1669C149.422 43.8311 143.34 38.7027 142.302 32.4429C142.197 31.81 142.127 31.1713 142.057 30.5327ZM142.186 45.4301V39.186L142.393 39.1283C142.486 39.2404 142.579 39.3524 142.672 39.4644L142.672 39.4647C142.919 39.7629 143.167 40.0609 143.411 40.3617C147.056 44.8557 151.733 46.7915 157.536 45.9705C161.684 45.3837 164.954 43.3147 167.44 40.0627C170.505 36.053 171.23 31.4604 170.516 26.5827C169.937 22.6229 168.205 19.2614 165.035 16.7248C160.901 13.417 156.259 12.3194 151.083 13.7685C147.672 14.7235 145.15 16.8763 143.065 19.6151C142.824 19.9317 142.583 20.2478 142.341 20.5642C142.145 19.3613 142.145 18.2752 142.145 17.1889V17.1889C142.145 16.0561 142.145 14.9236 142.144 13.7908V10.5097V7.11143C142.144 6.77694 142.146 6.44238 142.149 6.10782C142.154 5.34854 142.16 4.58923 142.137 3.83061C142.127 3.48331 142.138 3.13412 142.149 2.78319V2.78319C142.174 2.01463 142.199 1.23773 141.998 0.454102H139.083V45.4301H142.186ZM202.306 30.1106L201.833 29.9983C201.498 29.9187 201.211 29.8508 200.926 29.7827C198.867 29.2918 196.782 29.0036 194.673 28.7803C192.218 28.5207 189.809 28.5545 187.406 29.0857C185.232 29.5665 183.333 30.5426 182.079 32.4162C179.86 35.7313 181.01 39.9739 184.719 41.9456C186.981 43.1487 189.387 43.5556 191.977 43.1855C194.155 42.8743 196.173 42.2519 197.983 41.0302C200.148 39.5684 201.712 37.654 202.038 35.0036C202.174 33.8936 202.21 32.7716 202.247 31.6438V31.6437C202.263 31.1336 202.28 30.6224 202.306 30.1106ZM202.189 27.0927C202.226 23.4694 201.647 20.1136 198.235 17.9221C196.855 17.0356 195.322 16.5924 193.706 16.4158C189.653 15.9732 185.853 16.8731 182.211 18.5835C182.125 18.6237 182.041 18.6678 181.931 18.7258L181.931 18.7259C181.865 18.7601 181.791 18.7992 181.702 18.8452L180.55 16.1489C182.808 14.9891 185.075 14.2658 187.422 13.8442C189.867 13.4054 192.341 13.2349 194.825 13.5892C199.983 14.3256 204.003 17.2143 204.877 22.6913C205.054 23.802 205.184 24.9331 205.189 26.0554C205.213 30.9957 205.209 35.936 205.204 40.8763C205.203 42.1116 205.202 43.3469 205.202 44.5822C205.202 44.7649 205.186 44.9475 205.17 45.1467L205.17 45.1469C205.162 45.24 205.154 45.3369 205.147 45.4391H202.218V40.4303C202.1 40.5413 202.003 40.6285 201.921 40.7022C201.782 40.8273 201.686 40.9134 201.605 41.011C199.241 43.8256 196.203 45.4185 192.568 45.9835C188.986 46.5402 185.62 45.9903 182.447 44.232C179.497 42.5974 177.197 39.3498 177.785 34.894C178.338 30.7096 180.909 28.3277 184.681 26.9609C187.342 25.9967 190.126 25.8612 192.933 25.9254C195.967 25.9951 198.949 26.3886 201.879 27.175C201.919 27.1859 201.967 27.1684 202.038 27.1425C202.08 27.1274 202.129 27.1095 202.189 27.0927ZM240.345 45.4518H243.403C243.41 45.3091 243.418 45.1793 243.425 45.058C243.439 44.8254 243.451 44.624 243.451 44.4227C243.451 42.9539 243.452 41.4851 243.454 40.0162C243.458 35.6649 243.463 31.3137 243.422 26.9628C243.408 25.4529 243.284 23.9158 242.968 22.4425C242.279 19.2376 240.621 16.6315 237.683 14.9446C234.895 13.3439 231.919 12.9372 228.732 13.304C224.968 13.7372 222.096 15.5009 219.924 18.5014C219.803 18.668 219.681 18.8336 219.559 18.9991C219.506 19.0714 219.452 19.1437 219.399 19.216L219.201 19.1703V13.9396C219.112 13.9356 219.024 13.9316 218.936 13.9276C217.919 13.8808 217.005 13.8388 216.114 13.9581V45.4122H219.136V44.2815C219.137 42.7451 219.136 41.2088 219.135 39.6724C219.134 35.7011 219.132 31.73 219.146 27.7587C219.153 26.1283 219.288 24.4732 219.914 22.9687C222.084 17.747 227.165 15.1287 232.542 16.1925C235.872 16.8515 238.195 18.7482 239.45 21.9141C240.139 23.6524 240.314 25.4716 240.33 27.292C240.366 31.422 240.358 35.5522 240.351 39.6825C240.348 41.2944 240.346 42.9063 240.345 44.5182V45.4518Z" fill="black" fill-opacity="0.8"/>
</svg>
