<svg xmlns="http://www.w3.org/2000/svg" viewBox="0 0 1615.25 319.17"><defs><style>.cls-1{fill:#fff;fill-rule:evenodd;}</style></defs><g id="Layer_2" data-name="Layer 2"><g id="LOGO"><path class="cls-1" d="M86.29,84.13q10.29-12.55,22.37-18.36T130.72,60h7.73a7.36,7.36,0,0,1,1.45.16,7.11,7.11,0,0,0,1.44.16A73,73,0,0,1,150.52,63q6,2.1,10.46,10.46a43.58,43.58,0,0,1,3.38,7.89q1.13,3.7,2.42,7.24a60.71,60.71,0,0,0,2.9,6.77,23.62,23.62,0,0,0,4.5,6.11,20.28,20.28,0,0,0,7.73,5.15,32.22,32.22,0,0,0,10.14,2.26,30.18,30.18,0,0,0,10.31-1.13,18.44,18.44,0,0,0,8.53-5.31,8.46,8.46,0,0,1-3.86-1,33.13,33.13,0,0,1-3.71-1.77,10.81,10.81,0,0,1-3.7-3.38,19.09,19.09,0,0,1-3.06-4.83c-.75-1.71-1.5-3.54-2.25-5.47s-1.72-4.08-2.9-6.44a89.05,89.05,0,0,0-4.67-8.05q-4.52-6.12-16.26-10.79t-33-4.67H96.59a86,86,0,0,0-17.39,2.1,97.77,97.77,0,0,0-20.76,7.08,107.85,107.85,0,0,0-21.25,13.2A91.31,91.31,0,0,0,18.51,98.61,106.55,106.55,0,0,0,5.15,126.47Q0,142.4,0,163.33q0,31.23,9,53.61T32.68,253.8a91.2,91.2,0,0,0,33.16,21.25,108.51,108.51,0,0,0,37.51,6.76h34.13q21.26,0,33-4.66t16.26-10.79a86.39,86.39,0,0,0,4.67-8.05c1.18-2.36,2.14-4.51,2.9-6.44s1.5-3.7,2.25-5.31a20.59,20.59,0,0,1,3.06-4.67,10.91,10.91,0,0,1,3.7-3.38,37.1,37.1,0,0,1,3.71-1.77,25.66,25.66,0,0,1,3.86-1,18.44,18.44,0,0,0-8.53-5.31,30.43,30.43,0,0,0-10.31-1.13,32.5,32.5,0,0,0-10.14,2.26,22.83,22.83,0,0,0-7.73,4.83,23.5,23.5,0,0,0-4.5,6.12,60.55,60.55,0,0,0-2.9,6.76c-.86,2.36-1.67,4.78-2.42,7.24a43.58,43.58,0,0,1-3.38,7.89q-4.5,8.37-10.46,10.62a39,39,0,0,1-9.18,2.58,9.56,9.56,0,0,1-2.89.32h-1.29v-1h-3.87a53.17,53.17,0,0,1-27.52-7.73q-13-7.72-22.7-22.38T67.61,211.14q-5.79-21.07-5.79-47.81,0-27.69,7.08-47.17T86.29,84.13Z"/><path class="cls-1" d="M356.74,56.11h-9V60a15.49,15.49,0,0,1,4.5,2.57,17.4,17.4,0,0,1,3.06,4.51,16.49,16.49,0,0,1,1.45,7.41v92.4H285.91V72.54a14.36,14.36,0,0,1,1.77-6.28,20.54,20.54,0,0,1,3.06-4A11.37,11.37,0,0,1,294.92,60V56.11H225.38V60a15.36,15.36,0,0,1,4.5,2.57,17.15,17.15,0,0,1,3.06,4.51,16.49,16.49,0,0,1,1.45,7.41V263.79a15.44,15.44,0,0,1-1.45,7.24,17.8,17.8,0,0,1-3.06,4.35,15.36,15.36,0,0,1-4.5,2.57v3.86h69.54V278a11.37,11.37,0,0,1-4.18-2.25,13.65,13.65,0,0,1-3.06-3.7,14.4,14.4,0,0,1-1.77-6.28V171.06h70.83v92.73a15.44,15.44,0,0,1-1.45,7.24,18.07,18.07,0,0,1-3.06,4.35,15.49,15.49,0,0,1-4.5,2.57v3.86h69.54V278a11.49,11.49,0,0,1-4.19-2.25A13.82,13.82,0,0,1,410,272a14.53,14.53,0,0,1-1.78-6.28V72.54A14.49,14.49,0,0,1,410,66.26a20.91,20.91,0,0,1,3.05-4A11.49,11.49,0,0,1,417.27,60V56.11H356.74Z"/><path class="cls-1" d="M662.28,118.9A112.47,112.47,0,0,0,647.8,95.72a97.46,97.46,0,0,0-22.38-20.13,115.41,115.41,0,0,0-31.55-14.16q-18.2-5.31-41.7-5.32-25.75,0-44.59,5.8T475.38,77a91.32,91.32,0,0,0-21.89,21.09,112.23,112.23,0,0,0-13.36,23.67,105.5,105.5,0,0,0-6.6,22.86,118.63,118.63,0,0,0-1.77,18.67v2.9a10.22,10.22,0,0,0,.32,2.57v.33a10.34,10.34,0,0,0-.32,2.57v2.9a118.52,118.52,0,0,0,1.77,18.67,105.34,105.34,0,0,0,6.6,22.86,111.74,111.74,0,0,0,13.36,23.67,91.13,91.13,0,0,0,21.89,21.09q13.37,9.35,32.36,15.13t44.43,5.79q35.42,0,58.76-11.42t37-28.18q13.68-16.74,19.15-35.09t5.48-32.52V163.33a103.67,103.67,0,0,0-2.42-20.93A110.17,110.17,0,0,0,662.28,118.9Zm-51.51,49.9v5.8q0,24.15-5.31,43.14t-13.85,32q-8.54,13-19,19.8t-20.45,6.76q-10,0-20.28-6.6t-18.68-19.48q-8.37-12.87-13.84-31.39t-5.8-42.34v-4.18a8.92,8.92,0,0,1,.16-1.78,7.18,7.18,0,0,0,.17-1.44h-.33v-.33h.33a7.26,7.26,0,0,0-.17-1.44,8.92,8.92,0,0,1-.16-1.78V161.4q.31-23.82,5.8-42.5t13.84-31.39Q521.58,74.79,531.89,68t20.28-6.76q10,0,20.45,6.92t19,20q8.53,13,13.85,32t5.31,43.14Z"/><path class="cls-1" d="M1244.34,60a10.05,10.05,0,0,1,4.51,3.06,7.63,7.63,0,0,1,1.45,4,11.92,11.92,0,0,1-.48,4.35c-.44,1.4-.86,2.74-1.29,4l-58,177.73L1109.76,77.69a15.72,15.72,0,0,1-2.09-6.76,19.74,19.74,0,0,1,.48-5.8,23.71,23.71,0,0,1,2.58-5.8V56.11h-81.46v3.22a13.05,13.05,0,0,1,4.51,1.61,28.91,28.91,0,0,1,4.18,3.55,23.51,23.51,0,0,1,4.19,6.11L1130,261.85a18,18,0,0,1,3.06,6.93,12.36,12.36,0,0,1-.16,5.31,11.11,11.11,0,0,1-2.25,4.5l2.25,3.22h75.34v-3.22l.32-.64a14.67,14.67,0,0,1-4.18-15.13L1267.2,70a31.3,31.3,0,0,1,3.38-7.08,7.13,7.13,0,0,1,5.64-2.9V56.11h-31.55Z"/><path class="cls-1" d="M1299.72,56.11h-9V60a15.36,15.36,0,0,1,4.5,2.57,17.15,17.15,0,0,1,3.06,4.51,16.49,16.49,0,0,1,1.45,7.41V263.79a15.44,15.44,0,0,1-1.45,7.24,17.8,17.8,0,0,1-3.06,4.35,15.36,15.36,0,0,1-4.5,2.57v3.86h69.22V278a8.85,8.85,0,0,1-4.19-2.25,11.74,11.74,0,0,1-2.89-3.7,16.18,16.18,0,0,1-1.61-6.28V72.54a16.13,16.13,0,0,1,1.61-6.28,16.87,16.87,0,0,1,2.89-4,8.85,8.85,0,0,1,4.19-2.25V56.11h-60.21Z"/><path class="cls-1" d="M1612.83,142.4a110.17,110.17,0,0,0-7.89-23.5,112.47,112.47,0,0,0-14.48-23.18,97.46,97.46,0,0,0-22.38-20.13,115.41,115.41,0,0,0-31.55-14.16q-18.19-5.31-41.7-5.32-25.75,0-44.59,5.8T1418,77a91.32,91.32,0,0,0-21.89,21.09,112.23,112.23,0,0,0-13.36,23.67,105.5,105.5,0,0,0-6.6,22.86,118.63,118.63,0,0,0-1.77,18.67v2.9a10.22,10.22,0,0,0,.32,2.57v.33a10.34,10.34,0,0,0-.32,2.57v2.9a118.52,118.52,0,0,0,1.77,18.67,105.34,105.34,0,0,0,6.6,22.86,111.74,111.74,0,0,0,13.36,23.67A91.13,91.13,0,0,0,1418,260.89q13.37,9.35,32.36,15.13t44.43,5.79q35.42,0,58.76-11.42t37-28.18q13.68-16.74,19.15-35.09t5.48-32.52V163.33A103.67,103.67,0,0,0,1612.83,142.4Zm-59.4,26.4v5.8q0,24.15-5.31,43.14t-13.85,32q-8.54,13-19,19.8t-20.45,6.76q-10,0-20.28-6.6t-18.68-19.48q-8.37-12.87-13.84-31.39t-5.8-42.34v-4.18a8.92,8.92,0,0,1,.16-1.78,7.11,7.11,0,0,0,.16-1.44h-.32v-.33h.32a7.19,7.19,0,0,0-.16-1.44,8.92,8.92,0,0,1-.16-1.78V161.4q.32-23.82,5.8-42.5t13.84-31.39q8.37-12.72,18.68-19.48t20.28-6.76q10,0,20.45,6.92t19,20q8.54,13,13.85,32t5.31,43.14Z"/><path class="cls-1" d="M862.36,0a159.59,159.59,0,1,0,159.58,159.58A159.59,159.59,0,0,0,862.36,0ZM978.64,73.44a56.75,56.75,0,0,1-8.93,18.68c-1.25,1.7-3.1,3.11-4.36,4.77-6.6,8.74-16.89,14.66-25.75,21.17-11.42,8.39-22.53,19.09-30.73,30.71-4.73,6.71-12.33,17.56-12,28.85,16.35,1.09,23.23-7.53,32.19-14.32l1.87-2.07a72.45,72.45,0,0,1,7.27-6.85c1.82-1.38,3.14-3.6,5-5,7.31-5.49,17.08-7.53,27.21-10.38,2.27-.64,4.28-.45,6.64-1,3.91-1,13.51-2.4,18.07-1.45,2,.41,3.7-.18,5.4.41,2.57.9,6.22,4,6.65,7.06.37.88-.64,2.52-1,3.32-1.61,3.17-3.63,5.27-5.61,7.89a55,55,0,0,1-10.59,10.58c-1.36,1-2.38,2.71-3.74,3.74-4.69,3.54-8.79,7.66-13.5,11.2-3.71,2.8-6.88,6.55-10.59,9.34-11.47,8.62-21.28,18.66-31.36,28.64-4.25,4.22-11.91,8.37-14.95,13.29-3.36,5.43-1.49,14.45-3.11,21.79-.67,3,.14,6.49-.63,9.34-5.16,19.28-18.52,34.59-32.6,45-3.56,2.64-11,9.42-16.61,9.34h0c-5.59.08-13-6.7-16.6-9.34-14.07-10.44-27.43-25.75-32.58-45-.76-2.85.05-6.3-.63-9.34-1.62-7.34.25-16.36-3.11-21.79-3-4.92-10.69-9.07-14.94-13.29-10.08-10-19.88-20-31.34-28.64-3.71-2.79-6.87-6.54-10.58-9.34-4.71-3.54-8.81-7.66-13.49-11.2-1.36-1-2.38-2.71-3.74-3.74a54.94,54.94,0,0,1-10.58-10.58c-2-2.62-4-4.72-5.61-7.89-.4-.8-1.41-2.44-1-3.32.42-3,4.07-6.16,6.64-7.06,1.69-.59,3.42,0,5.39-.41,4.56-.95,14.15.48,18.06,1.45,2.36.59,4.37.4,6.64,1,10.13,2.85,19.88,4.89,27.19,10.38,1.84,1.38,3.16,3.6,5,5a73.43,73.43,0,0,1,7.26,6.85l1.87,2.07c9,6.79,15.84,15.41,32.17,14.32.28-11.29-7.31-22.14-12-28.85-8.2-11.62-19.3-22.32-30.72-30.71-8.85-6.51-19.13-12.43-25.73-21.17-1.26-1.66-3.11-3.07-4.36-4.77a56.94,56.94,0,0,1-8.92-18.68c-1.13-3.8-1.53-11.55-.21-15.77a63,63,0,0,1,6.43-13.49h.21v.41c.55,2.08,1.11,4.15,1.66,6.23,1.8,4.85,3.45,9.89,6,14.11,5.55,9.11,13.07,19.46,21.38,25.73,2.13,1.61,3.87,4,6,5.61,14.66,11,30,21.7,44.82,32.58,9.72,7.14,20.87,16.42,26,28a53.23,53.23,0,0,1,2.9,8.92v2.08a35.53,35.53,0,0,1,.64,7,35.53,35.53,0,0,1,.64-7v-2.08a52.35,52.35,0,0,1,2.91-8.92c5.08-11.6,16.23-20.88,26-28,14.83-10.88,30.19-21.58,44.86-32.58,2.15-1.62,3.89-4,6-5.61C951.44,84.39,959,74,964.52,64.93c2.57-4.22,4.23-9.26,6-14.11.55-2.08,1.1-4.15,1.66-6.23v-.41h.2a62.07,62.07,0,0,1,6.44,13.49C980.17,61.89,979.77,69.64,978.64,73.44Z"/></g></g></svg>