<svg xmlns="http://www.w3.org/2000/svg" viewBox="0 0 1731.83 691.96"><defs><style>.cls-1,.cls-2{fill:#fff;}.cls-1{fill-rule:evenodd;}</style></defs><g id="Layer_2" data-name="Layer 2"><g id="Layer_1-2" data-name="Layer 1"><g id="Layer_1-3" data-name="Layer_1"><path class="cls-1" d="M135.85,215.74a242.37,242.37,0,0,0,0,252.93l-4.7,4.7L0,342.21,131.16,211.05l4.69,4.69Z"/><g id="_1106150224" data-name=" 1106150224"><path class="cls-1" d="M473.37,553.26,342.21,684.42,211.05,553.26l4.7-4.7a242.37,242.37,0,0,0,252.93,0l4.69,4.69Z"/><path class="cls-1" d="M342.21,0,473.37,131.16l-4.7,4.7a242.37,242.37,0,0,0-252.93,0l-4.69-4.69L342.21,0Z"/></g><path class="cls-1" d="M342.21,205.57a136.2,136.2,0,0,1,96.62,40l35.55-35.52a186.32,186.32,0,0,0-132.17-54.77C239,155.31,155.32,239,155.32,342.21S239,529.09,342.21,529.09a186.28,186.28,0,0,0,132.12-54.71l-35.51-35.55a136.64,136.64,0,1,1-96.61-233.26Z"/><polygon class="cls-1" points="1642.11 424.38 1642.11 284.71 1582.56 284.71 1582.56 259.07 1731.83 259.07 1731.83 284.71 1672.28 284.71 1672.28 424.38 1642.11 424.38"/><path class="cls-1" d="M1535.07,424.38,1464,335.31c-9.22-11.69-17.42-22.39-24.83-32.46.59,11.31.88,23.77.88,37.23v84.3h-30.15V259.07h27.72l71.17,89.08c8.27,10.5,16.62,21.41,24.9,32.56-.59-11.24-.91-22.61-.91-33.94v-87.7h30.3V424.38Z"/><polygon class="cls-1" points="1342.88 424.38 1342.88 259.07 1373.03 259.07 1373.03 424.38 1342.88 424.38"/><path class="cls-1" d="M1224.43,427.27c-13.51,0-25.8-2.12-36.53-6.33a79.45,79.45,0,0,1-27.58-17.82A76.7,76.7,0,0,1,1143,376a96.53,96.53,0,0,1-6-34.25,94.11,94.11,0,0,1,6.15-34.46,79.05,79.05,0,0,1,17.56-27.22,80.58,80.58,0,0,1,27.52-17.77c10.59-4.21,22.65-6.34,35.86-6.34,13.46,0,25.68,2.13,36.31,6.34A79.72,79.72,0,0,1,1288,280.05a77.35,77.35,0,0,1,17.31,27.27,97.13,97.13,0,0,1,5.94,34.41,94.6,94.6,0,0,1-6.09,34.27,77.32,77.32,0,0,1-17.59,27.15,81.24,81.24,0,0,1-27.44,17.78,96.43,96.43,0,0,1-35.69,6.34Zm-.27-145.93h0a65.35,65.35,0,0,0-22.69,3.9,50.78,50.78,0,0,0-18.09,11.34,53,53,0,0,0-12,18.73c-3,7.57-4.44,16.46-4.44,26.42s1.51,18.82,4.48,26.35a53.67,53.67,0,0,0,12.09,18.68,49.48,49.48,0,0,0,18,11.23,65.45,65.45,0,0,0,22.86,3.88A64,64,0,0,0,1247,398a49.87,49.87,0,0,0,18-11.26,52.67,52.67,0,0,0,12-18.66c2.95-7.56,4.44-16.44,4.44-26.36s-1.49-18.85-4.44-26.42a53,53,0,0,0-12-18.74,51,51,0,0,0-18.07-11.33,65.49,65.49,0,0,0-22.7-3.9Z"/><path class="cls-1" d="M988,424.38V259.07h53.54a174.94,174.94,0,0,1,20.91,1.19,102.29,102.29,0,0,1,18,3.81c11.39,3.59,20.2,9.12,26.21,16.43s9.18,16.62,9.18,27.37a44.69,44.69,0,0,1-5.95,23.19,48,48,0,0,1-17.09,16.69c-7.22,4.32-15.78,7.51-26.19,9.71a165.3,165.3,0,0,1-34.13,3.22c-4.62,0-9.41-.15-14.29-.43v64.13Zm30.16-89.92h0c1.7.14,3.44.25,5.22.34,3.11.16,6,.24,8.84.24a134.44,134.44,0,0,0,25.25-2.05c6.7-1.31,12.15-3.2,16.21-5.62a21.85,21.85,0,0,0,8.33-8.23,24.13,24.13,0,0,0,2.56-11.27c0-5.1-1.32-9.14-4-12.34s-6.92-5.84-12.29-7.64a61.69,61.69,0,0,0-12.28-2.44,162.46,162.46,0,0,0-16.85-.74h-21v49.75Z"/><polygon class="cls-1" points="837.65 424.38 837.65 259.07 954.23 259.07 954.23 284.71 867.8 284.71 867.8 327.1 944.67 327.1 944.67 352.75 867.8 352.75 867.8 398.74 959.18 398.74 959.18 424.38 837.65 424.38"/><path class="cls-1" d="M654.66,424.38V368.22l26-26-26-26V259.07h44.9c8.47,0,16,.29,22.86.9a120.15,120.15,0,0,1,20,3.24,104.11,104.11,0,0,1,28.31,11.22,76,76,0,0,1,20.45,17.31,70.74,70.74,0,0,1,12.17,22.57,92,92,0,0,1-.08,53.81,70.9,70.9,0,0,1-12.36,23.09,77.35,77.35,0,0,1-20.56,17.67A101.37,101.37,0,0,1,742,420.26a128,128,0,0,1-20,3.22c-6.84.6-14.54.9-22.85.9h-44.5Zm42.58-25.64h0c8,0,15.47-.26,22.18-.79A95.09,95.09,0,0,0,736.69,395c13.11-3.61,23.3-10,30.27-19s10.44-20.75,10.44-35c0-14-3.49-25.49-10.39-34.05s-17.16-14.89-30.33-18.52a91.92,91.92,0,0,0-17.29-2.95c-6.67-.52-14.13-.78-22.15-.78H684.81v114Z"/><path class="cls-1" d="M342.21,354.6a12.4,12.4,0,1,0-12.4-12.39A12.41,12.41,0,0,0,342.21,354.6Z"/><polygon class="cls-2" points="411.74 691.96 411.74 660.82 400.1 660.82 400.1 656.65 428.1 656.65 428.1 660.82 416.41 660.82 416.41 691.96 411.74 691.96"/><path class="cls-2" d="M432.74,692V656.65h7l8.35,25c.77,2.33,1.34,4.07,1.69,5.23q.6-1.93,1.87-5.67l8.46-24.56h6.28V692h-4.5V662.4L451.67,692h-4.22l-10.2-30.06V692Z"/><path class="cls-1" d="M536.21,427.27c-13.51,0-25.79-2.12-36.53-6.33a79.45,79.45,0,0,1-27.58-17.82A76.84,76.84,0,0,1,454.8,376a96.45,96.45,0,0,1-5.95-34.25A94.15,94.15,0,0,1,455,307.27a79.22,79.22,0,0,1,17.57-27.22,80.48,80.48,0,0,1,27.51-17.77c10.59-4.21,22.65-6.34,35.86-6.34,13.46,0,25.68,2.13,36.32,6.34a79.78,79.78,0,0,1,27.51,17.77,77.53,77.53,0,0,1,17.31,27.27A96.87,96.87,0,0,1,623,341.73a94.47,94.47,0,0,1-6.1,34.27,77.32,77.32,0,0,1-17.59,27.15,81.18,81.18,0,0,1-27.45,17.78,96.31,96.31,0,0,1-35.68,6.34Zm-.27-145.93h0a65.31,65.31,0,0,0-22.69,3.9,51,51,0,0,0-18.09,11.34,53.15,53.15,0,0,0-12,18.73c-2.95,7.57-4.44,16.46-4.44,26.42s1.5,18.82,4.48,26.35a53.69,53.69,0,0,0,12.1,18.68A50.19,50.19,0,0,0,513.36,398a65.4,65.4,0,0,0,22.85,3.88A64,64,0,0,0,558.75,398a49.91,49.91,0,0,0,18-11.26,52.77,52.77,0,0,0,12-18.66,72.62,72.62,0,0,0,4.45-26.36c0-10-1.5-18.84-4.45-26.42a53,53,0,0,0-12-18.74,51.08,51.08,0,0,0-18.07-11.33,65.44,65.44,0,0,0-22.7-3.9Z"/></g></g></g></svg>