<svg width="200" height="19" viewBox="0 0 200 19" fill="none" xmlns="http://www.w3.org/2000/svg">
<path d="M154.837 16.0677C154.784 16.8011 154.81 17.5345 154.81 18.2679C154.45 17.7479 154.624 17.1478 154.61 16.5878C154.57 15.7344 154.557 15.6944 153.704 15.681C150.61 15.681 147.53 15.6944 144.436 15.681C143.103 15.681 142.209 15.081 141.836 14.0009C141.716 13.6676 141.676 13.3076 141.676 12.9475C141.676 8.93393 141.676 4.92033 141.676 0.906731C141.676 0.600044 141.663 0.280023 141.889 0.0266724C141.889 4.34696 141.876 8.68058 141.889 13.0009C141.889 14.5743 142.796 15.4677 144.37 15.4677C147.663 15.4677 150.943 15.481 154.224 15.4544C154.704 15.441 154.877 15.5477 154.837 16.0677Z" fill="white"/>
<path d="M173.931 6.90713C173.918 7.80052 173.798 7.92053 172.865 7.93386C172.358 7.9472 171.838 7.93386 171.331 7.93386C168.331 7.93386 165.331 7.93386 162.344 7.93386C160.664 7.93386 159.344 8.69391 158.757 10.2273C158.077 12.0141 158.077 13.9343 158.73 15.761C159.077 16.7211 159.837 17.3478 160.757 17.7745C160.984 17.8812 161.304 17.8945 161.331 18.2412C161.251 18.0545 161.064 18.0945 160.931 18.0412C159.237 17.4012 158.304 16.1877 158.197 14.401C158.144 13.4542 158.157 12.4942 158.21 11.5474C158.33 9.29395 159.997 7.73385 162.264 7.73385C165.878 7.72051 169.504 7.72051 173.118 7.73385C173.598 7.73385 173.785 7.64051 173.745 7.12047C173.691 6.45376 173.745 5.78705 173.731 5.12034C173.705 3.73358 172.771 2.78685 171.371 2.78685C167.504 2.77352 163.651 2.77352 159.784 2.80019C159.237 2.80019 159.05 2.68018 159.09 2.12014C159.13 1.41343 159.077 0.706714 159.064 0C159.41 0.5067 159.237 1.08007 159.25 1.61344C159.277 2.5735 159.277 2.58684 160.211 2.58684C163.784 2.58684 167.358 2.58684 170.931 2.58684C172.971 2.58684 173.905 3.52023 173.918 5.54704C173.945 6.01373 173.945 6.45376 173.931 6.90713Z" fill="white"/>
<path d="M63.8976 15.8277C63.8976 16.6411 63.8843 17.4412 63.871 18.2545C63.8176 18.1879 63.791 18.1079 63.7643 18.0279C63.751 18.0012 63.7509 17.9879 63.7376 17.9612C63.5909 17.4945 63.751 16.9878 63.6843 16.5078C63.6576 16.2411 63.791 15.9211 63.4843 15.721C63.1776 15.6277 62.8576 15.6544 62.5509 15.6544C59.2173 15.6544 55.8971 15.6544 52.5636 15.6544C50.4834 15.6544 49.5367 14.721 49.5367 12.6542C49.5234 10.1873 49.5367 7.73385 49.5367 5.26702C49.5367 4.06694 50.0967 3.25355 51.1768 2.76018C51.2168 2.74685 51.2701 2.72018 51.3101 2.70685C51.4168 2.68018 51.5102 2.65351 51.6168 2.64018C51.8835 2.60017 52.1502 2.60017 52.4169 2.60017C55.8304 2.60017 59.244 2.60017 62.6575 2.60017C62.9376 2.60017 63.2309 2.65351 63.4976 2.50683C63.5776 2.42683 63.6309 2.33349 63.6576 2.22682C63.6843 1.70678 63.6576 1.18675 63.6709 0.666711C63.6709 0.5067 63.6709 0.333356 63.7376 0.186679C63.7376 0.173345 63.751 0.160011 63.751 0.146676C63.7776 0.0933396 63.8043 0.0400027 63.8576 0C63.8576 0.786719 63.8576 1.57344 63.8576 2.36016V2.66684C63.6976 2.9602 63.4176 2.80019 63.2042 2.80019C59.6173 2.81352 56.0304 2.81352 52.4435 2.80019C52.0168 2.80019 51.6035 2.82685 51.1901 2.90686C50.1101 3.44023 49.6967 4.30695 49.71 5.4937C49.75 7.9472 49.7234 10.414 49.7234 12.8675C49.7234 14.521 50.6168 15.4277 52.2569 15.4277C56.0704 15.441 59.884 15.4544 63.6976 15.4544C63.9776 15.5077 63.8976 15.7077 63.8976 15.8277Z" fill="white"/>
<path d="M73.3383 18.2546C73.0316 17.9479 72.5782 17.9612 72.2182 17.7612C71.4981 17.3612 70.8181 16.9211 70.3914 16.2011C69.6313 15.401 69.378 14.401 69.3646 13.3476C69.338 10.534 69.3513 7.72052 69.3646 4.907C69.3646 4.49364 69.4046 4.06694 69.6047 3.68025C70.0314 2.00014 71.1381 0.946734 72.7116 0.320025C72.9249 0.226686 73.2049 0.266688 73.3516 0.0266724C73.3649 0.373362 73.0716 0.400031 72.8582 0.466702C71.1781 1.05341 70.138 2.21348 69.698 3.92027C69.658 4.04027 69.6313 4.17362 69.6047 4.29362C69.538 4.62698 69.5247 4.96034 69.5247 5.29369C69.538 7.9072 69.5113 10.5207 69.538 13.1342C69.5513 14.1343 69.778 15.081 70.378 15.9077C70.378 15.9211 70.3914 15.9211 70.3914 15.9344C71.0181 16.8545 71.8315 17.5212 72.9116 17.8679C73.1116 17.9212 73.3649 17.9479 73.3383 18.2546Z" fill="white"/>
<path d="M134.142 2.28015C134.169 2.73352 133.996 2.82686 133.582 2.82686C131.449 2.81352 129.315 2.84019 127.182 2.80019C126.595 2.78685 126.408 2.93353 126.408 3.5469C126.435 8.4539 126.408 13.3476 126.408 18.2545C126.328 18.1745 126.288 18.0812 126.262 17.9879C126.208 17.8145 126.222 17.6145 126.222 17.4278C126.222 12.8275 126.222 8.21388 126.222 3.61357C126.222 2.74685 126.368 2.60017 127.222 2.61351C127.528 2.61351 127.835 2.61351 128.142 2.61351C129.782 2.61351 131.435 2.61351 133.075 2.61351C133.462 2.61351 133.676 2.60017 133.796 2.50683C133.929 2.40016 133.942 2.18681 133.956 1.76012C133.982 1.30675 133.862 0.85339 133.969 0.400027C133.996 0.266684 134.049 0.133342 134.129 0C134.142 0.760051 134.102 1.5201 134.142 2.28015Z" fill="white"/>
<path d="M143.21 18.2545C143.09 18.0545 142.863 18.0945 142.676 18.0279C140.476 17.3078 139.089 15.441 139.089 13.1209C139.076 8.74725 139.076 4.37362 139.076 0C139.329 0.306687 139.276 0.666711 139.276 1.0134C139.276 4.97366 139.276 8.93393 139.276 12.8942C139.276 15.281 140.409 16.9211 142.636 17.7879C142.863 17.8945 143.17 17.9079 143.21 18.2545Z" fill="white"/>
<path d="M111.047 5.14701C111.061 9.52063 111.061 13.8809 111.074 18.2545C110.821 17.9479 110.874 17.5878 110.874 17.2278C110.874 13.3076 110.874 9.37396 110.861 5.4537C110.861 3.61357 110.194 2.08014 108.647 1.00007C108.301 0.760051 107.9 0.613374 107.514 0.453364C107.287 0.360024 106.967 0.34669 106.94 0C107.047 0.186679 107.247 0.146676 107.407 0.200013C109.634 0.933396 111.034 2.80019 111.047 5.14701Z" fill="white"/>
<path d="M123.795 17.4412C123.795 17.6412 123.808 17.8545 123.742 18.0412C123.728 18.0812 123.715 18.1079 123.688 18.1479C123.662 18.1879 123.635 18.2279 123.608 18.2679C123.608 13.2809 123.608 8.28056 123.635 3.29356C123.635 2.81352 123.422 2.81352 123.075 2.82686C120.901 2.84019 118.728 2.81352 116.541 2.84019C116.048 2.84019 115.888 2.72019 115.901 2.21348C115.928 1.4801 115.888 0.74672 115.874 0.0266724C115.914 0.0933435 115.954 0.160015 115.981 0.226686C115.994 0.253354 116.008 0.293357 116.008 0.320025C116.168 0.800057 116.021 1.30676 116.048 1.78679C116.088 2.53351 116.168 2.64018 116.901 2.64018C118.848 2.64018 120.808 2.64018 122.755 2.64018C123.675 2.64018 123.782 2.76019 123.782 3.68025C123.795 8.25389 123.795 12.8542 123.795 17.4412Z" fill="white"/>
<path d="M200 7.20048V3.60024C199.653 2.4935 199.133 1.50677 198.16 0.800053C197.653 0.440029 197.04 0.333356 196.533 0H181.732C181.719 0.173345 181.679 0.34669 181.679 0.520035C181.679 6.25375 181.679 11.9875 181.679 17.7212C181.679 17.8945 181.705 18.0679 181.732 18.2412H196.4C197.28 18.1612 198.04 17.8145 198.68 17.2011C199.347 16.5611 199.827 15.8277 200 14.9077V11.3341C199.707 10.6407 199.52 9.89399 198.987 9.32062C198.92 9.24062 198.827 9.14728 198.92 9.0406C199.44 8.50723 199.6 7.78718 200 7.20048ZM184.999 2.80019C188.479 2.81352 191.973 2.80019 195.453 2.81352C196.613 2.81352 197.2 3.42689 197.213 4.58697C197.213 5.05367 197.213 5.52037 197.213 5.98707C197.2 7.13381 196.6 7.73385 195.426 7.73385C193.693 7.74718 191.959 7.73385 190.226 7.73385C188.479 7.73385 186.719 7.72051 184.959 7.74718C184.546 7.74718 184.426 7.62717 184.439 7.22715C184.466 5.92039 184.466 4.61364 184.439 3.30689C184.439 2.86686 184.612 2.80019 184.999 2.80019ZM195.533 15.4544C193.8 15.4677 192.066 15.4544 190.333 15.4544C188.559 15.4544 186.786 15.441 184.999 15.4677C184.546 15.4677 184.426 15.3344 184.439 14.9077C184.466 13.6276 184.466 12.3342 184.439 11.0541C184.426 10.6674 184.519 10.5207 184.946 10.5207C188.479 10.534 192.013 10.5207 195.533 10.534C196.56 10.534 197.173 11.1741 197.186 12.2008C197.2 12.7342 197.2 13.2675 197.186 13.8009C197.186 14.8277 196.573 15.4544 195.533 15.4544Z" fill="white"/>
<path d="M108.487 17.3078C108.487 17.6412 108.514 17.9745 108.274 18.2546C108.274 14.0409 108.26 9.82733 108.26 5.61372C108.26 3.58691 107.474 2.81353 105.434 2.81353C102.393 2.81353 99.3532 2.82686 96.313 2.8002C95.7663 2.8002 95.6063 2.93354 95.6196 3.49358C95.633 8.41391 95.6196 13.3342 95.6196 18.2679C95.3929 18.0145 95.4063 17.6945 95.4063 17.3878C95.4063 12.8409 95.4063 8.2939 95.4063 3.74693C95.4063 2.76019 95.553 2.61352 96.5263 2.61352C99.5932 2.60018 102.66 2.60018 105.727 2.61352C107.474 2.62685 108.5 3.65359 108.5 5.40037C108.5 9.36064 108.487 13.3342 108.487 17.3078Z" fill="white"/>
<path d="M41.6962 3.61358C41.8295 4.72032 41.8295 5.82706 41.6962 6.9338C41.2962 9.08061 39.6027 10.5207 37.3893 10.534C33.9224 10.5474 30.4555 10.5607 26.9886 10.5207C26.3485 10.5074 26.2019 10.7074 26.2419 11.2941C26.2952 11.9075 26.2419 12.5342 26.2552 13.1609C26.2819 14.5343 27.2286 15.4544 28.642 15.4544C32.4823 15.4544 36.3225 15.4677 40.1628 15.441C40.7095 15.441 40.9095 15.561 40.8561 16.1344C40.7895 16.8411 40.8161 17.5478 40.7895 18.2546C40.4295 17.7212 40.6161 17.1345 40.5895 16.5744C40.5495 15.7211 40.5361 15.6677 39.6827 15.6677C36.0425 15.6677 32.4023 15.681 28.7487 15.6544C27.0286 15.641 26.0685 14.6543 26.0552 12.9609C26.0552 12.6008 26.0552 12.2542 26.0552 11.8941C26.0552 10.334 26.0552 10.334 27.6019 10.334C30.7355 10.334 33.869 10.334 37.0026 10.334C39.4294 10.334 40.8828 9.21395 41.4962 6.8938C41.6029 5.88039 41.5229 4.85366 41.5362 3.84026C41.2695 2.08014 40.2828 0.933397 38.6027 0.37336C38.416 0.306689 38.1226 0.346692 38.136 0.0133362C39.5894 0.426697 40.7628 1.16008 41.3895 2.60018C41.5362 2.93353 41.6695 3.25355 41.6962 3.61358Z" fill="white"/>
<path d="M51.0702 18.2545C50.9501 18.0545 50.7235 18.0812 50.5501 18.0145C48.43 17.3478 46.9899 15.4677 46.9765 13.2409C46.9499 10.494 46.9499 7.74718 46.9765 4.987C46.9899 2.82686 48.39 0.960064 50.4434 0.266684C50.6168 0.200013 50.8435 0.226682 50.9501 0C50.9368 0.360024 50.6301 0.386692 50.4034 0.480032C48.3233 1.33342 47.1499 3.0402 47.1366 5.28035C47.1232 7.82719 47.1232 10.3874 47.1366 12.9342C47.1499 15.241 48.3633 16.9745 50.5101 17.7879C50.7235 17.8945 51.0435 17.9079 51.0702 18.2545Z" fill="white"/>
<path d="M176.532 5.64038C176.532 2.64018 175.358 1.04007 172.478 0.106674C172.451 0.0933395 172.425 0.0400027 172.398 0H159.064C159.077 0.706714 159.13 1.41343 159.09 2.12014C159.05 2.68018 159.237 2.81352 159.784 2.80019C163.651 2.77352 167.504 2.78685 171.371 2.78685C172.771 2.78685 173.705 3.73358 173.731 5.12034C173.745 5.78705 173.691 6.45376 173.745 7.12047C173.785 7.64051 173.598 7.73385 173.118 7.73385C169.504 7.70718 165.878 7.72051 162.264 7.73385C160.01 7.73385 158.33 9.30729 158.21 11.5474C158.157 12.4942 158.144 13.4542 158.197 14.401C158.304 16.1877 159.237 17.4145 160.931 18.0412C161.064 18.0945 161.251 18.0545 161.331 18.2412H176.532C176.532 14.0543 176.532 9.85399 176.532 5.64038ZM173.745 11.0807C173.718 12.3608 173.718 13.6542 173.745 14.9343C173.758 15.321 173.678 15.4677 173.238 15.4677C169.598 15.4544 165.958 15.4677 162.317 15.4544C161.464 15.4544 160.997 15.001 160.984 14.1476C160.971 13.4009 160.971 12.6408 160.984 11.8808C160.997 10.9607 161.437 10.534 162.344 10.5207C164.144 10.5074 165.944 10.5207 167.744 10.5207C169.571 10.5207 171.385 10.534 173.211 10.5074C173.638 10.5074 173.758 10.6407 173.745 11.0807Z" fill="white"/>
<path d="M87.4859 3.26689C87.7659 4.60031 87.7793 5.9204 87.4859 7.25382C87.1392 9.09394 85.3658 10.5207 83.339 10.534C79.8454 10.5474 76.3652 10.5474 72.8716 10.534C72.3249 10.534 72.0583 10.614 72.1249 11.2408C72.1916 11.8541 72.1383 12.4808 72.1383 13.1075C72.1516 14.5476 73.085 15.4677 74.5251 15.4677C78.3653 15.4677 82.2056 15.481 86.0592 15.4544C86.5925 15.4544 86.8059 15.5744 86.7659 16.1344C86.7259 16.8411 86.7792 17.5478 86.7925 18.2546C86.4325 17.7212 86.6192 17.1345 86.5925 16.5611C86.5525 15.7077 86.5392 15.6544 85.6858 15.6544C82.3122 15.6544 78.9254 15.5877 75.5518 15.681C72.9516 15.7477 71.7516 14.8543 71.9116 12.0008C72.0049 10.334 71.9249 10.3207 73.6183 10.3207C76.7919 10.3207 79.9788 10.334 83.1523 10.3207C85.2324 10.3074 86.7392 9.16061 87.3126 7.22715C87.5126 5.98707 87.4192 4.74698 87.3659 3.5069C87.0459 1.89346 86.0458 0.920063 84.5391 0.37336C84.339 0.306689 84.019 0.37336 83.9924 0.0133362C85.4191 0.400029 86.5925 1.12008 87.2459 2.52017C87.3659 2.76019 87.4992 3.0002 87.4859 3.26689C87.4859 3.28022 87.4859 3.28022 87.4859 3.29355V3.26689Z" fill="white"/>
<path d="M93.0195 0.893395C93.0195 6.38709 93.0195 11.8808 93.0195 17.3745C93.0195 17.6812 93.0328 18.0012 92.8062 18.2546C92.8195 12.8809 92.8195 7.50717 92.8195 2.13348C92.8195 1.42676 92.8062 0.72005 92.8062 0.0133362C93.0328 0.266686 93.0195 0.586708 93.0195 0.893395Z" fill="white"/>
<path d="M26.9884 10.5207C30.4553 10.5607 33.9222 10.5474 37.3891 10.534C39.6026 10.5207 41.296 9.08061 41.6961 6.9338C41.6694 5.82706 41.6694 4.72032 41.6961 3.61358C41.6694 3.25355 41.5494 2.93353 41.4027 2.60018C40.776 1.16008 39.5893 0.413363 38.1492 0.0133362H27.3484C26.9617 0.186681 26.5351 0.173347 26.1617 0.400029C24.3482 1.4401 23.3082 2.9602 23.3082 5.08034C23.2948 7.69385 23.3082 10.3074 23.3082 12.9209C23.3082 15.7211 24.8016 17.6278 27.4951 18.2546H40.8293C40.8427 17.5478 40.8293 16.8411 40.896 16.1344C40.9494 15.5744 40.7493 15.441 40.2026 15.441C36.3624 15.4677 32.5221 15.4544 28.6819 15.4544C27.2684 15.4544 26.3084 14.521 26.295 13.1609C26.2817 12.5342 26.335 11.9208 26.2817 11.2941C26.2017 10.7074 26.3484 10.5074 26.9884 10.5207ZM28.4285 2.82686C31.4287 2.80019 34.4289 2.80019 37.4291 2.82686C38.3492 2.82686 38.9492 3.45357 38.9892 4.38696C39.0159 4.96033 39.0026 5.54704 38.9892 6.12041C38.9625 7.12048 38.3625 7.72052 37.3491 7.73385C35.589 7.74719 33.8422 7.73385 32.0821 7.73385C30.322 7.73385 28.5752 7.72052 26.8151 7.74719C26.3884 7.74719 26.2284 7.64051 26.255 7.20048C26.295 6.4671 26.255 5.73372 26.2684 5.00034C26.295 3.78692 27.2151 2.84019 28.4285 2.82686Z" fill="white"/>
<path d="M72.8715 10.5207C76.3651 10.5474 79.8453 10.5474 83.3389 10.5207C85.3657 10.5074 87.1524 9.09394 87.4858 7.25382C87.5791 5.93373 87.5791 4.61364 87.4858 3.29355C87.4858 3.28022 87.4858 3.28022 87.4858 3.26689C87.4991 2.98687 87.3658 2.76019 87.2591 2.52017C86.6058 1.12008 85.4323 0.400029 84.0056 0.0133362H73.3382C73.0715 0.133344 72.9115 0.226684 72.6982 0.306689C71.1247 0.946732 70.018 1.9868 69.5913 3.66691C69.498 4.14694 69.4713 4.62698 69.4713 5.10701C69.4713 7.33382 69.5246 9.57397 69.458 11.8008C69.418 13.3609 69.5913 14.8277 70.3914 16.1877C70.8181 16.9211 71.4981 17.3478 72.2181 17.7479C72.5782 17.9479 72.8048 17.9879 73.3382 18.2412H86.8058C86.7924 17.5345 86.7391 16.8145 86.7791 16.1211C86.8058 15.5477 86.6058 15.4277 86.0724 15.441C82.2321 15.4677 78.3919 15.4544 74.5383 15.4544C73.0849 15.4544 72.1648 14.5343 72.1515 13.0942C72.1381 12.4675 72.2048 11.8408 72.1381 11.2274C72.0581 10.6007 72.3248 10.5207 72.8715 10.5207ZM74.3649 2.81352C77.3385 2.80019 80.312 2.81352 83.2855 2.80019C83.9922 2.80019 84.4189 3.20022 84.779 3.73358C84.859 4.89366 85.139 6.08041 84.5256 7.18715C84.0723 7.60051 83.5522 7.73385 82.9388 7.73385C79.5386 7.72052 76.1517 7.72052 72.7515 7.73385C72.2715 7.73385 72.0715 7.65385 72.1115 7.12048C72.1648 6.41376 72.1115 5.70705 72.1381 4.987C72.1915 3.77359 73.1249 2.82686 74.3649 2.81352Z" fill="white"/>
<path d="M17.9479 2.73352C17.1211 1.20008 15.9077 0.213348 14.1343 0C9.58731 0.0133342 5.04034 0.0133342 0.480032 0C0.0800053 0 0 0.0800053 0 0.480032C0.0133342 6.25375 0.0133342 12.0275 0 17.7878C0 18.1879 0.0800053 18.2679 0.480032 18.2679C5.04034 18.2545 9.58731 18.2545 14.1476 18.2545C14.7743 18.1479 15.4144 18.0412 15.9477 17.6678C17.2678 16.7611 18.2946 15.6544 18.3479 13.9343C18.3212 10.734 18.3212 7.5205 18.3479 4.32029C18.4146 3.74692 18.2145 3.22688 17.9479 2.73352ZM12.8542 15.4677C9.70731 15.4277 6.5471 15.441 3.40023 15.4677C2.94686 15.4677 2.80019 15.361 2.80019 14.8943C2.82686 11.0541 2.82686 7.21381 2.80019 3.38689C2.80019 2.90686 2.9602 2.81352 3.40023 2.81352C6.56044 2.82685 9.70731 2.85352 12.8542 2.81352C14.0543 2.80019 14.9077 3.24022 15.441 4.29362C15.6677 5.65371 15.5477 7.02713 15.5477 8.38722C15.5344 10.254 15.6944 12.1341 15.441 14.0009C14.8943 15.041 14.0543 15.481 12.8542 15.4677Z" fill="white"/>
<path d="M111.074 18.2546H108.274C108.274 14.0409 108.26 9.82733 108.26 5.61371C108.26 3.58691 107.474 2.81352 105.434 2.81352C102.393 2.81352 99.3532 2.82686 96.313 2.80019C95.7663 2.80019 95.6063 2.93353 95.6196 3.49357C95.633 8.4139 95.6196 13.3342 95.6196 18.2679H92.8195C92.8328 12.8942 92.8328 7.52051 92.8328 2.14681C92.8328 1.4401 92.8195 0.733386 92.8195 0.0266724H106.954C107.06 0.213351 107.26 0.173349 107.42 0.226686C109.634 0.933399 111.034 2.80019 111.047 5.14701C111.061 9.52064 111.061 13.8943 111.074 18.2546Z" fill="white"/>
<path d="M49.7501 5.50703C49.7901 7.96053 49.7634 10.4274 49.7634 12.8809C49.7634 14.5343 50.6568 15.441 52.2969 15.441C56.1105 15.4544 59.9241 15.4677 63.7377 15.4677C63.8443 16.3211 63.8577 17.1745 63.7643 18.0279C63.7643 18.1079 63.751 18.1745 63.7377 18.2545H51.0702C51.0702 18.2679 50.7235 18.0812 50.5501 18.0145C48.43 17.3478 46.9899 15.4677 46.9765 13.2409C46.9499 10.494 46.9499 7.74718 46.9765 4.987C46.9899 2.82686 48.39 0.960064 50.4434 0.266684C50.6168 0.200013 50.8435 0.226682 50.9501 0H63.751C63.7643 0.0533369 63.7777 0.106674 63.7777 0.146676C63.8977 0.880059 63.711 1.62678 63.8843 2.36016V2.66684C63.6577 2.80019 63.4043 2.73352 63.1643 2.73352C59.4841 2.73352 55.8038 2.73352 52.1102 2.73352C51.8035 2.73352 51.4835 2.68018 51.2168 2.90686C50.1368 3.45356 49.7234 4.32029 49.7501 5.50703Z" fill="white"/>
<path d="M17.9479 2.73352C18.2146 3.22688 18.4012 3.74692 18.3346 4.32029C18.3079 7.5205 18.3079 10.7341 18.3346 13.9343C18.2812 15.6544 17.2545 16.7611 15.9344 17.6678C15.401 18.0412 14.761 18.1345 14.1343 18.2546C14.2543 18.0412 14.481 18.1079 14.6676 18.0545C16.5878 17.4145 17.8145 16.1477 18.2146 14.1343C18.2012 10.8007 18.2012 7.4805 18.2146 4.14695C17.8279 2.13348 16.6144 0.853392 14.6943 0.21335C14.5076 0.146678 14.2943 0.186681 14.1476 0.0133362C15.9211 0.226684 17.1345 1.21342 17.9479 2.73352Z" fill="white"/>
<path d="M27.4818 18.2546C24.7883 17.6145 23.2949 15.7077 23.2949 12.9209C23.2949 10.3074 23.2815 7.69385 23.2949 5.08034C23.3082 2.94687 24.3483 1.4401 26.1484 0.400029C26.5218 0.186681 26.9618 0.200015 27.3351 0.0133362C27.2818 0.240018 27.0685 0.226684 26.9084 0.280021C24.775 1.04007 23.4682 2.85353 23.4682 5.13368C23.4549 7.81386 23.4549 10.494 23.4682 13.1742C23.4815 15.441 24.855 17.3078 27.0285 18.0279C27.1885 18.0812 27.3885 18.0545 27.4818 18.2546Z" fill="white"/>
<path d="M126.142 18.2546C125.342 18.2546 124.542 18.2546 123.742 18.2546C123.622 18.0279 123.675 17.7745 123.675 17.5345C123.675 12.8409 123.675 8.14721 123.675 3.44023C123.675 2.73352 123.675 2.73352 122.955 2.73352C120.821 2.73352 118.701 2.72018 116.568 2.74685C116.074 2.74685 115.888 2.62684 115.941 2.12014C116.008 1.41343 115.874 0.706716 116.008 0.0133362C121.968 0.0133362 127.915 0.0133362 133.876 0.0133362C134.142 0.81339 133.969 1.62678 133.982 2.44016C133.982 2.69351 133.769 2.74685 133.556 2.73352C131.622 2.69351 129.702 2.82686 127.768 2.66685C127.635 2.65351 127.502 2.64018 127.368 2.62684C126.462 2.57351 126.262 2.76019 126.262 3.65358C126.262 8.30722 126.262 12.9609 126.262 17.6145C126.275 17.8412 126.302 18.0679 126.142 18.2546Z" fill="white"/>
<path d="M154.837 16.0677C154.784 16.8011 154.81 17.5345 154.81 18.2679H143.21C143.09 18.0679 142.863 18.1079 142.676 18.0412C140.476 17.3212 139.089 15.4544 139.089 13.1342C139.076 8.76059 139.076 4.38696 139.076 0.0133362H141.876C141.876 4.33362 141.863 8.66725 141.876 12.9875C141.876 14.561 142.783 15.4544 144.356 15.4544C147.65 15.4544 150.93 15.4677 154.21 15.441C154.704 15.441 154.877 15.5477 154.837 16.0677Z" fill="white"/>
<path d="M133.582 2.82686C131.449 2.81352 129.315 2.84019 127.182 2.80019C126.595 2.78685 126.408 2.93353 126.408 3.5469C126.435 8.4539 126.408 13.3476 126.408 18.2545H126.142C126.142 13.5342 126.142 8.81392 126.142 4.08027C126.142 3.9736 126.102 3.84026 126.155 3.74692C126.342 3.41356 125.688 3.01353 126.128 2.80019C126.635 2.56017 127.222 2.22682 127.795 2.4935C127.915 2.54684 128.035 2.58684 128.155 2.61351C128.542 2.69351 128.915 2.65351 129.289 2.66684C130.622 2.68018 131.955 2.65351 133.289 2.68018C133.556 2.68018 133.716 2.64018 133.809 2.50683C133.876 2.41349 133.902 2.26682 133.889 2.0668C133.862 1.37342 133.876 0.69338 133.876 0H134.142C134.142 0.760051 134.116 1.50677 134.142 2.26682C134.169 2.73352 133.996 2.82686 133.582 2.82686Z" fill="white"/>
<path d="M200 14.9343C199.827 15.8544 199.347 16.5878 198.68 17.2278C198.04 17.8412 197.28 18.1879 196.4 18.2679C196.653 18.0279 197 18.0679 197.293 17.9479C198.427 17.4412 199.227 16.6278 199.693 15.4944C199.787 15.2943 199.747 15.0277 200 14.9343Z" fill="white"/>
<path d="M123.742 18.0279V18.2546H123.608C123.608 13.2676 123.608 8.26722 123.635 3.28022C123.635 2.80019 123.422 2.80019 123.075 2.81352C120.901 2.82686 118.728 2.80019 116.541 2.82686C116.048 2.82686 115.888 2.70685 115.901 2.20015C115.928 1.46677 115.888 0.733384 115.874 0.0133362H116.008C116.008 0.106676 116.008 0.200015 116.008 0.293355C116.021 0.866726 116.034 1.42676 115.994 2.00014C115.968 2.52017 116.128 2.69351 116.661 2.68018C118.768 2.65351 120.875 2.69351 122.982 2.65351C123.608 2.64018 123.755 2.84019 123.755 3.44023C123.728 8.30722 123.742 13.1742 123.742 18.0279Z" fill="white"/>
<path d="M63.8977 15.8277C63.8977 16.6411 63.8844 17.4412 63.871 18.2545H63.7377C63.7377 18.1612 63.7377 18.0545 63.7377 17.9612C63.7377 17.1345 63.7377 16.3077 63.7244 15.481C63.9777 15.5077 63.8977 15.7077 63.8977 15.8277Z" fill="white"/>
<path d="M63.8708 0.0133362C63.8708 0.800055 63.8708 1.58677 63.8708 2.37349C63.6042 1.65345 63.7909 0.920063 63.7509 0.200015C63.7509 0.133344 63.7375 0.0800073 63.7375 0.0133362H63.8708V0.0133362Z" fill="white"/>
<path d="M70.3914 16.2011C69.6313 15.401 69.378 14.401 69.3646 13.3475C69.338 10.534 69.3513 7.72051 69.3646 4.90698C69.3646 4.49362 69.4046 4.06693 69.6046 3.68024C69.6046 3.88025 69.6046 4.0936 69.6046 4.29361C69.618 7.05379 69.658 9.81398 69.5913 12.5742C69.5646 13.7076 69.8313 14.721 70.3113 15.7077C70.3513 15.7744 70.3647 15.8544 70.3914 15.9211C70.4047 16.0011 70.4047 16.0944 70.3914 16.2011Z" fill="white"/>
<path d="M63.8709 2.66685C63.7109 2.96021 63.4309 2.8002 63.2175 2.8002C59.6306 2.81353 56.0437 2.81353 52.4568 2.8002C52.0301 2.8002 51.6167 2.82686 51.2034 2.90687C51.23 2.81353 51.2567 2.76019 51.2967 2.70686C51.3767 2.62685 51.4967 2.62685 51.6034 2.64019C51.6967 2.65352 51.7767 2.66685 51.8567 2.66685C55.8837 2.66685 59.8706 2.68019 63.8709 2.66685Z" fill="white"/>
<path d="M41.6962 6.93378C41.5629 5.82704 41.5629 4.7203 41.6962 3.61356C41.8162 4.7203 41.8296 5.82704 41.6962 6.93378Z" fill="white"/>
<path d="M87.4857 7.26714V3.26688C87.7657 4.6003 87.779 5.93372 87.4857 7.26714Z" fill="white"/>
<path d="M84.5389 7.20048C85.1523 6.09374 84.8723 4.90699 84.7923 3.74692C85.0457 4.92033 85.339 6.09374 84.5389 7.20048Z" fill="white"/>
<path d="M85.0723 6.5471C85.0723 6.88046 84.9256 7.14714 84.5522 7.20048C85.1656 6.09374 84.8856 4.90699 84.8056 3.74692C85.0323 3.76025 85.0856 3.90693 85.0856 4.10694C85.0723 4.92033 85.0856 5.73372 85.0723 6.5471Z" fill="white"/>
<path d="M15.6677 12.8408C15.6677 13.2275 15.6811 13.6409 15.441 13.9876C15.6811 12.1208 15.5344 10.2407 15.5477 8.37388C15.5611 7.01379 15.6677 5.64036 15.441 4.28027C15.6944 4.62696 15.6677 5.02699 15.6677 5.42702C15.6811 7.89385 15.6811 10.374 15.6677 12.8408Z" fill="white"/>
<path d="M15.7478 13.4009C15.7478 13.6542 15.7612 13.8942 15.4545 14.0009C15.6945 12.1341 15.5478 10.254 15.5611 8.38722C15.5745 7.02712 15.6811 5.6537 15.4545 4.29361C15.7878 4.32028 15.7478 4.56029 15.7478 4.78698C15.7478 7.6405 15.7478 10.5207 15.7478 13.4009Z" fill="white"/>
<path d="M18.2278 4.14694C18.2545 4.28028 18.2945 4.40029 18.2945 4.53363C18.2945 7.58717 18.2945 10.6274 18.2945 13.6809C18.2945 13.8276 18.2412 13.9876 18.2278 14.1343C18.2012 13.9876 18.1478 13.8409 18.1478 13.6809C18.1478 10.654 18.1478 7.62717 18.1478 4.58697C18.1478 4.4403 18.2012 4.29362 18.2278 4.14694Z" fill="white"/>
</svg>
