<svg width="581" height="75" viewBox="0 0 581 75" fill="none" xmlns="http://www.w3.org/2000/svg">
<g clip-path="url(#clip0)">
<path d="M117.54 55.6101C116.57 56.4101 115.59 57.2001 114.44 57.8201C112.4 58.9701 109.57 60.0301 106.03 60.0301C95.8598 60.0301 87.0098 51.2701 87.0098 39.2401C87.0098 27.2101 95.8598 18.4501 106.03 18.4501C109.13 18.4501 111.69 19.2501 113.46 20.2201C114.52 20.7501 115.41 21.3701 116.2 21.9901V3.8501H128.15V59.5901H119.3L117.54 55.6101ZM116.65 39.2401C116.65 33.4901 112.76 29.5101 107.8 29.5101C102.85 29.5101 98.9498 33.4901 98.9498 39.2401C98.9498 44.9901 102.84 48.9701 107.8 48.9701C112.76 48.9701 116.65 44.9901 116.65 39.2401Z" fill="black"/>
<path d="M142.75 1.18994C146.29 1.18994 149.39 4.28994 149.39 7.82994C149.39 11.3699 146.29 14.4699 142.75 14.4699C139.21 14.4699 136.11 11.3699 136.11 7.82994C136.12 4.28994 139.22 1.18994 142.75 1.18994ZM136.56 18.8899H148.5V59.5899H136.56V18.8899Z" fill="black"/>
<path d="M168.41 60.03C168.76 60.83 169.3 61.45 169.91 62.07C170.97 63.04 172.74 64.02 175.48 64.02C180.43 64.02 183.89 60.57 183.89 56.06V53.85C183.27 54.47 182.39 55.09 181.41 55.62C179.73 56.59 177.25 57.39 173.71 57.39C163.45 57.39 155.13 48.9 155.13 37.92C155.13 26.95 163.45 18.46 173.71 18.46C177.25 18.46 180.08 19.61 182.11 20.67C183.26 21.29 184.23 22.08 185.21 22.88L186.98 18.9H195.83V56.06C195.83 66.68 187.78 74.64 175.48 74.64C167.96 74.64 163.18 71.28 160.35 67.83C158.67 65.79 157.34 63.5 156.46 60.93L168.41 60.03ZM175.49 46.32C180.44 46.32 183.9 42.87 183.9 37.91C183.9 32.96 180.45 29.51 175.49 29.51C170.53 29.51 167.08 32.96 167.08 37.91C167.09 42.87 170.54 46.32 175.49 46.32Z" fill="black"/>
<path d="M210.44 1.18994C213.98 1.18994 217.08 4.28994 217.08 7.82994C217.08 11.3699 213.98 14.4699 210.44 14.4699C206.9 14.4699 203.8 11.3699 203.8 7.82994C203.81 4.28994 206.91 1.18994 210.44 1.18994ZM204.25 18.8899H216.19V59.5899H204.25V18.8899Z" fill="black"/>
<path d="M228.14 29.9499H221.95V19.7699H225.05C228.32 19.7699 229.92 18.1799 229.92 14.8999V9.1499H240.09V18.8799H248.5V29.9399H240.09V43.2099C240.09 46.7499 242.3 48.9599 245.4 48.9599C246.37 48.9599 246.99 48.8699 247.61 48.7799L248.49 48.5199V59.1399C248.05 59.3199 247.52 59.4899 246.9 59.5799C245.75 59.8499 244.33 60.0199 242.74 60.0199C233.45 60.0199 228.14 54.7999 228.14 44.9799V29.9499Z" fill="black"/>
<path d="M279.46 55.61C278.49 56.41 277.34 57.2 276.1 57.82C273.98 58.97 271.06 60.03 267.52 60.03C258.67 60.03 253.81 55.25 253.81 48.53C253.81 40.48 259.56 34.82 278.14 34.82C278.14 30.84 275.93 28.63 272.83 28.63C270.62 28.63 269.29 29.69 268.49 30.66C268.05 31.28 267.69 31.9 267.52 32.61L255.58 31.73C256.99 23.68 262.57 18.02 273.28 18.02C283.01 18.02 290.09 25.1 290.09 34.83V59.6H281.24L279.46 55.61ZM278.13 41.89C267.87 41.89 265.74 44.1 265.74 47.2C265.74 49.41 267.51 51.18 270.61 51.18C275.12 51.18 278.13 48.17 278.13 43.66V41.89Z" fill="black"/>
<path d="M298.04 3.8501H309.98V59.5901H298.04V3.8501Z" fill="black"/>
<path d="M338.9 18.5899H347.75L349.52 22.5699C350.32 21.7699 351.2 20.9799 352.26 20.3599C354.03 19.2999 356.6 18.1499 359.69 18.1499C363.85 18.1499 366.77 19.4799 368.63 20.8099C369.69 21.6099 370.58 22.4899 371.2 23.4599C372.17 22.4899 373.24 21.5999 374.47 20.8099C376.59 19.4799 379.6 18.1499 383.14 18.1499C391.99 18.1499 397.74 23.8999 397.74 34.9599V59.2899H385.8V36.2799C385.8 31.7699 383.14 29.1999 380.05 29.1999C376.95 29.1999 374.3 31.7699 374.3 36.2799V59.2899H362.36V36.2799C362.36 31.7699 359.7 29.1999 356.61 29.1999C353.51 29.1999 350.86 31.7699 350.86 36.2799V59.2899H338.92V18.5899H338.9Z" fill="black"/>
<path d="M429.59 55.3097C428.62 56.1097 427.47 56.8997 426.23 57.5197C424.11 58.6697 421.19 59.7297 417.65 59.7297C408.8 59.7297 403.94 54.9497 403.94 48.2297C403.94 40.1797 409.69 34.5197 428.27 34.5197C428.27 30.5397 426.06 28.3297 422.96 28.3297C420.75 28.3297 419.42 29.3897 418.62 30.3597C418.18 30.9797 417.82 31.5997 417.65 32.3097L405.71 31.4297C407.12 23.3797 412.7 17.7197 423.41 17.7197C433.14 17.7197 440.22 24.7997 440.22 34.5297V59.2997H431.37L429.59 55.3097ZM428.27 41.5997C418.01 41.5997 415.88 43.8097 415.88 46.9097C415.88 49.1197 417.65 50.8897 420.75 50.8897C425.26 50.8897 428.27 47.8797 428.27 43.3697V41.5997Z" fill="black"/>
<path d="M450.83 29.6499H444.64V19.4799H447.74C451.01 19.4799 452.61 17.8899 452.61 14.6099V8.85986H462.78V18.5899H471.19V29.6499H462.78V42.9199C462.78 46.4599 464.99 48.6699 468.09 48.6699C469.06 48.6699 469.68 48.5799 470.3 48.4899L471.18 48.2299V58.8499C470.74 59.0299 470.21 59.1999 469.59 59.2899C468.44 59.5599 467.02 59.7299 465.43 59.7299C456.14 59.7299 450.83 54.5099 450.83 44.6899V29.6499Z" fill="black"/>
<path d="M482.68 29.6499H476.49V19.4799H479.59C482.86 19.4799 484.46 17.8899 484.46 14.6099V8.85986H494.63V18.5899H503.04V29.6499H494.63V42.9199C494.63 46.4599 496.84 48.6699 499.94 48.6699C500.91 48.6699 501.53 48.5799 502.15 48.4899L503.03 48.2299V58.8499C502.59 59.0299 502.06 59.1999 501.44 59.2899C500.29 59.5599 498.87 59.7299 497.28 59.7299C487.99 59.7299 482.68 54.5099 482.68 44.6899V29.6499Z" fill="black"/>
<path d="M547.72 47.35C545.6 53.99 539.23 60.18 528.7 60.18C517.73 60.18 508.35 50.89 508.35 38.95C508.35 27 517.64 17.71 529.14 17.71C540.2 17.71 549.05 26.12 549.05 38.95C549.05 39.92 548.87 40.81 548.79 41.6L548.61 42.93H520.73C521.7 46.03 524.62 49.12 529.14 49.12C531.35 49.12 532.94 48.5 533.92 47.79C534.54 47.44 534.98 46.99 535.33 46.46L547.72 47.35ZM537.54 35.4C536.57 31.86 533.65 28.76 529.13 28.76C524.62 28.76 521.7 31.86 520.72 35.4H537.54Z" fill="black"/>
<path d="M555.24 18.5896H564.09L565.86 23.0096C566.57 22.1296 567.45 21.3296 568.43 20.6196C570.11 19.2896 572.5 18.1396 575.6 18.1396C576.66 18.1396 577.55 18.3196 578.17 18.4096L579.14 18.5896V30.9796L577.9 30.5396C577.1 30.2696 576.04 30.0996 574.71 30.0996C570.2 30.0996 567.19 33.1996 567.19 38.5096V59.2996H555.25V18.5896H555.24Z" fill="black"/>
<path d="M45.4108 29.7128C45.4368 29.6132 45.4628 29.5092 45.4931 29.4096C45.4931 29.4009 45.4975 29.3966 45.4975 29.3879C47.4597 21.7557 45.4498 13.3134 39.4765 7.33576C30.4755 -1.66531 15.8866 -1.66531 6.88557 7.33576C-2.1155 16.3368 -2.1155 30.9257 6.88557 39.9267C12.8935 45.9347 21.3921 47.9315 29.0547 45.9217C29.1067 45.9087 29.1587 45.8957 29.2106 45.8827C33.7935 44.7002 38.8701 45.9 42.461 49.4909C45.2549 52.2848 46.602 55.971 46.5067 59.6312C46.4851 59.8868 46.4721 60.1423 46.4677 60.4022C46.4677 60.4065 46.4677 60.4152 46.4677 60.4239C46.3811 64.0711 47.7282 67.7486 50.5135 70.5338C55.915 75.9353 64.6691 75.9353 70.0663 70.5338C75.4678 65.1323 75.4678 56.3782 70.0663 50.981C67.2031 48.1178 63.3956 46.7707 59.6488 46.9439C59.5795 46.9483 59.5102 46.9526 59.4366 46.9569C55.6941 47.1259 51.8996 45.7787 49.0407 42.9199C45.4541 39.3333 44.2456 34.2827 45.4108 29.7128ZM65.0893 55.9407C67.7446 58.5959 67.7446 62.9059 65.0893 65.5611C62.434 68.2164 58.1241 68.2164 55.4688 65.5611C52.8135 62.9059 52.8135 58.5959 55.4688 55.9407C58.1241 53.2854 62.434 53.2854 65.0893 55.9407ZM32.7972 33.2517C27.4867 38.5623 18.8711 38.5623 13.5562 33.2517C8.24569 27.9412 8.24569 19.3256 13.5562 14.0108C18.8668 8.70022 27.4823 8.70022 32.7972 14.0108C38.1121 19.3213 38.1078 27.9412 32.7972 33.2517Z" fill="black"/>
</g>
<defs>
<clipPath id="clip0">
<rect width="580" height="75" fill="white" transform="translate(0.129883)"/>
</clipPath>
</defs>
</svg>
