<svg width="518" height="234" viewBox="0 0 518 234" fill="none" xmlns="http://www.w3.org/2000/svg">
<path d="M15.4991 48L15.8348 48.0035C23.6259 48.1686 30.0027 54.0825 30.8936 61.674L30.9284 62.0003L30.9901 62L30.9418 143.215C30.9379 143.217 30.9359 143.218 30.9349 143.219C30.9339 150.3 36.5891 156.057 43.627 156.212L43.9339 156.215L78.9991 156.215L78.9995 156.227C86.7027 156.685 92.8301 162.997 92.9965 170.775L92.9991 171.1L92.9965 171.425C92.8324 179.094 86.8741 185.337 79.324 185.95L78.9995 185.973L79 186H40C39.9936 186.019 39.9872 186.019 39.9808 186.019C18.1104 186.009 0.347843 168.448 0.023632 146.661L0.0191589 146L0.0581219 62L0.0716179 62.0003C0.815443 54.2527 7.26276 48.171 15.1652 48.0035L15.4991 48ZM223.326 84L251.091 141.041L276.872 84H309L266.031 176.468C263.33 182.281 257.501 186 251.091 186C244.661 186 238.796 182.329 235.985 176.547L191 84H223.326ZM425 48L425.317 48.0035C432.693 48.1674 438.662 54.0363 438.986 61.3721L438.997 61.6874L439 62V172L438.997 172.313C438.83 179.9 432.628 186 425 186C417.372 186 411.17 179.9 411.003 172.313L411 172V62L411.003 61.6874C411.167 54.2051 417.201 48.1697 424.683 48.0035L425 48ZM438 0C460.091 0 478 17.9086 478 40V172L477.997 172.313C477.83 179.9 471.628 186 464 186C456.372 186 450.17 179.9 450.003 172.313L450 172V41C450 33.9229 444.345 28.1666 437.307 28.0035L437 28H14L13.6874 27.9966C6.09975 27.8303 0 21.6275 0 14C0 6.47844 5.93149 0.342249 13.3721 0.0138302L13.6874 0.00342205L14 0H438ZM144.66 84.0013C172.76 83.8032 195.714 106.579 195.912 134.703C195.912 136.089 196.11 143.021 195.912 144.408L121.507 144.209C122.892 148.171 124.278 149.953 127.246 152.924C132.193 157.677 138.525 160.252 145.056 160.252C151.784 160.054 158.116 157.479 162.865 152.726L163.657 151.934L189.382 160.054C178.696 176.492 167.417 185.801 145.253 185.999C117.154 186.197 94.1992 163.421 94.0013 135.297C93.8034 107.174 116.56 84.1993 144.66 84.0013ZM351.66 84.0013C379.76 83.8032 402.714 106.579 402.912 134.703C402.912 136.089 403.11 143.021 402.912 144.408L328.507 144.209C329.892 148.171 331.278 149.953 334.246 152.924C339.193 157.677 345.525 160.252 352.056 160.252C358.784 160.054 365.116 157.479 369.865 152.726L370.657 151.934L396.382 160.054C385.696 176.492 374.417 185.801 352.253 185.999C324.154 186.197 301.199 163.421 301.001 135.297C300.803 107.174 323.56 84.1993 351.66 84.0013ZM145.4 110C138.6 110 132.2 112.633 127.4 117.494C125.2 119.924 123.2 122.759 122 126H169C167.8 122.759 165.8 119.924 163.4 117.291C158.6 112.633 152.2 110 145.4 110ZM351.4 110C344.6 110 338.2 112.633 333.4 117.494C331.2 119.924 329.2 122.759 328 126H375C373.8 122.759 371.8 119.924 369.4 117.291C364.6 112.633 358.2 110 351.4 110Z" fill="white"/>
<path fill-rule="evenodd" clip-rule="evenodd" d="M0 220C0 212.372 6.09975 206.17 13.6874 206.003L14 206H477C484.077 206 489.833 200.345 489.996 193.307L490 193V62L490.003 61.6874C490.167 54.2051 496.201 48.1697 503.683 48.0035L504 48L504.317 48.0035C511.693 48.1674 517.662 54.0363 517.986 61.3721L517.997 61.6874L518 62V194C518 216.091 500.091 234 478 234H14L13.6874 233.997C6.09975 233.83 0 227.628 0 220Z" fill="white"/>
</svg>
