<svg width="426" height="102" viewBox="0 0 426 102" fill="none" xmlns="http://www.w3.org/2000/svg">
<path d="M128.766 10.7961L117.672 0.298584V69.091H128.766V30.6745L158.053 59.8328V59.9333L169.147 71.3243V2.5321H158.053V43.0323L128.766 10.7961Z" fill="white"/>
<path d="M0.523438 2.979H11.6171V57.9234H38.242V69.0912H0.523438V2.979Z" fill="white"/>
<path fill-rule="evenodd" clip-rule="evenodd" d="M75.0732 68.6445C92.9635 68.6445 107.467 54.0447 107.467 36.0353C107.467 18.0256 92.9635 3.42585 75.0732 3.42585C57.1826 3.42585 42.6795 18.0256 42.6795 36.0353C42.6795 54.0447 57.1826 68.6445 75.0732 68.6445ZM75.0732 58.3704C87.327 58.3704 97.2603 48.3705 97.2603 36.0353C97.2603 23.6998 87.327 13.7 75.0732 13.7C62.8194 13.7 52.8857 23.6998 52.8857 36.0353C52.8857 48.3705 62.8194 58.3704 75.0732 58.3704Z" fill="white"/>
<path d="M181.572 2.979V69.0912L221.066 69.0907V57.9229H192.666V40.0555H216.629V28.888H192.666V14.1466H221.066V2.979H181.572Z" fill="white"/>
<path d="M272.984 2.979V14.1466H290.734V69.0912H301.827V14.1466H320.022V2.979H272.984Z" fill="white"/>
<path d="M243.259 18.8285C243.327 16.4672 243.922 15.2833 244.421 14.7243C244.856 14.2376 245.879 13.4763 248.587 13.4763C251.299 13.4763 253.704 14.7911 255.209 16.8436L264.134 10.2102C260.626 5.42743 254.967 2.30872 248.587 2.30872C243.693 2.30872 239.276 3.78096 236.17 7.2587C233.161 10.6294 232.159 15.0259 232.159 19.2835C232.159 21.7734 233.255 23.8626 234.176 25.2649C235.162 26.7664 236.445 28.2134 237.748 29.5396C239.805 31.6346 242.415 33.9225 244.934 36.1302C245.566 36.6842 246.193 37.2336 246.803 37.7734C249.997 40.5973 252.89 43.2763 254.977 45.7917C257.226 48.5014 257.674 50.0171 257.674 50.5528C257.674 54.0269 255.63 57.4296 252.98 58.6015C250.931 59.5083 246.22 59.9565 238.805 52.2512L230.838 60.0216C239.93 69.4698 249.419 72.3751 257.443 68.8257C264.867 65.5419 268.768 57.576 268.768 50.5528C268.768 45.8396 266.027 41.6874 263.491 38.6322C260.795 35.3821 257.309 32.1982 254.124 29.3825C253.474 28.8073 252.838 28.2497 252.22 27.7077L252.035 27.5452L252.033 27.543C249.559 25.3734 247.373 23.4557 245.637 21.6886C244.548 20.5789 243.837 19.726 243.429 19.1039C243.355 18.9914 243.299 18.8999 243.259 18.8285Z" fill="white"/>
<path fill-rule="evenodd" clip-rule="evenodd" d="M314.253 68.4208L342.875 0.298584L372.828 68.4208H360.623L354.633 54.5731H332.445L326.455 68.4208H314.253ZM342.875 27.1007V26.8774L351.972 45.1923H335.109L342.875 27.1007Z" fill="white"/>
<path fill-rule="evenodd" clip-rule="evenodd" d="M378.151 2.979H401.125C412.677 2.979 421.639 12.8087 421.639 24.4207C421.639 33.8696 415.704 42.1385 407.27 44.8912L425.855 68.6444H412.319L394.897 45.8625H389.246V69.0912H378.151V2.979ZM389.246 36.0351V12.8064H401.125C406.84 12.8064 411.878 17.7764 411.878 24.4207C411.878 31.0651 406.84 36.0351 401.125 36.0351H389.246Z" fill="white"/>
<path d="M128.328 77.6096H137.647V100.615H138.978V77.6096H148.296V76.2694H128.328V77.6096Z" fill="white"/>
<path fill-rule="evenodd" clip-rule="evenodd" d="M152.068 76.046H164.306L164.341 76.0498L164.271 76.716C164.341 76.0498 164.341 76.0498 164.341 76.0498L164.345 76.0501L164.351 76.0509L164.37 76.053C164.385 76.055 164.407 76.0576 164.434 76.0614C164.488 76.0693 164.564 76.0809 164.659 76.098C164.849 76.132 165.115 76.1878 165.433 76.2761C166.066 76.4519 166.915 76.7601 167.766 77.2912C169.496 78.3711 171.204 80.3615 171.149 83.8739C171.094 87.3751 169.391 89.3062 167.679 90.3303C166.838 90.8332 166.006 91.1127 165.387 91.2667C165.077 91.344 164.817 91.3907 164.631 91.4183C164.538 91.432 164.464 91.441 164.411 91.4468C164.385 91.4497 164.363 91.4517 164.348 91.4532L164.329 91.4546L164.323 91.4552L164.32 91.4555C164.32 91.4555 164.319 91.4555 164.271 90.7873L164.32 91.4555L164.295 91.4573H162.55L170.954 99.9177L170.013 100.865L160.667 91.4573H153.399V100.391H152.068V76.046ZM153.399 90.1171H164.242C164.249 90.1165 164.258 90.1156 164.268 90.1144C164.305 90.1104 164.362 90.1037 164.437 90.0927C164.586 90.0703 164.804 90.0316 165.068 89.9657C165.598 89.8338 166.3 89.5964 166.999 89.1781C168.368 88.3597 169.771 86.8289 169.818 83.8527C169.864 80.8879 168.466 79.3048 167.065 78.4304C166.35 77.9844 165.627 77.72 165.079 77.5678C164.806 77.4922 164.58 77.4449 164.425 77.4173C164.348 77.4034 164.288 77.3943 164.25 77.3888C164.243 77.3877 164.231 77.3862 164.231 77.3862H153.399V90.1171Z" fill="white"/>
<path fill-rule="evenodd" clip-rule="evenodd" d="M184.462 74.2416L196.38 99.884L195.182 100.468L192.038 94.1377H176.684L173.749 100.452L172.543 99.884L184.462 74.2416ZM177.307 92.7975H191.616L184.462 77.4037L177.307 92.7975Z" fill="white"/>
<path fill-rule="evenodd" clip-rule="evenodd" d="M196.887 88.1011C196.951 81.0442 202.461 75.0486 209.544 75.1529C213.024 75.2041 215.089 76.7543 217.481 78.5492C217.906 78.8679 218.341 79.1942 218.796 79.5213L218.022 80.6119C217.527 80.2557 217.067 79.912 216.629 79.5858C214.247 77.8072 212.546 76.5373 209.525 76.4928C203.252 76.4005 198.276 81.7249 198.218 88.1133C198.161 94.545 203.183 99.8909 209.54 99.945C211.241 99.9592 213.331 99.0862 215.067 98.1394C215.919 97.6742 216.658 97.2076 217.185 96.857C217.447 96.6821 217.656 96.5365 217.798 96.4351C217.869 96.3846 217.923 96.3454 217.96 96.3189C217.978 96.3056 217.991 96.2957 218 96.2893L218.009 96.282C218.009 96.282 218.012 96.2806 218.409 96.818C218.807 97.3555 218.806 97.3555 218.806 97.3555L218.801 97.3593L218.789 97.3686C218.778 97.3767 218.762 97.3883 218.742 97.4032C218.701 97.4328 218.642 97.4755 218.566 97.5295C218.414 97.6376 218.194 97.791 217.919 97.9743C217.37 98.3407 216.596 98.8294 215.701 99.3177C213.941 100.277 211.593 101.303 209.529 101.285C202.404 101.224 196.824 95.2402 196.887 88.1011Z" fill="white"/>
<path fill-rule="evenodd" clip-rule="evenodd" d="M225.065 89.8075V100.839H223.733V75.8231H225.065V86.8543L238.161 75.319L239.037 76.3274L225.614 88.3308L239.037 100.334L238.161 101.343L225.065 89.8075Z" fill="white"/>
<path fill-rule="evenodd" clip-rule="evenodd" d="M243.258 101.061V75.8226H244.589V101.061H243.258Z" fill="white"/>
<path fill-rule="evenodd" clip-rule="evenodd" d="M250.802 75.258L268.996 97.5931V76.0151H270.327V101.341L252.133 79.0058V101.031H250.802V75.258Z" fill="white"/>
<path fill-rule="evenodd" clip-rule="evenodd" d="M274.321 87.8543C274.629 80.853 280.12 74.6049 287.24 75.1549C290.371 75.3969 292.289 76.9256 294.322 78.5479C294.732 78.8748 295.144 79.2057 295.574 79.5305L294.778 80.6028C294.293 80.2368 293.843 79.8803 293.413 79.5398C291.4 77.9419 289.834 76.6993 287.138 76.491C280.94 76.0125 275.934 81.4819 275.651 87.9136C275.356 94.6195 280.636 100.741 287.154 100.393C288.705 100.309 290.583 99.4356 292.138 98.5164C292.902 98.0652 293.561 97.6186 294.029 97.2851C294.226 97.1445 294.389 97.0242 294.511 96.9327V88.5539H287.189V87.214H295.842V97.5893L295.589 97.7906L295.176 97.2648C295.589 97.7906 295.589 97.7906 295.589 97.7906L295.574 97.8031C295.566 97.8081 295.56 97.8142 295.548 97.8217C295.542 97.8261 295.537 97.8307 295.531 97.8357C295.496 97.8638 295.444 97.9045 295.374 97.9559C295.24 98.0585 295.043 98.204 294.796 98.3792C294.308 98.7284 293.616 99.1968 292.812 99.6718C291.234 100.605 289.118 101.629 287.224 101.731C279.784 102.129 273.998 95.2055 274.321 87.8543Z" fill="white"/>
<path fill-rule="evenodd" clip-rule="evenodd" d="M122.337 88.9693H1.41644V87.1826H122.337V88.9693Z" fill="white"/>
<path fill-rule="evenodd" clip-rule="evenodd" d="M425.861 89.1928H304.938V87.406H425.861V89.1928Z" fill="white"/>
</svg>
