<svg width="426" height="102" viewBox="0 0 426 102" fill="none" xmlns="http://www.w3.org/2000/svg">
<path d="M128.896 10.7964L117.802 0.298828V69.0913H128.896V30.6747L158.183 59.8331V59.9336L169.277 71.3245V2.53235H158.183V43.0325L128.896 10.7964Z" fill="black"/>
<path d="M0.65332 2.97924H11.747V57.9236H38.3719V69.0914H0.65332V2.97924Z" fill="black"/>
<path fill-rule="evenodd" clip-rule="evenodd" d="M75.203 68.6448C93.0933 68.6448 107.596 54.045 107.596 36.0356C107.596 18.0258 93.0933 3.4261 75.203 3.4261C57.3125 3.4261 42.8094 18.0258 42.8094 36.0356C42.8094 54.045 57.3125 68.6448 75.203 68.6448ZM75.203 58.3706C87.4569 58.3706 97.3902 48.3707 97.3902 36.0356C97.3902 23.7001 87.4569 13.7003 75.203 13.7003C62.9492 13.7003 53.0156 23.7001 53.0156 36.0356C53.0156 48.3707 62.9492 58.3706 75.203 58.3706Z" fill="black"/>
<path d="M181.702 2.97924V69.0914L221.196 69.091V57.9231H192.796V40.0558H216.758V28.8883H192.796V14.1468H221.196V2.97924H181.702Z" fill="black"/>
<path d="M273.114 2.97924V14.1468H290.864V69.0914H301.957V14.1468H320.152V2.97924H273.114Z" fill="black"/>
<path d="M243.389 18.8288C243.457 16.4675 244.052 15.2836 244.551 14.7246C244.985 14.2378 246.009 13.4765 248.717 13.4765C251.429 13.4765 253.833 14.7914 255.339 16.8439L264.264 10.2104C260.756 5.42767 255.097 2.30896 248.717 2.30896C243.823 2.30896 239.406 3.7812 236.3 7.25894C233.291 10.6296 232.289 15.0261 232.289 19.2837C232.289 21.7736 233.384 23.8629 234.306 25.2652C235.292 26.7666 236.575 28.2136 237.878 29.5399C239.935 31.6349 242.545 33.9228 245.064 36.1305C245.696 36.6845 246.322 37.2339 246.933 37.7737C250.127 40.5976 253.02 43.2765 255.107 45.7919C257.356 48.5016 257.804 50.0173 257.804 50.553C257.804 54.0272 255.76 57.4298 253.11 58.6018C251.061 59.5085 246.35 59.9568 238.935 52.2515L230.968 60.0219C240.06 69.4701 249.549 72.3753 257.573 68.826C264.997 65.5422 268.898 57.5762 268.898 50.553C268.898 45.8398 266.157 41.6876 263.621 38.6325C260.925 35.3824 257.439 32.1985 254.254 29.3827C253.603 28.8076 252.968 28.25 252.35 27.7079L252.165 27.5454L252.162 27.5432C249.689 25.3736 247.503 23.456 245.767 21.6888C244.677 20.5791 243.967 19.7263 243.558 19.1041C243.485 18.9917 243.429 18.9002 243.389 18.8288Z" fill="black"/>
<path fill-rule="evenodd" clip-rule="evenodd" d="M314.382 68.421L343.005 0.298828L372.958 68.421H360.753L354.763 54.5734H332.575L326.585 68.421H314.382ZM343.005 27.1009V26.8777L352.101 45.1926H335.239L343.005 27.1009Z" fill="black"/>
<path fill-rule="evenodd" clip-rule="evenodd" d="M378.28 2.97924H401.255C412.807 2.97924 421.769 12.809 421.769 24.421C421.769 33.8698 415.834 42.1388 407.4 44.8915L425.985 68.6446H412.449L395.026 45.8627H389.376V69.0914H378.28V2.97924ZM389.376 36.0354V12.8067H401.255C406.97 12.8067 412.008 17.7767 412.008 24.421C412.008 31.0654 406.97 36.0354 401.255 36.0354H389.376Z" fill="black"/>
<path d="M128.458 77.6099H137.776V100.615H139.108V77.6099H148.426V76.2697H128.458V77.6099Z" fill="black"/>
<path fill-rule="evenodd" clip-rule="evenodd" d="M152.198 76.0463H164.436L164.471 76.05L164.401 76.7162C164.471 76.05 164.471 76.05 164.471 76.05L164.475 76.0503L164.481 76.0512L164.5 76.0532C164.515 76.0553 164.537 76.0579 164.564 76.0617C164.618 76.0695 164.694 76.0811 164.789 76.0983C164.979 76.1323 165.245 76.188 165.563 76.2764C166.196 76.4521 167.045 76.7604 167.896 77.2915C169.626 78.3713 171.334 80.3617 171.279 83.8742C171.224 87.3753 169.521 89.3064 167.809 90.3306C166.968 90.8335 166.136 91.1129 165.517 91.2669C165.207 91.3442 164.946 91.391 164.761 91.4186C164.668 91.4322 164.594 91.4412 164.541 91.447C164.514 91.4499 164.493 91.452 164.478 91.4534L164.459 91.4549L164.453 91.4555L164.45 91.4558C164.45 91.4558 164.449 91.4558 164.401 90.7876L164.45 91.4558L164.425 91.4575H162.68L171.084 99.9179L170.143 100.865L160.797 91.4575H153.529V100.391H152.198V76.0463ZM153.529 90.1173H164.372C164.379 90.1167 164.388 90.1158 164.398 90.1147C164.435 90.1106 164.492 90.1039 164.566 90.0929C164.716 90.0705 164.934 90.0319 165.197 89.9659C165.728 89.834 166.43 89.5967 167.129 89.1783C168.498 88.3599 169.901 86.8291 169.948 83.853C169.994 80.8882 168.596 79.3051 167.195 78.4306C166.48 77.9846 165.757 77.7203 165.209 77.568C164.936 77.4925 164.71 77.4451 164.555 77.4175C164.478 77.4036 164.418 77.3946 164.38 77.3891C164.373 77.3879 164.36 77.3865 164.36 77.3865H153.529V90.1173Z" fill="black"/>
<path fill-rule="evenodd" clip-rule="evenodd" d="M184.592 74.2418L196.51 99.8842L195.312 100.468L192.168 94.1379H176.814L173.879 100.452L172.673 99.8842L184.592 74.2418ZM177.436 92.7977H191.746L184.592 77.4039L177.436 92.7977Z" fill="black"/>
<path fill-rule="evenodd" clip-rule="evenodd" d="M197.017 88.1013C197.08 81.0445 202.591 75.0489 209.674 75.1532C213.154 75.2043 215.219 76.7546 217.611 78.5494C218.036 78.8681 218.471 79.1944 218.926 79.5215L218.152 80.6122C217.657 80.256 217.196 79.9123 216.759 79.586C214.377 77.8074 212.676 76.5375 209.654 76.4931C203.381 76.4007 198.406 81.7252 198.348 88.1135C198.291 94.5452 203.313 99.8912 209.67 99.9452C211.371 99.9595 213.461 99.0864 215.197 98.1396C216.049 97.6745 216.788 97.2079 217.314 96.8572C217.577 96.6823 217.786 96.5368 217.928 96.4354C217.999 96.3848 218.053 96.3456 218.09 96.3192C218.108 96.3058 218.121 96.2959 218.13 96.2895L218.139 96.2823C218.139 96.2823 218.142 96.2808 218.539 96.8183C218.936 97.3558 218.936 97.3558 218.936 97.3558L218.931 97.3595L218.918 97.3688C218.908 97.377 218.892 97.3886 218.872 97.4034C218.831 97.433 218.772 97.4757 218.696 97.5298C218.544 97.6379 218.324 97.7913 218.049 97.9746C217.5 98.3409 216.726 98.8296 215.831 99.318C214.071 100.278 211.723 101.303 209.659 101.285C202.534 101.225 196.953 95.2404 197.017 88.1013Z" fill="black"/>
<path fill-rule="evenodd" clip-rule="evenodd" d="M225.195 89.8078V100.839H223.863V75.8233H225.195V86.8546L238.291 75.3192L239.167 76.3277L225.744 88.331L239.167 100.334L238.291 101.343L225.195 89.8078Z" fill="black"/>
<path fill-rule="evenodd" clip-rule="evenodd" d="M243.388 101.062V75.8228H244.719V101.062H243.388Z" fill="black"/>
<path fill-rule="evenodd" clip-rule="evenodd" d="M250.932 75.2582L269.126 97.5933V76.0153H270.457V101.341L252.263 79.006V101.031H250.932V75.2582Z" fill="black"/>
<path fill-rule="evenodd" clip-rule="evenodd" d="M274.451 87.8546C274.759 80.8532 280.249 74.6052 287.37 75.1551C290.501 75.3971 292.418 76.9259 294.452 78.5482C294.862 78.875 295.274 79.2059 295.704 79.5307L294.908 80.6031C294.423 80.237 293.973 79.8805 293.543 79.54C291.529 77.9421 289.964 76.6996 287.268 76.4912C281.07 76.0128 276.064 81.4822 275.781 87.9139C275.486 94.6198 280.766 100.742 287.284 100.393C288.835 100.31 290.713 99.4358 292.267 98.5166C293.031 98.0654 293.691 97.6189 294.159 97.2854C294.356 97.1447 294.519 97.0245 294.641 96.933V88.5542H287.319V87.2143H295.972V97.5895L295.719 97.7909L295.306 97.265C295.719 97.7909 295.719 97.7909 295.719 97.7909L295.704 97.8034C295.696 97.8083 295.69 97.8144 295.678 97.822C295.672 97.8263 295.667 97.831 295.661 97.8359C295.626 97.8641 295.574 97.9048 295.504 97.9562C295.37 98.0587 295.173 98.2043 294.926 98.3795C294.438 98.7287 293.746 99.197 292.941 99.672C291.364 100.605 289.248 101.63 287.354 101.731C279.914 102.129 274.128 95.2058 274.451 87.8546Z" fill="black"/>
<path fill-rule="evenodd" clip-rule="evenodd" d="M122.467 88.9696H1.54632V87.1829H122.467V88.9696Z" fill="black"/>
<path fill-rule="evenodd" clip-rule="evenodd" d="M425.991 89.193H305.068V87.4063H425.991V89.193Z" fill="black"/>
</svg>
