<svg width="1501" height="276" viewBox="0 0 1501 276" fill="none" xmlns="http://www.w3.org/2000/svg">
<path d="M44.4885 199.644C44.4885 213.844 44.3885 228.144 44.2885 242.344C44.2885 248.244 45.1885 254.344 43.5885 259.844C41.9885 265.544 37.3885 270.444 31.2885 272.044C23.3885 274.144 14.9885 275.544 8.28848 268.744C1.68848 262.044 1.98848 253.944 2.78848 245.144C3.48848 237.344 1.18848 229.344 0.188477 221.444V216.444C0.788477 212.944 1.88848 209.444 1.98848 205.844C2.48848 194.444 2.98848 183.044 2.98848 171.544C2.98848 161.944 1.18847 152.144 2.38847 142.744C7.18847 103.344 0.988473 63.9441 3.88847 24.5441C3.98847 22.8441 4.08848 21.2441 4.18848 19.5441C5.18848 5.94413 13.9885 -1.05588 27.5885 0.944123C32.6885 1.64412 35.7885 5.14413 37.0885 9.54413C39.5885 18.2441 42.7885 27.1441 42.9885 36.0441C43.6885 60.2441 42.9885 84.4441 42.7885 108.744C42.6885 120.544 42.2885 132.244 42.1885 144.044C42.1885 146.644 43.4885 149.144 43.6885 151.744C43.8885 153.644 43.1885 155.644 42.8885 157.544C42.6885 159.044 42.3885 160.644 42.6885 162.144C42.7885 162.944 44.5885 163.544 44.5885 164.244C44.6885 171.644 44.6885 178.944 44.5885 186.344C44.5885 189.644 44.1885 193.044 44.1885 196.344C43.9885 197.444 44.4885 198.544 44.4885 199.644Z" fill="white"/>
<path d="M149.189 86.3443C149.289 102.344 150.489 118.444 148.889 134.244C144.989 174.344 149.689 214.344 147.889 254.444C147.789 256.144 147.589 257.744 147.489 259.444C147.189 267.144 143.989 272.744 136.189 275.144H125.189C113.689 272.644 109.589 264.044 109.389 253.844C109.089 239.244 110.389 224.744 110.489 210.144C110.589 190.444 110.089 170.644 109.889 150.944C109.789 145.944 109.789 140.944 109.589 135.944C109.489 132.444 109.589 128.844 108.689 125.644C107.789 122.444 105.489 119.644 109.489 116.944C109.889 116.644 109.089 114.344 108.689 113.044C107.989 110.544 106.389 107.844 106.689 105.444C107.989 95.9443 109.189 86.6443 106.989 76.9443C105.889 71.9443 107.789 66.2443 108.089 60.8443C108.189 58.5443 107.589 56.2443 107.589 53.9443C107.389 46.6443 105.889 38.9444 107.589 32.1444C108.889 26.9444 107.489 22.8444 107.089 18.2444C106.689 12.5444 114.889 3.04435 121.989 2.44435C127.689 1.94435 134.089 2.54436 139.389 4.64436C147.689 7.84436 151.189 17.6443 149.289 26.8443C148.389 31.1443 148.389 35.5443 148.289 39.9443C148.089 47.2443 147.989 54.4444 148.189 61.7444C148.389 69.9444 149.189 78.1443 149.189 86.3443Z" fill="white"/>
<path d="M1500.19 217.344V224.344C1494.69 235.744 1487.29 239.744 1473.79 237.244C1467.59 236.044 1461.79 233.144 1454.99 230.644C1457.09 227.544 1458.29 225.844 1459.69 223.844C1461.39 224.844 1462.99 225.644 1464.49 226.544C1470.29 229.844 1476.49 231.444 1483.19 230.344C1487.59 229.644 1491.19 227.444 1491.79 222.644C1492.39 217.844 1489.19 215.344 1485.29 213.844C1479.99 211.844 1474.49 210.444 1469.29 208.344C1460.59 204.844 1457.29 199.544 1458.59 192.144C1459.99 184.444 1466.59 179.144 1474.89 178.644C1483.29 178.144 1491.09 179.544 1498.49 184.744C1497.29 186.744 1496.09 188.644 1495.39 189.944C1489.59 188.344 1484.49 186.644 1479.19 185.744C1476.59 185.344 1473.29 186.044 1471.09 187.444C1469.09 188.744 1466.99 191.644 1466.89 193.944C1466.79 195.944 1468.99 198.944 1470.89 199.944C1475.79 202.344 1481.09 203.944 1486.29 205.744C1492.49 207.744 1497.79 210.844 1500.19 217.344Z" fill="white"/>
<path d="M570.789 41.7443C555.289 46.5443 539.188 46.2443 523.288 46.5443C516.088 46.6443 508.988 46.5443 501.788 46.5443V45.9443C485.288 45.2443 468.889 44.3443 452.389 44.0443C446.389 43.9443 440.289 45.4443 434.289 46.2443C433.689 46.3443 432.789 46.8443 432.389 46.5443C425.389 41.1443 417.889 50.4443 410.789 45.8443C410.289 45.5443 409.288 46.2443 408.588 46.3443C406.188 46.6443 403.389 47.6443 401.289 46.8443C397.389 45.4443 393.988 43.6443 390.088 46.4443C389.288 46.9443 387.788 46.9443 386.688 46.6443C373.088 43.0443 359.589 46.1443 345.989 46.4443C343.689 46.4443 340.089 47.5443 339.289 46.5443C337.589 44.2443 335.988 45.3443 334.388 45.5443C324.888 46.7443 315.988 40.1443 314.388 30.6443C311.088 11.3443 323.289 0.844321 342.489 4.94432C349.189 6.34432 356.789 3.84433 363.989 3.14433C365.789 2.94433 367.489 2.44433 369.289 2.54433C375.389 2.84433 381.488 3.74431 387.588 3.84431C407.188 4.04431 426.989 2.24431 446.389 4.34431C484.289 8.44431 522.188 2.94434 560.088 5.74434C564.688 6.14434 569.388 5.44434 573.988 5.74434C579.788 6.14434 583.689 9.64434 584.789 15.2443C588.189 31.9443 584.489 37.5443 570.789 41.7443Z" fill="white"/>
<path d="M570.588 266.044C558.288 267.244 545.688 266.044 533.288 266.144C521.488 266.144 509.688 266.244 497.988 266.544C491.288 266.744 484.688 267.444 478.088 267.844C478.088 268.144 478.088 268.344 477.988 268.644C470.188 268.044 462.488 266.944 454.688 266.844C448.988 266.744 443.388 267.944 437.688 268.544C436.288 268.644 434.188 269.044 433.588 268.344C430.788 264.944 429.188 266.644 426.288 268.544C424.188 269.944 420.588 269.044 417.688 269.044C415.188 269.044 412.588 268.944 410.088 269.044C408.588 269.044 407.088 269.444 405.588 269.344C395.788 268.744 386.088 268.044 376.288 267.344C375.988 267.344 375.588 267.244 375.288 267.244C362.388 267.544 349.388 267.044 336.588 268.344C327.988 269.244 323.888 264.244 319.788 259.044C315.388 253.444 316.188 239.944 320.188 234.444C324.888 228.044 334.488 225.844 343.088 226.644C350.988 227.444 359.088 225.944 367.088 225.644C369.288 225.544 371.488 226.144 373.788 226.344C374.788 226.444 375.688 226.844 376.688 226.844C396.788 226.944 416.888 227.144 436.888 227.244C459.788 227.344 482.788 227.244 505.688 227.344C527.888 227.444 550.188 227.744 572.488 227.744C582.288 227.744 587.388 231.644 588.888 241.344C590.988 255.844 585.188 264.644 570.588 266.044Z" fill="white"/>
<path d="M259.289 246.144C259.289 246.444 259.389 246.944 259.289 247.144C256.789 249.044 258.089 251.544 258.189 253.844C258.989 263.444 252.089 271.544 242.389 273.144C221.089 276.544 215.489 261.444 217.189 246.244C217.989 238.844 216.789 231.244 216.089 223.744C215.889 221.144 213.389 218.744 216.889 216.444C217.589 216.044 217.189 213.944 217.189 212.644C217.189 202.844 217.189 193.044 217.089 183.244C217.089 168.244 216.789 153.344 216.989 138.344C217.289 100.244 217.789 62.0442 218.189 23.9442C218.189 19.6442 218.489 15.3442 219.289 11.1442C220.289 5.34425 223.989 1.44426 229.889 0.744256C246.589 -1.45574 253.689 3.84426 256.189 17.7443C257.289 23.5443 257.289 29.5442 257.689 34.0442C257.089 42.2442 257.089 48.8442 256.089 55.4442C253.589 73.2442 257.589 90.8442 257.589 108.544C257.589 118.144 256.789 127.644 256.889 137.244C256.889 142.244 258.089 147.244 258.489 152.244C258.589 154.044 257.889 155.844 257.689 157.644C257.489 159.144 256.589 161.644 257.189 162.044C260.989 164.944 259.289 168.644 259.189 172.144C259.189 174.944 259.189 177.844 259.189 180.644C259.189 183.144 259.189 185.644 259.189 188.044C259.089 195.844 258.889 203.544 258.989 211.344C258.989 222.844 259.089 234.544 259.289 246.144Z" fill="white"/>
<path d="M587.089 145.444C583.989 153.244 578.589 156.644 569.989 156.544C556.089 156.344 542.089 155.744 528.189 155.744C517.289 155.744 506.389 156.444 495.489 156.644C483.089 156.844 470.689 157.744 458.389 156.544C417.489 152.544 376.689 157.244 335.889 155.544C332.589 155.444 329.289 154.844 326.089 153.944C320.989 152.544 317.889 148.944 317.189 143.644C315.189 126.844 320.289 119.044 337.089 116.844C343.289 116.044 349.689 116.044 355.989 115.644C355.989 115.844 355.989 115.944 355.989 116.144C364.489 116.744 372.889 117.844 381.389 117.944C399.989 118.044 418.589 117.744 437.289 117.544C443.689 117.444 450.089 117.344 456.389 117.044C459.889 116.844 463.389 116.744 466.689 115.744C469.589 114.744 471.789 113.744 474.189 116.644C474.689 117.244 476.989 116.444 478.389 115.944C479.889 115.444 481.289 113.844 482.589 114.044C487.989 114.644 493.289 116.244 498.689 116.544C502.989 116.844 507.389 115.744 511.689 115.244C513.689 115.044 515.789 114.944 517.789 114.844C523.589 114.744 529.089 116.444 535.189 115.444C543.289 114.144 551.989 113.844 559.989 115.144C563.989 115.844 567.289 115.244 570.989 115.044C573.889 114.844 576.989 116.644 579.789 118.144C581.589 119.044 583.189 120.644 584.589 122.244C590.689 129.244 590.389 137.244 587.089 145.444Z" fill="white"/>
<path d="M860.188 80.2444V70.8444H852.488C852.288 73.6444 852.188 76.2444 851.988 79.0444C838.788 67.2444 823.888 66.1444 813.388 75.9444C803.388 85.3444 802.188 103.344 810.988 114.144C816.288 120.644 823.288 123.544 831.588 123.544C839.788 123.544 846.388 119.844 852.088 113.144C852.388 122.244 853.488 130.944 844.988 135.944C833.988 142.344 823.288 140.144 812.688 133.244C811.588 135.344 810.488 137.344 809.488 139.344C818.688 146.244 828.788 147.844 839.188 146.144C852.588 143.944 860.688 133.044 860.188 121.144C859.688 107.444 860.188 93.8444 860.188 80.2444ZM832.788 116.044C821.488 115.944 813.888 107.844 813.888 96.1444C813.888 84.4444 821.788 76.4444 833.088 76.4444C844.388 76.4444 852.288 84.5444 852.288 96.1444C852.288 108.044 844.288 116.144 832.788 116.044Z" fill="white"/>
<path d="M1325.19 181.044C1325.19 180.644 1324.79 180.144 1324.69 179.844H1317.69C1317.59 181.344 1317.59 182.444 1317.49 183.644C1317.39 184.944 1317.29 186.144 1317.19 188.444C1306.79 174.944 1287.69 176.744 1279.29 184.244C1269.29 193.144 1267.49 211.244 1275.79 222.444C1279.79 227.744 1285.09 231.044 1291.59 232.044C1301.59 233.644 1310.29 230.944 1316.99 222.344C1318.49 234.544 1316.79 241.144 1310.59 244.744C1299.49 251.244 1288.59 249.144 1278.09 242.144C1276.99 244.244 1275.99 246.044 1274.99 247.744C1284.19 256.644 1303.39 258.244 1314.49 251.244C1320.69 247.244 1325.09 241.844 1325.29 234.244C1325.39 216.544 1325.29 198.844 1325.19 181.044ZM1297.99 225.244C1286.69 225.144 1278.89 216.544 1278.99 204.644C1279.19 193.144 1287.29 185.144 1298.59 185.344C1309.79 185.544 1317.39 193.844 1317.29 205.544C1317.29 217.144 1309.19 225.344 1297.99 225.244Z" fill="white"/>
<path d="M755.188 54.3441C753.688 50.7441 750.688 51.9441 748.388 52.1441C746.588 52.2441 744.088 53.3441 743.388 54.7441C739.888 61.8441 736.888 69.2441 733.688 76.5441C726.288 93.3441 718.888 110.144 711.388 127.444C720.288 128.044 720.288 128.044 723.388 120.944C724.388 118.644 725.588 116.444 726.388 114.144C727.288 111.344 729.088 110.444 731.988 110.544C741.088 110.744 750.388 111.344 759.388 110.444C768.188 109.544 772.588 112.644 775.188 120.844C777.688 128.644 778.388 128.444 786.588 127.444C786.588 127.244 786.688 127.044 786.688 126.944C776.188 102.544 765.688 78.4441 755.188 54.3441ZM731.688 101.944C737.488 88.7441 743.088 76.0441 749.288 61.9441C755.388 75.9441 760.988 88.6441 766.788 101.944H731.688Z" fill="white"/>
<path d="M845.089 205.644C843.789 183.044 822.289 170.744 803.989 182.244C793.389 188.944 789.189 199.144 790.389 211.244C791.589 223.044 797.789 231.944 809.189 236.044C820.489 240.144 831.089 237.644 840.589 230.444C841.089 230.144 841.189 229.444 841.589 228.744C840.089 227.144 838.789 225.744 837.189 224.144C828.289 230.344 819.289 233.144 809.589 228.444C802.889 225.144 799.489 219.244 798.689 211.144H845.089C845.089 208.944 845.189 207.244 845.089 205.644ZM799.889 203.544C798.389 195.844 806.389 186.844 815.789 185.544C827.289 183.944 835.889 191.044 836.989 203.544H799.889Z" fill="white"/>
<path d="M1429.09 224.044C1420.19 230.244 1411.39 233.044 1401.69 228.644C1394.69 225.444 1391.29 219.344 1390.29 211.244H1437.09C1436.69 207.444 1436.49 204.244 1435.99 201.044C1433.89 189.044 1425.49 179.944 1415.49 178.744C1401.39 176.944 1389.69 182.644 1384.89 194.844C1382.79 200.144 1382.39 206.444 1382.39 212.344C1382.49 222.744 1391.09 233.044 1401.69 236.644C1412.09 240.244 1426.39 236.944 1433.19 229.344C1432.89 228.844 1432.49 228.344 1432.09 227.844C1431.19 226.444 1430.19 225.344 1429.09 224.044ZM1410.39 185.344C1420.69 185.344 1427.79 192.344 1428.39 203.344H1390.79C1391.69 192.944 1399.99 185.344 1410.39 185.344Z" fill="white"/>
<path d="M1372.09 96.1443C1371.29 82.6443 1362.89 71.9443 1351.69 69.8443C1338.29 67.4443 1326.79 72.7443 1320.69 84.3443C1314.39 96.4443 1316.79 111.744 1326.49 121.044C1337.69 131.744 1359.59 131.244 1368.69 119.844C1367.29 118.344 1365.79 116.844 1364.29 115.244C1354.89 121.344 1345.39 124.744 1335.19 118.644C1329.29 115.144 1326.39 109.544 1325.79 102.044H1372.09C1372.09 99.6443 1372.19 97.9443 1372.09 96.1443ZM1326.59 94.6443C1326.09 85.1443 1334.69 76.8443 1345.09 76.5443C1355.99 76.2443 1363.69 83.5443 1363.99 94.6443H1326.59Z" fill="white"/>
<path d="M1110.19 178.444C1095.39 177.044 1080.19 191.144 1080.19 207.844C1080.19 224.244 1093.69 237.944 1109.79 237.944C1125.59 237.944 1138.99 224.544 1138.99 208.744C1139.19 191.644 1126.69 178.544 1110.19 178.444ZM1110.09 230.644C1098.49 230.744 1089.09 220.744 1088.99 208.244C1088.89 195.644 1098.19 185.444 1109.79 185.444C1121.29 185.444 1130.79 195.644 1130.69 208.144C1130.59 220.344 1121.39 230.544 1110.09 230.644Z" fill="white"/>
<path d="M1221.49 178.444C1204.89 178.444 1192.19 191.144 1192.19 207.644C1192.09 224.444 1204.89 237.844 1221.29 237.944C1237.39 238.044 1250.89 224.444 1250.79 207.944C1250.69 191.444 1237.79 178.444 1221.49 178.444ZM1221.29 230.644C1209.89 230.644 1200.19 220.044 1200.39 207.844C1200.59 195.644 1209.99 185.544 1221.29 185.444C1232.79 185.344 1242.39 195.644 1242.39 208.044C1242.29 220.444 1232.79 230.644 1221.29 230.644Z" fill="white"/>
<path d="M983.988 236.044H976.188C976.188 226.044 976.188 216.144 976.188 206.244C976.188 203.144 976.188 199.844 975.588 196.844C973.888 188.944 967.988 184.744 959.988 185.344C951.388 186.044 944.388 192.244 944.188 199.844C943.988 209.944 944.088 220.144 944.088 230.244V235.844H936.588V159.644H944.088V187.744C949.788 181.144 955.888 178.044 963.388 178.044C974.088 178.044 983.288 185.244 983.888 195.944C984.588 209.244 983.988 222.544 983.988 236.044Z" fill="white"/>
<path d="M1057.89 236.044H1050.29C1050.19 234.344 1050.09 232.544 1050.09 230.844C1050.09 221.244 1050.19 211.644 1050.09 201.944C1049.99 191.644 1044.29 185.344 1035.49 185.344C1025.19 185.344 1017.99 192.144 1017.99 202.244C1017.89 213.344 1017.99 224.444 1017.99 235.944H1010.59V179.844H1017.69C1017.89 182.144 1018.09 184.344 1018.39 187.344C1023.69 181.744 1029.29 178.244 1036.89 178.444C1048.49 178.744 1057.09 185.144 1057.89 196.744C1058.59 209.644 1057.89 222.744 1057.89 236.044Z" fill="white"/>
<path d="M1086.79 71.1443V127.544H1079.59C1079.39 125.144 1079.19 122.744 1078.89 119.544C1073.39 126.244 1066.99 129.144 1058.89 128.744C1048.79 128.244 1040.09 121.544 1039.59 111.444C1038.79 98.1443 1039.39 84.6443 1039.39 71.0443H1047.19C1047.19 81.5443 1047.19 91.9443 1047.19 102.344C1047.19 104.844 1047.19 107.344 1047.59 109.744C1049.29 117.844 1055.39 122.344 1063.39 121.644C1072.29 120.844 1079.09 114.444 1079.19 106.544C1079.29 96.4443 1079.19 86.3443 1079.19 76.1443V70.9443H1086.79V71.1443Z" fill="white"/>
<path d="M1243.59 71.244V127.344H1236.19C1235.99 125.044 1235.79 122.844 1235.39 119.744C1229.49 126.744 1222.59 129.444 1214.29 128.844C1205.59 128.144 1196.89 121.544 1196.39 112.844C1195.69 99.144 1196.19 85.344 1196.19 71.244H1203.59C1203.59 77.444 1203.59 83.544 1203.59 89.544C1203.59 95.544 1203.49 101.544 1203.79 107.444C1204.39 116.344 1210.29 121.944 1218.49 121.744C1227.89 121.544 1235.39 115.144 1235.69 106.444C1235.99 97.144 1235.79 87.844 1235.79 78.544C1235.79 76.244 1235.79 73.944 1235.79 71.144H1243.59V71.244Z" fill="white"/>
<path d="M770.988 160.944V168.444H746.088V236.044H737.488V168.644H712.388V160.944H770.988Z" fill="white"/>
<path d="M913.988 229.044C904.888 240.344 886.388 240.944 874.588 230.544C861.388 218.944 860.888 199.044 873.388 186.744C884.888 175.444 903.588 175.344 913.888 186.944C912.188 188.444 910.488 189.944 908.888 191.444C894.988 183.344 885.888 183.844 878.388 193.044C871.088 201.944 871.388 215.244 878.888 223.644C886.888 232.544 896.088 232.844 909.488 224.144C910.888 225.744 912.488 227.344 913.988 229.044Z" fill="white"/>
<path d="M1017.39 120.044C1007.29 131.544 988.888 131.744 977.288 120.944C964.988 109.444 964.488 90.0445 976.288 78.1445C987.788 66.4445 1005.79 66.1445 1017.29 77.6445C1015.39 79.1445 1013.49 80.7445 1011.59 82.3445C1000.59 74.2445 989.988 74.5445 982.088 83.4445C974.188 92.3445 974.288 106.044 982.288 114.844C990.388 123.844 1000.29 124.044 1012.29 115.144C1013.99 116.744 1015.69 118.444 1017.39 120.044Z" fill="white"/>
<path d="M1175.19 125.244C1170.19 129.444 1164.59 129.744 1159.19 127.744C1153.69 125.744 1151.19 121.044 1151.19 115.144C1151.09 104.744 1151.09 94.2443 1151.09 83.8443V77.7444H1142.59V70.8443C1145.09 70.6443 1147.69 70.4443 1150.79 70.1443V55.4443H1159.09V70.4443H1172.89V77.6443H1159.19C1159.19 90.7443 1158.89 103.244 1159.29 115.844C1159.49 121.444 1164.29 122.944 1171.49 120.044C1172.69 121.644 1173.89 123.344 1175.19 125.244Z" fill="white"/>
<path d="M1299.89 69.2441V76.1441C1298.39 76.3441 1296.99 76.5441 1295.49 76.8441C1284.89 78.5441 1278.29 86.0441 1278.19 96.6441C1278.09 106.744 1278.19 116.844 1278.19 127.244H1270.59V70.7441H1278.09V81.0441C1283.99 72.7441 1290.89 69.3441 1299.89 69.2441Z" fill="white"/>
<path d="M916.988 68.644V76.144C915.688 76.344 914.388 76.644 913.088 76.744C902.188 78.344 895.588 85.744 895.388 96.744C895.288 106.844 895.388 116.944 895.388 127.344H887.588V70.844H895.188V79.844C898.888 76.944 901.788 73.844 905.388 72.044C908.688 70.244 912.688 69.744 916.988 68.644Z" fill="white"/>
<path d="M1120.59 50.644H1113.59V127.444H1120.59V50.644Z" fill="white"/>
<path d="M1168.99 159.744H1161.99V236.044H1168.99V159.744Z" fill="white"/>
<path d="M944.788 71.2441H937.688V127.444H944.788V71.2441Z" fill="white"/>
<path d="M1359.09 179.744H1352.29V236.044H1359.09V179.744Z" fill="white"/>
<path d="M946.389 54.5441C946.289 56.4441 943.589 59.1441 941.589 59.5441C938.489 60.1441 935.889 57.7441 936.389 54.4441C936.789 52.2441 938.889 50.2441 940.289 48.2441C941.089 48.2441 941.889 48.2441 942.789 48.2441C944.089 50.3441 946.489 52.5441 946.389 54.5441Z" fill="white"/>
<path d="M1360.99 156.444C1360.89 159.644 1359.09 161.644 1355.09 161.544C1352.09 161.444 1350.29 159.344 1350.39 156.144C1350.49 152.844 1352.69 151.244 1356.09 151.344C1359.29 151.544 1361.09 153.344 1360.99 156.444Z" fill="white"/>
</svg>
