<svg width="30" height="24" viewBox="0 0 30 24" fill="none" xmlns="http://www.w3.org/2000/svg">
<path fill-rule="evenodd" clip-rule="evenodd" d="M2.5 4.83409C1.39542 4.83409 0.5 3.93866 0.5 2.83409C0.5 1.72952 1.39542 0.834091 2.5 0.834091H28C29.1046 0.834091 30 1.72952 30 2.83409C30 3.93866 29.1046 4.83409 28 4.83409H2.5ZM17.7502 21.68C17.7502 22.7845 18.6457 23.68 19.7502 23.68H28C29.1046 23.68 30 22.7845 30 21.68C30 20.5754 29.1046 19.68 28 19.68H19.7502C18.6457 19.68 17.7502 20.5754 17.7502 21.68ZM11.5005 14.257C10.3959 14.257 9.50049 13.3616 9.50049 12.257C9.50049 11.1525 10.3959 10.257 11.5005 10.257H28C29.1046 10.257 30 11.1525 30 12.257C30 13.3616 29.1046 14.257 28 14.257H11.5005Z" fill="white"/>
</svg>
