<svg width="982" height="211" viewBox="0 0 982 211" fill="none" xmlns="http://www.w3.org/2000/svg">
<g clip-path="url(#clip0)">
<path d="M274.08 90.5699C273.929 84.0244 275.258 77.5293 277.97 71.5699C280.471 66.2766 284.115 61.6042 288.64 57.8899C293.37 54.0809 298.808 51.2464 304.64 49.5499C311.175 47.6444 317.953 46.7077 324.76 46.7699C332.912 46.6308 341.009 48.1446 348.56 51.2199C355.142 53.9022 360.951 58.185 365.46 63.6799C369.925 58.214 375.668 53.9313 382.18 51.2099C389.647 48.1211 397.671 46.6062 405.75 46.7599C412.487 46.7072 419.195 47.6438 425.66 49.5399C431.492 51.2364 436.93 54.0709 441.66 57.8799C446.185 61.5964 449.832 66.268 452.34 71.5599C455.047 77.5207 456.377 84.0148 456.23 90.5599V163.3H420.41V100.81C420.41 93.2366 418.853 87.8232 415.74 84.5699C412.627 81.3166 408.253 79.6866 402.62 79.6799C399.991 79.5865 397.372 80.0535 394.938 81.0501C392.503 82.0467 390.309 83.5499 388.5 85.4599C384.873 89.3199 383.057 95.4732 383.05 103.92V163.3H347.25V103.92C347.25 95.4732 345.47 89.3199 341.91 85.4599C338.35 81.5999 333.683 79.6732 327.91 79.6799C322.27 79.6799 317.857 81.3099 314.67 84.5699C311.483 87.8299 309.89 93.2432 309.89 100.81V163.3H274.08V90.5699Z" fill="black"/>
<path d="M210.58 -5.9437e-06V4.46999C210.48 50.15 210.37 95.8333 210.25 141.52C210.17 164.89 199.96 183.23 181.47 197.03C170.159 205.58 156.359 210.191 142.18 210.16C115.993 210.28 89.8 210.28 63.6 210.16C34.66 210.09 6.44001 188.86 1.09001 155.67C0.580441 152.485 0.319653 149.265 0.310012 146.04C0.180012 118.83 0.120012 91.6 0.250012 64.37C0.229132 49.7144 5.22475 35.4931 14.4064 24.0701C23.5881 12.6472 36.4027 4.71068 50.72 1.57999C55.5088 0.557492 60.3933 0.051267 65.29 0.0699941C112.263 -0.0300059 159.227 -0.0533393 206.18 -5.9437e-06H210.58ZM144.23 66.23H91.18C76.18 66.26 66.27 78 66.54 91.48C66.72 100.76 66.54 110.06 66.54 119.34C66.64 133.09 76.07 143.27 89.76 143.84C99.55 144.25 109.37 144.17 119.16 143.84C135.16 143.34 144.55 129.56 144.27 117.22C143.91 101.88 144.18 86.52 144.18 71.22L144.23 66.23Z" fill="black"/>
<path d="M815.54 0H791.54C788.226 0 785.54 2.68629 785.54 6V31C785.54 34.3137 788.226 37 791.54 37H815.54C818.854 37 821.54 34.3137 821.54 31V6C821.54 2.68629 818.854 0 815.54 0Z" fill="black"/>
<path d="M522.62 0H498.62C495.306 0 492.62 2.68629 492.62 6V31C492.62 34.3137 495.306 37 498.62 37H522.62C525.934 37 528.62 34.3137 528.62 31V6C528.62 2.68629 525.934 0 522.62 0Z" fill="black"/>
<path d="M791.63 50.23H815.44C817.031 50.23 818.557 50.8621 819.683 51.9873C820.808 53.1126 821.44 54.6387 821.44 56.23V163.31H785.63V56.23C785.63 54.6387 786.262 53.1126 787.387 51.9873C788.513 50.8621 790.039 50.23 791.63 50.23Z" fill="black"/>
<path d="M498.72 50.23H522.53C524.121 50.23 525.647 50.8621 526.773 51.9873C527.898 53.1126 528.53 54.6387 528.53 56.23V163.31H492.72V56.23C492.72 54.6387 493.352 53.1126 494.477 51.9873C495.603 50.8621 497.129 50.23 498.72 50.23Z" fill="black"/>
<path d="M566.18 90.5699C566.029 84.0244 567.358 77.5293 570.07 71.5699C572.571 66.2766 576.215 61.6042 580.74 57.8899C585.47 54.0794 590.908 51.2447 596.74 49.5499C603.275 47.6444 610.054 46.7077 616.86 46.7699C625.013 46.6308 633.109 48.1446 640.66 51.2199C647.242 53.9023 653.051 58.185 657.56 63.6799C662.015 58.2229 667.743 53.9442 674.24 51.2199C681.707 48.1312 689.731 46.6162 697.81 46.7699C704.547 46.7172 711.255 47.6538 717.72 49.5499C723.552 51.2464 728.99 54.0809 733.72 57.8899C738.245 61.6064 741.893 66.278 744.4 71.5699C747.107 77.5308 748.437 84.0248 748.29 90.5699V163.3H712.49V100.81C712.49 93.2366 710.933 87.8232 707.82 84.5699C704.707 81.3166 700.333 79.6866 694.7 79.6799C692.071 79.5865 689.452 80.0536 687.018 81.0501C684.583 82.0467 682.389 83.5499 680.58 85.4599C676.94 89.3199 675.123 95.4732 675.13 103.92V163.3H639.33V103.92C639.33 95.4732 637.55 89.3199 633.99 85.4599C630.43 81.5999 625.763 79.6732 619.99 79.6799C614.35 79.6799 609.937 81.3099 606.75 84.5699C603.563 87.8299 601.97 93.2432 601.97 100.81V163.3H566.18V90.5699Z" fill="black"/>
<path d="M938.46 47H888.76C880.804 47 873.173 50.1607 867.547 55.7868C861.921 61.4129 858.76 69.0435 858.76 77V133.39C858.76 141.346 861.921 148.977 867.547 154.603C873.173 160.229 880.804 163.39 888.76 163.39H938.46C938.91 163.39 939.36 163.39 939.81 163.39C947.53 163.042 954.818 159.729 960.156 154.14C965.493 148.551 968.468 141.118 968.46 133.39V77C968.46 69.0435 965.299 61.4129 959.673 55.7868C954.047 50.1607 946.417 47 938.46 47ZM901.76 130.39C899.108 130.39 896.564 129.336 894.689 127.461C892.814 125.586 891.76 123.042 891.76 120.39V89.9C891.76 87.2478 892.814 84.7043 894.689 82.8289C896.564 80.9536 899.108 79.9 901.76 79.9H925.46C928.112 79.9 930.656 80.9536 932.531 82.8289C934.406 84.7043 935.46 87.2478 935.46 89.9V120.38C935.46 123.032 934.406 125.576 932.531 127.451C930.656 129.326 928.112 130.38 925.46 130.38L901.76 130.39Z" fill="black"/>
<path d="M982 158.07L954.71 181.04L928.48 149.89L955.76 126.91L982 158.07Z" fill="black"/>
</g>
<defs>
<clipPath id="clip0">
<rect width="981.82" height="210.24" fill="white" transform="translate(0.179993)"/>
</clipPath>
</defs>
</svg>
