<svg width="213" height="62" viewBox="0 0 213 62" fill="none" xmlns="http://www.w3.org/2000/svg">
<path d="M56.8426 12.5271C57.6498 12.5271 58.2118 12.6322 58.5286 12.8439C58.8453 13.0541 59.0037 13.4059 59.0037 13.8978C59.0037 14.7416 58.5468 17.7481 57.633 22.9157C56.8228 27.8731 56.3491 30.8095 56.2075 31.7234C54.9068 40.758 53.1127 47.9131 50.8281 53.1874C48.5421 58.4616 45.5006 61.098 41.7037 61.098C39.9111 61.098 38.4505 60.5436 37.325 59.4364C36.1995 58.3291 35.6375 56.8792 35.6375 55.0851C35.6375 53.4326 36.0152 51.7451 36.7721 50.0225C37.5275 48.3 38.9333 46.3216 40.9924 44.0903C43.05 41.8576 45.959 39.2989 49.7209 36.4173L49.8793 35.2035C50.1245 33.9028 50.4078 32.0401 50.723 29.614C50.0194 32.1452 49.0355 34.0703 47.7699 35.3878C46.5043 36.7067 45.1686 37.3662 43.7628 37.3662C42.1804 37.3662 40.8873 36.6366 39.8867 35.1776C39.7732 35.0124 39.6662 34.8425 39.5655 34.6681C39.1687 34.9888 38.7633 35.2905 38.3515 35.5736C36.6107 36.7691 34.6323 37.3662 32.4178 37.3662C30.6237 37.3662 29.2697 36.8483 28.3559 35.8096C27.4405 34.774 26.9836 33.2708 26.9836 31.3015C26.9836 30.3176 27.2288 28.5585 27.7223 26.0272C28.1792 23.8128 28.4076 22.2836 28.4076 21.4399C28.4076 20.8779 28.2142 20.5961 27.8274 20.5961C27.3705 20.5961 26.7201 21.184 25.8764 22.3628C25.0326 23.5401 24.1889 25.0967 23.3436 27.0294C22.4998 28.9636 21.8145 31.003 21.2875 33.1474C20.9006 34.8349 20.4514 35.9604 19.9427 36.5224C19.4324 37.0844 18.6146 37.3662 17.4906 37.3662C16.33 37.3662 15.4604 36.8118 14.8801 35.7045C14.2998 34.5973 14.0105 33.2525 14.0105 31.6701C14.0105 30.3344 14.1856 28.4001 14.5374 25.8688C14.8192 23.6193 14.9593 22.1435 14.9593 21.4399C14.9593 20.8779 14.7659 20.5961 14.379 20.5961C13.8521 20.5961 13.1835 21.2282 12.3747 22.4938C11.566 23.7594 10.7877 25.3769 10.0308 27.3462C9.27386 29.3155 8.66769 31.2482 8.21078 33.1474C7.82393 34.7999 7.37616 35.9162 6.86595 36.4965C6.35574 37.0753 5.55462 37.3662 4.46566 37.3662C3.12997 37.3662 2.19026 36.6625 1.64501 35.2568C1.09977 33.851 0.827148 31.6 0.827148 28.5067C0.827148 23.9361 1.47748 19.594 2.77815 15.4803C3.09494 14.4598 3.61277 13.7136 4.33316 13.2384C5.05507 12.7647 6.06636 12.5271 7.36703 12.5271C8.06914 12.5271 8.5626 12.6155 8.84436 12.7906C9.1246 12.9673 9.26624 13.3008 9.26624 13.7928C9.26624 14.3548 9.00276 15.6204 8.47427 17.5897C8.12245 18.9969 7.84069 20.2184 7.63051 21.2541C7.42033 22.2928 7.24366 23.5843 7.10354 25.1317C8.05239 22.3887 9.18704 20.0676 10.5045 18.1699C11.8234 16.2707 13.1774 14.8558 14.5664 13.9237C15.9554 12.9932 17.2637 12.5271 18.4958 12.5271C19.7264 12.5271 20.596 12.8089 21.1063 13.3709C21.6165 13.9329 21.8708 14.7949 21.8708 15.9555C21.8708 17.081 21.5357 19.1188 20.8687 22.0719C20.5869 23.3376 20.3935 24.2864 20.2884 24.92C22.046 20.5961 23.9985 17.4495 26.1429 15.4803C28.2873 13.511 30.2916 12.5271 32.1558 12.5271C34.4404 12.5271 35.5841 13.6694 35.5841 15.9555C35.5841 17.3262 35.1973 19.8041 34.4236 23.3909C33.755 26.4491 33.4214 28.4717 33.4214 29.4556C33.4214 30.8613 33.9301 31.565 34.9506 31.565C35.6527 31.565 36.4873 31.1355 37.4559 30.2734C37.7378 30.0218 38.0475 29.7247 38.385 29.3819L38.3835 29.7191C38.3835 27.0827 38.5586 24.6656 38.9104 22.4679C39.2607 20.2702 39.841 17.9415 40.6513 15.4803C41.0016 14.4248 41.495 13.6694 42.1286 13.2125C42.7622 12.7556 43.7643 12.5271 45.1351 12.5271C45.9087 12.5271 46.4449 12.6505 46.7449 12.8957C47.0434 13.1424 47.1927 13.511 47.1927 14.0029C47.1927 14.2847 46.9992 15.2351 46.6124 16.851C46.2606 18.1517 45.9788 19.3305 45.7686 20.3844C45.4869 21.8267 45.2417 23.2066 45.03 24.524C44.8198 25.8429 44.7132 26.9243 44.7132 27.7681C44.7132 29.1038 45.0817 29.7724 45.8204 29.7724C46.3489 29.7724 47.0069 29.2439 47.7988 28.1899C48.5893 27.1345 49.4346 25.5353 50.3301 23.3909C51.2272 21.2465 52.0968 18.6101 52.9406 15.4803C53.2223 14.4248 53.6518 13.6694 54.2321 13.2125C54.8124 12.7556 55.6835 12.5271 56.8426 12.5271ZM48.507 42.7455C45.7991 45.03 43.839 47.1135 42.6251 48.9945C41.4128 50.8754 40.8066 52.5188 40.8066 53.926C40.8066 54.5231 40.9208 55.015 41.1493 55.4019C41.3762 55.7887 41.7555 55.9821 42.2824 55.9821C43.1612 55.9821 44.1466 54.9617 45.2371 52.9239C46.3261 50.8846 47.4165 47.4913 48.507 42.7455ZM101.725 10.1542C109.11 10.1542 112.8 14.1796 112.8 22.2303L112.432 26.344H96.0803C96.1138 28.5235 96.589 30.1242 97.5043 31.1431C98.4197 32.1635 100.124 32.6722 102.62 32.6722C105.118 32.6722 107.684 32.5671 110.322 32.3554L111.799 32.197L111.905 36.4691C107.896 37.2778 104.344 37.683 101.249 37.683C97.3459 37.683 94.542 36.6108 92.8378 34.4648C91.132 32.3219 90.2791 28.8936 90.2791 24.1813C90.2791 14.8299 94.0943 10.1542 101.725 10.1542ZM179.257 10.1542C186.643 10.1542 190.333 14.1796 190.333 22.2303L189.964 26.344H173.615C173.648 28.5235 174.123 30.1242 175.039 31.1431C175.952 32.1635 177.657 32.6722 180.154 32.6722C182.651 32.6722 185.217 32.5671 187.855 32.3554L189.332 32.197L189.437 36.4691C185.429 37.2778 181.877 37.683 178.782 37.683C174.879 37.683 172.075 36.6108 170.371 34.4648C168.665 32.3219 167.812 28.8936 167.812 24.1813C167.812 14.8299 171.627 10.1542 179.257 10.1542ZM201.727 10.206C203.976 10.206 206.737 10.4878 210.007 11.0498L211.643 11.3666L211.536 16.1656C207.386 15.6036 204.381 15.3219 202.517 15.3219C200.653 15.3219 199.361 15.5412 198.641 15.9813C197.919 16.4215 197.56 17.1145 197.56 18.0649C197.56 19.0137 197.954 19.6823 198.746 20.0676C199.538 20.456 201.401 20.9038 204.337 21.4125C207.272 21.9227 209.355 22.7238 210.588 23.8128C211.818 24.9032 212.433 26.836 212.433 29.614C212.433 32.392 211.546 34.4313 209.77 35.7304C207.994 37.0326 205.4 37.683 201.99 37.683C199.846 37.683 197.138 37.3829 193.868 36.7859L192.232 36.5224L192.444 31.7234C196.664 32.2854 199.704 32.5671 201.568 32.5671C203.432 32.5671 204.759 32.3387 205.551 31.8818C206.343 31.4248 206.737 30.6679 206.737 29.614C206.737 28.5585 206.36 27.829 205.603 27.4254C204.846 27.0218 203.036 26.5816 200.172 26.1064C197.305 25.6312 195.203 24.885 193.868 23.8661C192.532 22.8456 191.863 20.983 191.863 18.275C191.863 15.5686 192.786 13.546 194.632 12.2103C196.478 10.8746 198.844 10.206 201.727 10.206ZM158.529 10.1542C160.392 10.1542 162.591 10.3995 165.122 10.8914L166.441 11.1564L166.229 15.6905C163.451 15.4102 161.395 15.2686 160.058 15.2686C157.387 15.2686 155.593 15.8671 154.679 17.0627C153.765 18.2583 153.308 20.5078 153.308 23.8128C153.308 27.1177 153.748 29.4023 154.627 30.6679C155.506 31.9335 157.335 32.5671 160.113 32.5671L166.283 32.1452L166.441 36.7326C162.889 37.3662 160.218 37.683 158.424 37.683C154.415 37.683 151.593 36.6016 149.957 34.4389C148.323 32.2762 147.505 28.7352 147.505 23.8128C147.505 18.8903 148.366 15.3828 150.09 13.2917C151.812 11.2006 154.625 10.1542 158.529 10.1542ZM73.5593 0.978009C79.1138 0.978009 82.9122 2.38376 84.9515 5.19679C86.9909 8.00983 88.0113 12.4205 88.0113 18.4334C88.0113 21.4917 87.8087 24.0854 87.4051 26.2115C87 28.3392 86.2888 30.2643 85.2699 31.9868C83.264 35.3969 79.3605 37.1027 73.5593 37.1027H61.0583V0.978009H73.5593ZM118.866 10.733L123.929 32.197H125.618L130.892 10.733H136.747L129.89 37.1027H119.657L112.853 10.733H118.866ZM144.342 10.733V37.1027H138.593V10.733H144.342ZM73.5593 6.09233H66.9128V31.9335H73.5593C77.0394 31.9335 79.3605 30.6511 80.5211 28.0848C81.0831 26.7842 81.4608 25.3952 81.6557 23.9178C81.8491 22.4405 81.9451 20.6129 81.9451 18.4334C81.9451 14.0745 81.3998 10.9279 80.3109 8.9937C79.2204 7.06098 76.9694 6.09233 73.5593 6.09233ZM101.725 14.9C99.7554 14.9 98.3237 15.4452 97.4267 16.5342C96.5296 17.6247 96.062 19.4173 96.0285 21.9135H107.157C107.157 19.3122 106.745 17.4937 105.918 16.455C105.091 15.4194 103.694 14.9 101.725 14.9ZM179.257 14.9C177.288 14.9 175.856 15.4452 174.959 16.5342C174.062 17.6247 173.595 19.4173 173.561 21.9135H184.69C184.69 19.3122 184.277 17.4937 183.45 16.455C182.625 15.4194 181.227 14.9 179.257 14.9ZM144.342 0.186035V6.25073H138.593V0.186035H144.342Z" fill="black"/>
</svg>
