<svg width="553" height="147" viewBox="0 0 553 147" fill="none" xmlns="http://www.w3.org/2000/svg">
<path fill-rule="evenodd" clip-rule="evenodd" d="M83.4402 0.976878C97.3971 2.39802 111.194 6.78957 121.305 18.5081C128.917 27.3262 133.333 37.6819 133.653 49.0626C134.281 70.5536 134.454 92.0565 134.627 113.558C134.696 122.125 134.765 130.692 134.863 139.258C134.868 139.737 134.86 140.22 134.851 140.702C134.843 141.193 134.834 141.683 134.84 142.171C134.874 144.722 133.847 146.236 131.165 146.224C127.001 146.21 122.833 146.209 118.666 146.208H118.666H118.666C115.809 146.207 112.953 146.206 110.099 146.201C107.793 146.201 106.607 145.001 106.572 142.625L106.57 142.464C106.548 140.968 106.527 139.461 106.527 137.965C106.524 130.677 106.511 123.387 106.498 116.098V116.096V116.094V116.093V116.092C106.465 96.7854 106.431 77.4757 106.572 58.1719C106.664 44.8575 97.8421 33.9427 84.6727 30.8791C72.9982 28.1649 61.4151 28.13 49.7748 31.0538C36.206 34.4552 28.2747 44.4614 28.0236 59.8959C27.7423 77.31 27.7981 94.7297 27.8539 112.147C27.8796 120.164 27.9053 128.18 27.8981 136.195C27.8972 137.013 27.901 137.764 27.9044 138.455L27.9044 138.456C27.9243 142.506 27.934 144.468 26.9582 145.414C26.0407 146.303 24.252 146.294 20.7813 146.275C19.9884 146.27 19.1076 146.266 18.1294 146.271C17.5178 146.274 16.9063 146.278 16.2947 146.282H16.2931C12.7284 146.305 9.16373 146.327 5.59905 146.248C0.783193 146.154 0.486481 145.898 0.463657 140.843C0.422158 129.829 0.428949 118.816 0.43574 107.803C0.438286 103.673 0.440833 99.5428 0.440833 95.4128H0.497893C0.497893 90.8717 0.405917 86.3218 0.313928 81.7713C0.10718 71.5437 -0.0996368 61.3128 0.737545 51.1711C2.42651 30.7276 12.1952 13.0566 34.654 4.99567C50.7563 -0.782074 67.2352 -0.665587 83.4402 0.976878ZM498.211 3.67648C498.097 1.55642 496.921 0.508036 494.913 0.496387C489.453 0.468429 483.986 0.470294 478.523 0.472158C477.158 0.472624 475.793 0.47309 474.428 0.47309C472.089 0.47309 470.97 1.73115 470.948 4.08418C470.925 5.63346 470.902 7.18273 470.902 8.74366C470.902 15.181 470.907 21.6193 470.912 28.0579V28.0591V28.0603V28.0614V28.0766C470.925 45.3065 470.939 62.5392 470.856 79.7657C470.822 85.9395 470.377 92.1366 469.806 98.2987C468.973 107.198 463.678 113.104 455.507 115.853C447.587 118.509 439.861 118.113 432.055 115.807C427.536 114.467 423.919 111.904 421.26 107.816C418.293 103.238 417.403 98.2055 417.403 92.8821C417.403 82.3186 417.4 71.7523 417.397 61.186L417.397 60.8657L417.397 60.5454C417.394 49.9791 417.391 39.4128 417.391 28.8493C417.391 26.6297 417.396 24.4092 417.402 22.1883V22.1871V22.1858V22.1846V22.18C417.416 16.6409 417.43 11.0993 417.357 5.56356C417.3 0.985632 416.855 0.566279 412.45 0.47309C408.464 0.391549 404.479 0.408663 400.494 0.425776C399.355 0.430666 398.216 0.435555 397.078 0.438144C390.059 0.461441 390.025 0.47309 390.014 7.45065C389.996 17.2557 389.998 27.0607 390 36.8657V36.9119C390.001 40.0914 390.002 43.2709 390.002 46.4504C390.002 50.8966 390.007 55.3418 390.013 59.7866V59.7878V59.789V59.7902C390.027 70.8672 390.041 81.9416 389.968 93.0219C389.9 103.389 384.468 112.51 376.525 115.446C367.041 118.952 353.838 117.915 348.2 114.723C342.563 111.532 336.754 101.98 336.754 91.9735C336.754 85.1823 336.717 78.3911 336.68 71.5999L336.68 71.5832C336.643 64.7976 336.606 58.012 336.606 51.2264C336.606 47.4717 336.608 43.7162 336.61 39.9604C336.616 28.5803 336.623 17.1968 336.571 5.81984C336.549 0.91574 336.126 0.542982 331.322 0.449792C325.821 0.356603 320.321 0.368252 314.82 0.438144C309.639 0.508036 309.217 0.857497 309.205 6.01786C309.201 11.5732 309.195 17.1289 309.188 22.6848V22.6868V22.6888V22.6908C309.16 48.18 309.132 73.6743 309.32 99.1607C309.388 107.513 311.043 115.783 315.208 123.157C323.014 136.937 335.613 143.775 350.346 145.895C356.6 146.794 363.017 146.553 369.432 146.312H369.432C372.17 146.21 374.908 146.107 377.632 146.093C378.556 146.093 379.526 145.872 380.405 145.546C381.883 144.994 383.381 144.484 384.88 143.974C391.614 141.682 398.371 139.383 403.411 133.256C403.9 133.595 404.301 133.859 404.639 134.081L404.639 134.082C405.254 134.487 405.66 134.755 406.013 135.085C412.712 141.271 421.02 145.033 429.522 145.744C430.071 145.79 430.621 145.837 431.172 145.883C442.76 146.865 454.645 147.871 466.052 143.6C472.83 141.061 479.37 138.184 484.653 132.802C494.445 122.819 497.96 110.204 498.165 96.7961C498.493 75.3602 498.432 53.9183 498.372 32.479V32.4778V32.4766V32.4753C498.349 24.0322 498.325 15.5896 498.325 7.14779C498.316 6.857 498.308 6.56471 498.3 6.27129C498.277 5.41278 498.253 4.54463 498.211 3.67648ZM265.955 12.11C254.52 4.58497 242.046 0.962227 228.58 0.449684C227.026 0.393879 225.466 0.409003 223.909 0.424108C223.19 0.431074 222.473 0.438036 221.756 0.438036C221.145 0.448842 220.536 0.458465 219.926 0.468078C212.657 0.582808 205.479 0.696083 198.224 2.80272C181.289 7.73011 167.857 16.5482 160.462 33.497C155.589 44.6681 153.98 56.6429 153.421 68.5712C152.748 82.934 155.041 97.1338 160.177 110.635C163.076 118.265 167.138 125.335 173.175 130.868C182.967 139.838 195.212 144.404 207.685 145.732C222.372 147.281 237.402 147.736 251.884 141.772C264.151 136.716 274.24 129.517 280.436 117.461C285.789 107.058 288.082 95.8641 289.087 84.0873C290.49 67.6277 289.691 51.5874 283.951 36.1063C280.356 26.3564 274.844 17.9577 265.955 12.11ZM260.956 85.8928C260.123 90.4358 258.822 94.8623 256.756 99.1374C252.363 108.258 244.922 113.291 235.485 115.946C223.856 119.22 212.649 118.428 201.637 113.57C193.352 109.912 187.794 103.797 184.987 94.9438C181.038 82.4914 180.753 69.7827 183.046 57.1438C185.694 42.583 195.177 33.0893 209.385 30.5149C220.695 28.4648 231.433 28.5347 242.195 32.9495C250.993 36.549 256.574 43.0256 258.993 52.0417C260.089 56.1421 260.705 60.3822 261.276 64.6339C262.234 71.693 262.246 78.8803 260.956 85.8928ZM546.049 53.0316C541.657 52.8773 537.258 52.9146 532.863 52.9518L532.861 52.9518C531.946 52.9595 531.032 52.9673 530.118 52.9733C523.785 53.0199 523.305 53.4859 523.283 59.9625C523.251 69.2243 523.258 78.4803 523.265 87.7386V87.7399C523.268 91.6742 523.271 95.609 523.271 99.5448C523.271 103.482 523.267 107.419 523.263 111.355V111.357C523.254 121.195 523.245 131.032 523.294 140.874C523.317 145.778 523.739 146.174 528.532 146.244C534.603 146.338 540.674 146.349 546.746 146.221C551.162 146.128 551.698 145.627 551.71 141.131C551.767 113.768 551.767 86.4167 551.71 59.0539C551.71 54.3013 550.671 53.1946 546.049 53.0316ZM551.681 17.563C553.532 25.5645 548.678 33.5827 540.839 35.472C533 37.3614 525.144 32.4066 523.293 24.405C521.442 16.4035 526.297 8.38529 534.136 6.49591C541.975 4.60652 549.83 9.56138 551.681 17.563Z" fill="black"/>
</svg>
