<svg width="552" height="147" viewBox="0 0 552 147" fill="none" xmlns="http://www.w3.org/2000/svg">
<path fill-rule="evenodd" clip-rule="evenodd" d="M83.3102 0.976894C97.267 2.39804 111.064 6.78952 121.175 18.508C128.787 27.3261 133.203 37.6819 133.523 49.0626C134.151 70.5401 134.324 92.0291 134.497 113.518V113.553C134.566 122.122 134.635 130.69 134.733 139.258C134.738 139.737 134.73 140.22 134.721 140.702L134.72 140.726C134.712 141.208 134.704 141.691 134.71 142.171C134.744 144.722 133.717 146.236 131.035 146.224C126.871 146.21 122.703 146.209 118.535 146.208C115.679 146.207 112.823 146.206 109.969 146.201C107.663 146.201 106.477 145.001 106.442 142.625L106.44 142.466V142.447C106.418 140.956 106.397 139.456 106.397 137.965C106.394 130.672 106.381 123.379 106.368 116.085C106.335 96.7806 106.301 77.4734 106.442 58.1718C106.534 44.8575 97.7121 33.9427 84.5427 30.8791C72.8684 28.1649 61.2851 28.13 49.645 31.0538C36.0761 34.4552 28.1447 44.4614 27.8937 59.8958C27.6123 77.3121 27.6682 94.734 27.7241 112.154C27.7497 120.168 27.7753 128.182 27.7683 136.195C27.7675 137.013 27.7712 137.765 27.7746 138.457V138.459C27.7944 142.507 27.8039 144.468 26.8283 145.414C25.9108 146.303 24.122 146.294 20.6516 146.275C20.2062 146.272 19.7331 146.27 19.2304 146.269C18.8383 146.268 18.4282 146.269 17.9995 146.271L17.6164 146.273L16.1611 146.282H16.1486C12.5888 146.305 9.029 146.327 5.46918 146.248C0.653267 146.154 0.356636 145.898 0.333687 140.843C0.292183 129.837 0.299019 118.832 0.305855 107.827L0.306587 106.792C0.307808 104.642 0.309028 102.493 0.309761 100.343C0.310493 98.6997 0.310982 97.0562 0.310982 95.4128H0.367866C0.367866 90.8719 0.275825 86.3221 0.183784 81.7717V81.7666C-0.0227587 71.5406 -0.229302 61.3111 0.607612 51.1711C2.29658 30.7275 12.0651 13.0566 34.5241 4.99569C50.6264 -0.78214 67.1052 -0.665562 83.3102 0.976894ZM498.081 3.67648C497.967 1.55636 496.791 0.508022 494.783 0.496303C489.35 0.468471 483.911 0.470302 478.476 0.472133H478.41L474.298 0.473109C471.959 0.473109 470.84 1.73117 470.818 4.08419C470.809 4.69564 470.8 5.30722 470.792 5.9194C470.78 6.85824 470.772 7.79879 470.772 8.74362C470.772 13.9635 470.775 19.1838 470.779 24.4045L470.782 28.0417C470.795 45.2832 470.809 62.5276 470.726 79.7657C470.692 85.9394 470.247 92.1366 469.676 98.2987C468.843 107.198 463.548 113.104 455.377 115.853C447.457 118.509 439.731 118.113 431.925 115.807C427.406 114.467 423.789 111.904 421.13 107.816C418.163 103.238 417.273 98.2054 417.273 92.882C417.273 82.2119 417.27 71.5388 417.267 60.8657L417.266 58.578C417.264 48.6674 417.261 38.7572 417.261 28.8492C417.261 27.6797 417.262 26.5099 417.265 25.3399L417.272 22.1917C417.286 16.6488 417.3 11.1032 417.227 5.56356C417.17 0.985561 416.725 0.566249 412.32 0.473109C408.335 0.391567 404.351 0.408656 400.366 0.425746C399.227 0.430629 398.087 0.435512 396.948 0.438075C389.929 0.461391 389.895 0.473109 389.884 7.45065C389.866 17.2712 389.868 27.0919 389.87 36.9124C389.871 40.0918 389.872 43.2711 389.872 46.4504C389.872 50.8985 389.877 55.3457 389.883 59.7924C389.897 70.8686 389.911 81.9422 389.838 93.0218C389.77 103.389 384.338 112.51 376.395 115.446C366.911 118.952 353.708 117.915 348.07 114.723C342.433 111.532 336.624 101.98 336.624 91.9735C336.624 85.1823 336.587 78.3911 336.55 71.5999C336.513 64.8088 336.476 58.0175 336.476 51.2264C336.476 47.4641 336.478 43.701 336.48 39.9375C336.487 28.5649 336.493 17.1891 336.441 5.81979C336.419 0.915736 335.996 0.542934 331.192 0.449794C325.691 0.356532 320.191 0.368251 314.69 0.438075C309.509 0.508022 309.087 0.857509 309.075 6.01779C309.071 11.578 309.065 17.1385 309.059 22.6993V22.7015C309.03 48.1872 309.002 73.6778 309.19 99.1606C309.258 107.513 310.913 115.783 315.078 123.157C322.884 136.937 335.483 143.775 350.216 145.895C356.47 146.793 362.886 146.553 369.299 146.312H369.302C372.04 146.21 374.778 146.107 377.502 146.093C378.426 146.093 379.396 145.872 380.275 145.546C381.753 144.994 383.251 144.484 384.75 143.974C391.484 141.682 398.241 139.383 403.281 133.256C403.765 133.591 404.162 133.853 404.497 134.074L404.506 134.08L404.51 134.082C405.124 134.487 405.53 134.755 405.883 135.085C412.582 141.271 420.89 145.033 429.392 145.744L430.351 145.825L431.043 145.883C442.631 146.865 454.515 147.871 465.922 143.6C472.7 141.061 479.24 138.184 484.523 132.802C494.315 122.819 497.83 110.204 498.035 96.7961C498.363 75.3614 498.302 53.9207 498.242 32.4828C498.218 24.0372 498.195 15.592 498.195 7.14779C498.186 6.85824 498.178 6.5671 498.17 6.27487C498.147 5.41513 498.123 4.54574 498.081 3.67648ZM265.825 12.11C254.39 4.58493 241.916 0.962245 228.45 0.449672C226.898 0.394008 225.341 0.409023 223.785 0.424037H223.778C223.06 0.430995 222.342 0.437953 221.626 0.437953L220.564 0.455775L219.82 0.467738H219.809L219.797 0.468105C212.527 0.582729 205.349 0.69601 198.094 2.8027C181.159 7.73007 167.727 16.5482 160.332 33.4969C155.459 44.6681 153.85 56.6429 153.291 68.5711C152.618 82.9339 154.911 97.1338 160.047 110.635C162.946 118.265 167.008 125.335 173.045 130.868C182.837 139.838 195.082 144.404 207.555 145.732C222.242 147.281 237.272 147.736 251.754 141.772C264.021 136.716 274.11 129.517 280.306 117.461C285.659 107.058 287.952 95.8641 288.957 84.0872C290.36 67.6276 289.561 51.5874 283.821 36.1063C280.226 26.3564 274.714 17.9576 265.825 12.11ZM260.826 85.8928C259.993 90.4358 258.692 94.8623 256.626 99.1374C252.233 108.258 244.792 113.291 235.355 115.946C223.726 119.22 212.519 118.428 201.507 113.57C193.222 109.912 187.664 103.797 184.857 94.9438C180.908 82.4914 180.623 69.7827 182.916 57.1438C185.564 42.583 195.047 33.0893 209.255 30.5149C220.565 28.4648 231.303 28.5346 242.065 32.9494C250.863 36.5489 256.444 43.0256 258.863 52.0417C259.959 56.1421 260.575 60.3822 261.146 64.6339C262.104 71.693 262.116 78.8802 260.826 85.8928ZM545.919 53.0316C541.527 52.8773 537.126 52.9145 532.731 52.9517C531.816 52.9596 530.902 52.9673 529.988 52.9732C523.655 53.0199 523.175 53.4858 523.153 59.9625C523.121 69.2318 523.128 78.4952 523.135 87.7611C523.138 91.6883 523.141 95.6161 523.141 99.5448C523.141 103.476 523.137 107.407 523.133 111.337C523.124 121.183 523.115 131.025 523.164 140.874C523.187 145.778 523.609 146.174 528.402 146.244C534.473 146.338 540.544 146.349 546.616 146.221C551.032 146.128 551.568 145.627 551.58 141.131C551.637 113.768 551.637 86.4166 551.58 59.0538C551.58 54.3012 550.541 53.1945 545.919 53.0316ZM551.551 17.563C553.402 25.5644 548.548 33.5826 540.709 35.4719C532.87 37.3613 525.014 32.4066 523.163 24.4049C521.312 16.4034 526.167 8.38522 534.006 6.49581C541.845 4.60653 549.7 9.56137 551.551 17.563Z" fill="white"/>
</svg>
