<svg width="221" height="52" viewBox="0 0 221 52" fill="none" xmlns="http://www.w3.org/2000/svg">
<path fill-rule="evenodd" clip-rule="evenodd" d="M26 0C11.6404 0 0 11.6404 0 26C0 40.3596 11.6404 52 26 52C40.3596 52 52 40.3596 52 26C52 11.6404 40.3596 0 26 0ZM35.179 45.3317C35.1756 45.3836 35.1117 45.4326 35.0484 45.4811C35.0218 45.5015 34.9953 45.5218 34.9734 45.5422C34.9661 45.5487 34.9494 45.5463 34.9344 45.5443L34.9259 45.5432C34.4265 45.4869 34.0531 45.7129 33.736 46.0794V46.6652C33.7731 46.6989 33.8121 46.7348 33.8555 46.7747C33.8995 46.8152 33.948 46.8598 34.0037 46.9106H34.6777C34.6798 46.9192 34.6824 46.9277 34.685 46.9359C34.6873 46.9429 34.6896 46.9496 34.6919 46.9561C34.7012 46.983 34.7086 47.0044 34.7009 47.0134C34.4847 47.2723 33.9329 47.6534 33.6371 47.667C33.3917 47.678 33.1977 47.7895 33.0048 47.9004C32.9262 47.9455 32.8478 47.9906 32.7662 48.0287C32.672 48.073 32.5797 48.1266 32.4872 48.1803L32.487 48.1804C32.4358 48.2101 32.3845 48.2399 32.3327 48.2683C32.1831 48.3491 32.0501 48.4597 31.9071 48.5788H31.907C31.8423 48.6326 31.7756 48.6882 31.7043 48.7435C31.6251 48.7435 31.5421 48.7426 31.4562 48.7417H31.4561C31.2433 48.7394 31.0134 48.737 30.784 48.7473C30.5968 48.7561 30.4339 48.6872 30.3253 48.5718C30.0052 48.2314 29.5853 48.0869 29.1625 47.9793C28.875 47.9059 28.6954 47.7254 28.5102 47.5394C28.4898 47.5189 28.4694 47.4984 28.4487 47.4779C28.4246 47.4538 28.4184 47.4123 28.412 47.3705C28.4087 47.3483 28.4053 47.326 28.3993 47.3062C28.3905 47.278 28.3825 47.2493 28.3745 47.2206V47.2205C28.3541 47.1476 28.3337 47.0743 28.3003 47.0075C28.1762 46.7583 28.0947 46.7418 27.8746 46.8921C27.7917 46.9484 27.7108 47.0074 27.6299 47.0663L27.6298 47.0664C27.3927 47.2392 27.156 47.4118 26.8718 47.5138C26.6042 47.6098 26.001 47.7252 25.7769 47.6738C25.6906 47.6544 25.6072 47.6127 25.5306 47.5681C25.3871 47.4837 25.3473 47.3605 25.4336 47.2063C25.5073 47.0735 25.5927 46.9309 25.7091 46.8388C25.8739 46.7088 25.8972 46.5546 25.8739 46.3694C25.7314 46.2239 25.5849 46.0756 25.4501 45.9388C25.2504 45.9078 25.0962 45.9398 24.9701 46.1037C24.876 46.2259 24.7451 46.3258 24.6161 46.4121C24.3388 46.5983 24.0478 46.7244 23.7423 46.4596C23.6685 46.4547 23.5951 46.4444 23.5221 46.4342H23.522C23.2638 46.3981 23.0092 46.3625 22.7522 46.5643C22.5485 46.7244 22.2857 46.8417 21.9822 46.8097C21.7715 46.7875 21.5581 46.7928 21.3444 46.7982H21.3441C21.2499 46.8006 21.1558 46.8029 21.0618 46.8029C20.4538 46.8019 20.1211 46.576 19.9039 46.0125C19.8826 45.9563 19.8739 45.8942 19.869 45.8331C19.837 45.4743 19.6304 45.2687 19.2823 45.2512C19.2338 45.2483 19.1853 45.2464 19.1368 45.2512C18.8643 45.2813 18.6548 45.1649 18.4754 44.9739C18.4459 44.9417 18.4146 44.9109 18.3766 44.8736C18.3586 44.8558 18.339 44.8365 18.3173 44.8148C18.3244 44.7556 18.3206 44.6926 18.3167 44.6287C18.3061 44.4553 18.2951 44.2754 18.5006 44.1457C18.5017 44.0732 18.5037 44.0007 18.5056 43.9281C18.5106 43.7434 18.5155 43.5585 18.5065 43.3747C18.4997 43.2525 18.2921 43.174 18.1573 43.2312C18.1091 43.2515 18.0626 43.2776 18.0163 43.3035C17.9434 43.3444 17.871 43.385 17.7927 43.4028C17.5755 43.4523 17.4601 43.3524 17.4455 43.139C17.4422 43.0948 17.443 43.05 17.4438 43.0051C17.4442 42.9851 17.4445 42.9651 17.4445 42.9451V42.755C17.4052 42.731 17.3676 42.7061 17.3308 42.6816C17.2471 42.626 17.1675 42.573 17.0799 42.5407C17.0383 42.525 16.9938 42.5252 16.9484 42.5255C16.8732 42.5259 16.7957 42.5263 16.725 42.4544C16.5281 42.2527 16.3642 42.0393 16.2381 41.7823C16.1907 41.6846 16.1916 41.5932 16.1924 41.5036C16.1929 41.4429 16.1935 41.383 16.179 41.3226C16.3826 41.2228 16.5494 41.2596 16.6823 41.4361C16.8286 41.631 17.0323 41.7455 17.2361 41.8601C17.3415 41.9194 17.4469 41.9786 17.5444 42.049C17.6424 42.1198 17.752 42.179 17.8906 42.1508C18.0976 42.1078 18.2955 42.159 18.4918 42.2097C18.552 42.2253 18.6121 42.2409 18.6723 42.2536C18.7638 42.2731 18.8466 42.3507 18.9244 42.4238C18.9398 42.4382 18.955 42.4524 18.97 42.466C19.0844 42.5698 19.2105 42.5795 19.2988 42.4689C19.548 42.1596 19.8777 42.1431 20.2356 42.1431C20.6846 42.1431 20.9028 41.8017 20.7864 41.3624C20.7428 41.1985 20.7321 41.0172 20.7467 40.8474C20.7719 40.541 20.7156 40.2598 20.5459 40.0076C20.383 39.7642 20.3258 39.5014 20.3529 39.2143C20.3607 39.1338 20.3636 39.0514 20.352 38.9719C20.3209 38.7479 20.0736 38.614 19.868 38.7071C19.7986 38.7388 19.7277 38.7684 19.6566 38.7981C19.4775 38.8729 19.2979 38.9479 19.1417 39.0562C18.9341 39.2005 18.6998 39.2479 18.466 39.2951C18.3022 39.3283 18.1386 39.3613 17.9847 39.4277C17.9236 39.4548 17.8179 39.4383 17.7587 39.4015C17.5305 39.2565 17.2765 39.2103 17.0213 39.1639C16.9958 39.1593 16.9703 39.1547 16.9448 39.1499C16.9284 39.1469 16.912 39.1438 16.8956 39.1406C16.5485 39.0737 16.3506 38.8429 16.3797 38.5403C16.3865 38.4686 16.4175 38.391 16.4612 38.3338C16.6532 38.0835 16.7414 37.8033 16.7715 37.4891C16.7851 37.346 16.8448 37.2056 16.9034 37.0678C16.9159 37.0384 16.9283 37.0091 16.9402 36.9799C17.0683 36.6657 17.1866 36.3525 17.1555 36.0004C17.1455 35.8872 17.1481 35.7731 17.1507 35.6589C17.1529 35.5629 17.155 35.4668 17.1497 35.3711C17.1371 35.1364 17.2186 34.9492 17.3834 34.7882C17.655 34.5225 17.9352 34.2694 18.2281 34.026C18.4879 33.8102 18.7231 33.5651 18.9658 33.3121L18.9659 33.3119C19.0701 33.2033 19.1757 33.0932 19.2852 32.9834V32.453C19.2126 32.383 19.1431 32.3155 19.0772 32.2515L19.0759 32.2502L19.0736 32.248C19.0175 32.1936 18.9641 32.1418 18.9138 32.0932V31.5772C18.9526 31.5495 18.9981 31.5225 19.0457 31.4942C19.1599 31.4264 19.2864 31.3512 19.3637 31.2417C19.4168 31.1662 19.4782 31.0936 19.5397 31.0207H19.5398C19.7582 30.762 19.9796 30.5 19.8457 30.0944L18.6141 28.8628C18.5852 28.8628 18.551 28.8637 18.5131 28.8647H18.513C18.4124 28.8672 18.2853 28.8705 18.1593 28.8599C18.1027 28.8551 18.0447 28.8601 17.9867 28.865C17.8558 28.8761 17.7247 28.8873 17.6084 28.7872C17.5177 28.709 17.4135 28.6457 17.3092 28.5824C17.0757 28.4405 16.8423 28.2987 16.7618 27.991C16.724 27.847 16.66 27.7093 16.5977 27.5752V27.5751C16.5786 27.534 16.5596 27.4932 16.5417 27.4527C16.3506 27.0192 16.114 26.5819 15.5467 26.5314C15.4984 26.5014 15.4495 26.4725 15.4007 26.4437C15.1118 26.273 14.827 26.1048 14.7175 25.7265C14.638 25.454 14.4101 25.3347 14.1094 25.2571C13.7326 25.1607 13.3622 25.1732 12.9917 25.1857L12.8846 25.1893C12.6548 25.1964 12.4225 25.2842 12.2008 25.368L12.1476 25.3881C11.9391 25.4666 11.7383 25.5762 11.5482 25.6945C11.3378 25.8264 11.1419 26.1232 11.0478 26.5023C10.9615 26.8505 10.8626 27.1715 10.5949 27.4363C10.5057 27.5245 10.3932 27.6942 10.464 27.8571C10.5019 27.9453 10.5618 28.0242 10.6128 28.0913C10.6336 28.1187 10.6529 28.1441 10.6686 28.1675C11.1419 28.2276 11.5628 28.1558 11.9817 28.0841C12.2242 28.0424 12.3735 28.1665 12.4947 28.3459C12.5966 28.4962 12.6926 28.6504 12.7808 28.8095C12.9622 29.1353 13.2434 29.2391 13.5751 29.0927C13.6198 29.0729 13.6636 29.0508 13.7073 29.0287H13.7074C13.7841 28.9899 13.8607 28.9512 13.9417 28.9258C14.0551 28.89 14.1802 28.8735 14.2995 28.8783C14.3442 28.8799 14.3881 28.8989 14.4324 28.9182C14.4726 28.9356 14.513 28.9532 14.5546 28.9579C14.8552 28.9918 15.1423 28.9569 15.3963 28.7687C15.4329 28.7417 15.4758 28.7237 15.5189 28.7055C15.5454 28.6943 15.5719 28.6831 15.5971 28.6698L15.6162 28.6597C15.7628 28.5818 15.918 28.4994 16.0713 28.6165C16.2323 28.7387 16.3846 28.8997 16.37 29.1179C16.3616 29.2374 16.3634 29.3564 16.3653 29.4755C16.3689 29.7137 16.3726 29.9525 16.2944 30.1982C16.1508 30.6482 16.3496 31.0972 16.6134 31.456C16.8084 31.7208 16.8811 31.9739 16.853 32.3172C16.7427 32.4128 16.6354 32.5171 16.5258 32.6236C16.352 32.7925 16.1727 32.9667 15.9675 33.1202C15.4827 33.4819 15.4604 33.8756 15.7998 34.4265C16.0374 34.8115 16.1237 35.1955 16.0752 35.6193C16.0597 35.757 15.9705 35.951 15.8609 36.0024C15.7011 36.0761 15.589 36.1955 15.4754 36.3165C15.3917 36.4056 15.3073 36.4955 15.2024 36.5687C15.2252 36.6457 15.2227 36.7228 15.2201 36.8013C15.2164 36.9167 15.2125 37.0351 15.2887 37.1603C15.387 37.322 15.2439 37.5371 15.1405 37.6925L15.1326 37.7044C15.0634 37.8074 14.9582 37.8868 14.853 37.9662L14.8529 37.9663C14.8047 38.0027 14.7565 38.039 14.7117 38.0777C14.6157 38.1602 14.5216 38.2436 14.4275 38.3279C14.2956 38.4463 14.2888 38.5675 14.4207 38.6935C14.6195 38.8836 14.6535 39.1241 14.6234 39.3947C14.54 39.4752 14.4469 39.5644 14.3383 39.6682C14.3383 39.7091 14.3345 39.7524 14.3307 39.7964C14.3221 39.8953 14.3132 39.9976 14.3461 40.0842C14.477 40.4275 14.7408 40.6797 15.0036 40.9211C15.0463 41.1655 15.0181 41.3866 14.861 41.5845C14.8057 41.6543 14.7602 41.7367 14.7291 41.8201C14.7189 41.8469 14.7076 41.8738 14.6963 41.901C14.6409 42.0332 14.5837 42.1699 14.636 42.3099C14.6683 42.3967 14.7267 42.4732 14.7857 42.5504C14.8118 42.5845 14.8379 42.6188 14.862 42.6542C15.4807 42.5446 15.8628 42.8665 16.2003 43.3214C16.0591 43.5575 15.8528 43.5288 15.65 43.5007C15.6104 43.4952 15.5709 43.4897 15.5321 43.4862C15.5126 43.4843 15.4929 43.4663 15.4739 43.449C15.4543 43.4311 15.4354 43.4139 15.4187 43.4164C15.1999 43.4506 14.9879 43.4089 14.7786 43.3677H14.7785C14.5896 43.3306 14.4028 43.2938 14.2151 43.3136C14.0991 43.19 13.9833 43.0675 13.868 42.9454L13.867 42.9444C13.5971 42.6587 13.3296 42.3756 13.0669 42.0878C12.8894 41.8929 12.8225 41.6504 12.9137 41.4002C13.064 40.989 13.0039 40.6399 12.6761 40.3422C12.4821 40.1657 12.3599 39.9533 12.4016 39.6818C12.4317 39.483 12.3522 39.3181 12.2639 39.1561C11.973 38.6237 11.7781 38.0651 11.8227 37.4503C11.8372 37.2505 11.7635 37.0905 11.683 36.9247C11.6568 36.8704 11.6324 36.8149 11.6079 36.7593V36.7592C11.5536 36.6358 11.4992 36.5122 11.4251 36.4019C11.3164 36.24 11.3019 36.1081 11.3882 35.9277C11.4687 35.7599 11.4813 35.5728 11.3378 35.4002C11.256 35.3012 11.2078 35.1706 11.162 35.0467L11.1593 35.0394C11.1511 35.0173 11.1427 34.9955 11.1343 34.9737C11.0893 34.8564 11.0447 34.7405 11.0333 34.604C10.9993 34.2005 10.8219 34.0134 10.4233 34.0143C9.98008 34.0153 9.6455 33.8417 9.35845 33.5333C8.91138 33.0533 8.47594 32.5664 8.11809 32.0127C8.05224 31.9108 7.95969 31.8271 7.86658 31.7429C7.80199 31.6845 7.73712 31.6259 7.68072 31.5608C7.56046 31.4221 7.4567 31.2689 7.35778 31.1137C7.19776 30.8625 7.22783 30.6152 7.42566 30.4009C7.58277 30.2312 7.67393 30.0469 7.64483 29.8345L7.48965 29.6801L7.48946 29.6799C7.37906 29.5699 7.2754 29.4667 7.18225 29.3749C7.12018 29.0238 7.21619 28.7542 7.35487 28.4933C7.36081 28.4819 7.36285 28.4667 7.36481 28.4521C7.36733 28.4334 7.36972 28.4156 7.38008 28.408C7.46245 28.3515 7.54228 28.29 7.62211 28.2284H7.62213C7.90416 28.011 8.18635 27.7935 8.58165 27.798C8.65185 27.7986 8.72227 27.7966 8.79262 27.7945C8.93314 27.7904 9.07339 27.7864 9.21104 27.8038C9.46513 27.8358 9.64163 27.7456 9.7997 27.5177C9.71533 27.0289 9.65908 26.5111 9.67654 25.9864C9.68042 25.8584 9.63678 25.7052 9.5621 25.6024C9.38995 25.3648 9.23892 25.1149 9.08784 24.8649H9.08783C9.01933 24.7515 8.95083 24.6382 8.88034 24.5259C8.84834 24.4755 8.79306 24.4241 8.73778 24.4076C8.60453 24.3674 8.4832 24.2974 8.36174 24.2272C8.16939 24.1161 7.97674 24.0048 7.73599 24.0119C7.68447 24.0135 7.63 23.9789 7.57764 23.9456H7.57758C7.56294 23.9363 7.54847 23.9271 7.53428 23.9188C7.17546 23.7113 7.13085 23.4039 7.51294 23.1459C7.56355 23.1118 7.62192 23.0899 7.68029 23.068C7.73491 23.0475 7.78954 23.027 7.83782 22.9966L7.86283 22.9806H7.86286C7.9979 22.8944 8.13806 22.805 8.24125 22.6872C8.47788 22.4166 8.4934 22.0966 8.3586 21.7737C8.29556 21.6224 8.21701 21.4721 8.11906 21.3402C7.74763 20.8417 7.76218 20.3064 7.97844 19.7652C7.99674 19.7196 8.01554 19.6744 8.03427 19.6294C8.13163 19.3956 8.2268 19.167 8.23737 18.9002C8.24804 18.6335 8.46624 18.4541 8.66214 18.3076C8.86828 18.1528 9.0831 18.0096 9.29785 17.8664C9.48923 17.7388 9.68056 17.6113 9.86565 17.4756C10.1285 17.2836 10.2759 17.0139 10.2662 16.6736C10.2628 16.5633 10.2636 16.4534 10.2645 16.3412V16.3411C10.2648 16.2906 10.2652 16.2395 10.2652 16.1877C10.3041 16.1635 10.3422 16.1339 10.3798 16.1047C10.4611 16.0416 10.5402 15.9802 10.6211 15.9782C10.9023 15.9705 10.9964 15.7852 11.0818 15.5825C11.1991 15.3052 11.3649 15.0666 11.6219 14.863C11.6219 14.7874 11.6226 14.7106 11.6233 14.633V14.6328C11.6249 14.4454 11.6266 14.2532 11.619 14.0619C11.6113 13.8495 11.6636 13.6653 11.8033 13.5072C12.1573 13.1038 12.0506 12.5927 11.7024 12.3144C11.6555 12.277 11.6099 12.2369 11.5643 12.1969C11.4562 12.102 11.3482 12.0071 11.2233 11.9478C11.1314 11.9039 11.0142 11.9111 10.8984 11.9183C10.8555 11.9209 10.8127 11.9235 10.7714 11.9235C10.759 11.9235 10.7479 11.9382 10.7362 11.9538C10.726 11.9674 10.7152 11.9817 10.7026 11.9875C10.3389 12.1543 10.2797 12.1427 10.0014 11.8721C10.0234 11.5794 10.2065 11.4074 10.3882 11.2367C10.4226 11.2043 10.457 11.172 10.4902 11.139C10.5386 11.0905 10.6069 11.0585 10.6714 11.0281L10.6832 11.0226C11.0129 10.8703 11.3 10.6609 11.5327 10.3825C11.7804 10.0845 12.1392 9.97475 12.4808 9.87022L12.4831 9.86953C12.6863 9.80821 12.8922 9.88196 13.0959 9.95487C13.1596 9.97767 13.223 10.0004 13.2861 10.0189C13.2967 10.0222 13.3073 10.0276 13.3178 10.0331C13.3353 10.0421 13.3526 10.0511 13.3695 10.0499C13.4752 10.0442 13.5605 10.0964 13.644 10.1476C13.7168 10.1921 13.7883 10.2359 13.8709 10.24C14.1468 10.2531 14.4238 10.2505 14.6958 10.2479H14.6959C14.8052 10.2468 14.9137 10.2458 15.021 10.2458L15.171 10.4047L15.4109 10.6589C15.4545 10.8199 15.4051 11.0692 15.2994 11.2912C15.2063 11.487 15.2091 11.6798 15.212 11.8783L15.2121 11.8847C15.215 12.0962 15.2858 12.1825 15.4797 12.1825C15.7617 12.1833 16.0215 12.2641 16.2856 12.3461L16.371 12.3725C16.9053 12.5364 17.2166 12.5229 17.7917 12.3803C17.8507 12.3657 17.9095 12.3665 17.9693 12.3673C18.06 12.3686 18.153 12.3699 18.2524 12.3173C18.4191 12.2294 18.5367 12.106 18.655 11.9818L18.68 11.9555C18.8032 11.8275 18.9332 11.7548 19.1009 11.8004C19.292 11.8527 19.3443 12.0545 19.3667 12.196C19.3788 12.2741 19.3913 12.3522 19.4038 12.4304C19.4254 12.5647 19.4469 12.6993 19.4665 12.8342L19.4724 12.8742C19.5042 13.0882 19.5404 13.3317 19.2959 13.4868C19.2873 13.4924 19.2876 13.5093 19.288 13.5279C19.2884 13.545 19.2888 13.5635 19.2823 13.5761C19.1009 13.932 19.2222 14.1754 19.613 14.22C19.7073 14.2307 19.8027 14.2267 19.8705 14.2238C19.8946 14.2228 19.9153 14.2219 19.9311 14.2219C20.1812 14.2759 20.2117 14.4367 20.2412 14.5924C20.2595 14.6884 20.2773 14.7825 20.3461 14.8484C20.3684 15.214 20.5449 15.4342 20.9144 15.5263C21.0215 15.5525 21.1154 15.6297 21.205 15.7033V15.7034C21.2445 15.7358 21.2832 15.7676 21.3217 15.794C21.2985 16.241 21.3761 16.6251 21.6651 16.9451C21.6826 16.9644 21.6937 16.9907 21.7043 17.0157L21.7077 17.0236C21.7324 17.0846 21.7537 17.148 21.7749 17.2113C21.8212 17.3495 21.8674 17.4873 21.9492 17.5997C22.0261 17.7053 22.1389 17.7846 22.252 17.8641H22.2521C22.3073 17.9029 22.3625 17.9418 22.4137 17.9837C22.725 18.2398 22.7221 18.5937 22.6591 18.9351C22.6335 19.0727 22.581 19.2053 22.5285 19.3378C22.4755 19.4715 22.4226 19.6051 22.3972 19.7439C22.3546 19.9776 22.244 20.1425 22.085 20.2957C22.0462 20.3332 22.0083 20.3715 21.9704 20.4098L21.9703 20.41C21.9513 20.4291 21.9324 20.4483 21.9133 20.4674L21.8822 20.4985C21.5228 20.8575 21.5094 20.8709 21.4236 21.4265C21.3925 21.6292 21.3072 21.7863 21.1569 21.8959C20.9455 22.0501 20.9028 22.2489 20.9435 22.5117C21.2219 22.8375 21.5399 23.1576 21.9686 23.337C21.9897 23.3458 22.0108 23.3552 22.032 23.3647H22.0321C22.15 23.4172 22.2706 23.471 22.4128 23.4398C22.4562 23.4304 22.5024 23.4329 22.5487 23.4354H22.5488C22.5842 23.4373 22.6198 23.4392 22.6542 23.4359C23.0693 23.3952 23.4242 23.4786 23.7123 23.8238C23.7917 23.9191 23.9176 23.976 24.0438 24.033C24.1026 24.0596 24.1614 24.0862 24.2156 24.1167C24.2632 24.1433 24.3103 24.1714 24.3587 24.2003L24.4154 24.234V24.7325C24.2059 24.8663 24.0148 24.9895 23.8451 25.0991V25.6286C23.9074 25.6805 23.9713 25.7311 24.0352 25.7817L24.0353 25.7818C24.1803 25.8966 24.3256 26.0116 24.4542 26.1435C24.5766 26.2687 24.6802 26.4122 24.7769 26.5461C24.8173 26.6021 24.8565 26.6564 24.8954 26.707C25.061 26.7423 25.2284 26.7378 25.3933 26.7334C25.7033 26.725 26.0043 26.7169 26.2677 26.9746C26.2677 27.0009 26.2679 27.0287 26.2682 27.0576C26.2688 27.129 26.2695 27.2072 26.2667 27.2859C26.2599 27.5061 26.3501 27.6991 26.5237 27.8048C26.7329 27.9335 26.9017 28.1016 27.0706 28.2698C27.1357 28.3347 27.2009 28.3996 27.2685 28.4623C27.4634 28.6436 27.6593 28.6339 27.831 28.4167C27.9355 28.2848 28.0329 28.1478 28.1303 28.0107C28.2019 27.91 28.2735 27.8093 28.3479 27.7107C28.5302 27.4683 28.7852 27.4392 29.0432 27.6195C29.0811 27.646 29.1197 27.6714 29.1584 27.6967L29.1585 27.6968C29.2219 27.7383 29.2852 27.7798 29.3448 27.8261C29.691 28.0938 29.722 28.4613 29.6299 28.8463C29.5368 29.2362 29.5494 29.3031 29.8976 29.5475C30.2186 29.7725 30.2428 30.1003 29.9063 30.1963C29.7286 30.2468 29.6181 30.3457 29.5058 30.4461C29.463 30.4844 29.42 30.5229 29.3729 30.559V31.7489C29.3977 31.7725 29.4234 31.7971 29.4497 31.8224L29.4504 31.8231C29.531 31.9005 29.6181 31.9841 29.7085 32.0651L29.7167 32.0724C29.7597 32.1109 29.8106 32.1565 29.8607 32.1611C30.1407 32.1881 30.3109 32.3697 30.4777 32.5477V32.5478C30.4896 32.5605 30.5015 32.5732 30.5134 32.5858C30.5202 32.5929 30.527 32.6001 30.5338 32.6072C30.5444 32.932 30.3699 33.0979 30.0828 33.1289C29.8869 33.1502 29.69 33.1929 29.6008 33.3558C29.5737 33.4053 29.539 33.4529 29.504 33.5009L29.5039 33.501C29.4022 33.6404 29.2976 33.7838 29.369 33.9872C29.3788 34.0145 29.3771 34.0453 29.3744 34.0928C29.3729 34.1212 29.371 34.1555 29.371 34.1986C29.3734 34.2 29.3775 34.202 29.3827 34.2046C29.4064 34.2163 29.4548 34.2404 29.4922 34.2762L29.4973 34.281C29.7696 34.5419 29.7696 34.5419 30.0906 34.3945C30.1736 34.3564 30.224 34.3333 30.2769 34.3192C30.3586 34.2975 30.446 34.2975 30.6686 34.2975C31.039 34.5574 31.0545 34.9298 31.0099 35.3245C30.5939 35.6718 30.4005 36.082 30.1577 36.5972C30.113 36.692 30.0666 36.7904 30.0169 36.8927C29.9418 37.0469 29.9503 37.1997 29.9587 37.3515C29.9641 37.4488 29.9695 37.5457 29.9529 37.6423C30.1393 37.8535 30.0521 38.0549 29.9683 38.2488C29.9374 38.3201 29.907 38.3904 29.8908 38.4598C29.8758 38.5232 29.8519 38.5864 29.828 38.6496C29.7744 38.7912 29.7207 38.933 29.7676 39.0786C29.8483 39.3258 30.0454 39.5009 30.238 39.6719C30.2584 39.6901 30.2789 39.7082 30.2991 39.7264C30.3146 39.7404 30.3386 39.7443 30.3631 39.7483C30.386 39.7521 30.4092 39.7559 30.4261 39.7681C30.5367 39.8495 30.5725 40.0008 30.5047 40.0968C30.4213 40.2132 30.3088 40.2549 30.1749 40.1909C30.0663 40.1395 29.9577 40.0862 29.8598 40.0173C29.7021 39.9069 29.5278 39.8401 29.3522 39.7729L29.352 39.7728C29.304 39.7544 29.2559 39.736 29.2081 39.7167C29.0471 39.6517 28.8735 39.5091 28.8007 39.3559C28.7335 39.2157 28.6489 39.0841 28.5642 38.9524C28.4046 38.7043 28.2448 38.4558 28.2004 38.1485C28.1908 38.0845 28.0763 38.0176 27.9968 37.9856C27.8502 37.9267 27.6997 37.877 27.5491 37.8272L27.5483 37.8269C27.486 37.8064 27.4237 37.7858 27.3616 37.7645C27.3053 37.5485 27.1397 37.4156 26.9817 37.2886C26.9693 37.2787 26.957 37.2688 26.9447 37.2589C26.9329 37.2493 26.9212 37.2397 26.9097 37.2301C26.7409 37.0905 26.5227 37.0013 26.3142 36.9208C26.1445 36.8548 25.9738 36.9411 25.8283 37.0245C25.5374 37.1913 25.2533 37.1409 24.9856 37.0061C24.8246 36.9256 24.6617 36.7957 24.7335 36.5426H25.2591C25.4977 36.1963 25.8439 36.0557 26.224 35.9384C26.739 35.7793 27.2268 35.5437 27.6855 35.2547C27.7815 35.1946 27.8484 35.1063 27.8242 34.9725C27.8148 34.9188 27.817 34.8624 27.8192 34.8048V34.8047C27.8202 34.779 27.8213 34.7531 27.8213 34.7271L27.8201 34.7262C27.6169 34.5577 27.4144 34.39 27.1346 34.5884C26.8911 34.5248 26.7214 34.6529 26.5541 34.7792C26.5122 34.8108 26.4704 34.8423 26.4277 34.8706C26.1542 35.052 25.8807 35.212 25.5326 35.1732C25.47 35.1661 25.4065 35.1687 25.3432 35.1713C25.2768 35.1741 25.2106 35.1768 25.1456 35.1684C24.7579 35.1183 24.4105 35.246 24.0633 35.3736C23.9797 35.4043 23.8962 35.435 23.8122 35.4632C23.7839 35.4725 23.7559 35.4901 23.7285 35.5073H23.7284C23.6871 35.5332 23.6472 35.5582 23.6104 35.5524C23.4346 35.5235 23.3393 35.6225 23.2359 35.73C23.211 35.7559 23.1856 35.7823 23.1585 35.8075C23.1812 35.8788 23.1774 35.9525 23.1735 36.0282C23.1676 36.144 23.1614 36.2649 23.2487 36.3903C23.3612 36.5523 23.2516 36.7016 23.0344 36.8199C22.5553 37.0808 22.5388 37.2127 22.9432 37.6142C23.1304 37.8004 23.3205 37.9681 23.5668 38.0952C23.8005 38.2154 23.9751 38.1582 24.171 38.0777C24.2033 38.0647 24.229 38.0367 24.255 38.0084C24.2735 37.9883 24.2922 37.9679 24.3135 37.9526C24.6404 37.7218 24.7005 37.7267 24.9808 38.005C25.0476 38.0718 25.1117 38.1407 25.1722 38.2055C25.1942 38.2292 25.2158 38.2523 25.2368 38.2746C25.323 38.2746 25.4073 38.2762 25.4902 38.2777H25.4904C25.6762 38.2812 25.855 38.2845 26.032 38.2697C26.2019 38.2556 26.3704 38.2232 26.5407 38.1904L26.5408 38.1903C26.6154 38.176 26.6905 38.1615 26.7661 38.1485C26.7943 38.1795 26.8225 38.2076 26.8497 38.2348C26.9451 38.3302 27.0294 38.4144 27.0648 38.5714C27.0949 38.703 27.2586 38.8155 27.3994 38.9123L27.3996 38.9125C27.4175 38.9248 27.435 38.9368 27.4518 38.9486C27.5982 39.0514 27.6962 39.1755 27.7689 39.3346C27.8407 39.4888 27.8203 39.6061 27.7534 39.77C27.6948 39.9154 27.7073 40.0928 27.7195 40.2648C27.7217 40.2965 27.7239 40.3281 27.7257 40.3592C27.7262 40.3687 27.7267 40.3783 27.7272 40.3878C27.734 40.5332 27.9289 40.6903 28.088 40.6981C28.1091 40.6991 28.1304 40.7002 28.1517 40.7013C28.2603 40.7071 28.3703 40.713 28.4749 40.6952C28.6174 40.6711 28.7464 40.709 28.875 40.7468C28.938 40.7654 29.001 40.7839 29.0655 40.7951C29.2168 40.8213 29.2818 40.9095 29.2759 41.0589C29.2732 41.1267 29.2738 41.1946 29.2744 41.2624V41.2625C29.2746 41.2811 29.2748 41.2997 29.2749 41.3183C29.2749 41.3288 29.275 41.3393 29.275 41.3498C29.2751 41.3765 29.2748 41.4031 29.2746 41.4296C29.2727 41.6513 29.2709 41.8674 29.4631 42.0509C29.6057 42.1867 29.594 42.404 29.5611 42.5863C29.485 42.9968 29.4877 43.0151 29.5464 43.4054L29.5572 43.4775C29.5834 43.6521 29.5611 43.8373 29.5038 44.0303C29.4038 44.3679 29.2594 44.6811 29.1142 44.9959C29.0905 45.0473 29.0667 45.0988 29.0432 45.1504C28.9229 45.4142 28.9685 45.6275 29.1654 45.7778C29.2633 45.8525 29.5601 45.8729 29.6532 45.7924C29.7056 45.7468 29.7608 45.6595 29.754 45.5975C29.7153 45.2125 29.9325 44.9506 30.2157 44.7838C30.463 44.6393 30.5987 44.4386 30.7287 44.2126C30.7433 44.1868 30.7547 44.1587 30.7661 44.1308C30.7834 44.0883 30.8005 44.0462 30.8286 44.0128C31.0138 43.7937 31.0623 43.5435 31.0138 43.2826C30.962 43.224 30.9116 43.1653 30.8614 43.107L30.8613 43.1068C30.7536 42.9816 30.6475 42.8582 30.5338 42.7424C30.2097 42.4109 30.2259 42.0081 30.2421 41.6074V41.6073C30.2448 41.5404 30.2475 41.4735 30.2486 41.407C30.2525 41.1937 30.5008 41.088 30.7267 41.1258C30.9711 41.1665 31.2359 41.2063 31.4696 41.1529C31.7053 41.0986 31.8953 41.0928 32.1339 41.1626C32.3112 41.2143 32.5066 41.2035 32.702 41.1928C32.7856 41.1883 32.8692 41.1837 32.9514 41.184L32.9909 41.1839C33.1488 41.1833 33.2898 41.1828 33.3587 41.4031C33.3692 41.4362 33.3827 41.4676 33.3958 41.498C33.4433 41.6086 33.4849 41.7053 33.351 41.8134C33.3466 41.8172 33.3472 41.8266 33.3478 41.8369C33.3483 41.8448 33.3488 41.8532 33.3471 41.8599C33.1996 42.4216 33.2069 42.4261 33.4896 42.6014L33.4897 42.6015C33.5471 42.6371 33.616 42.6798 33.6972 42.7356C33.7827 42.7944 33.8713 42.8491 33.96 42.9039H33.9601L33.9602 42.904C34.0265 42.9449 34.0928 42.9858 34.1579 43.0285C34.2876 43.1134 34.4153 43.201 34.5369 43.2844L34.6049 43.3311V44.3581C34.626 44.3771 34.6471 44.4003 34.669 44.4244C34.7199 44.4803 34.7751 44.5409 34.8435 44.5646C35.2194 44.6894 35.2006 44.9875 35.1825 45.2755L35.179 45.3317ZM45.9165 23.8907C45.8021 24.1448 45.5238 24.235 45.2706 24.3L45.1999 24.3178C44.8521 24.4052 44.8325 24.4102 44.5617 24.6782C44.2087 24.7626 43.9915 24.6151 43.8567 24.298C43.8101 24.1875 43.7335 24.0856 43.653 23.9954C43.5373 23.8653 43.4181 23.7379 43.299 23.6105C43.0817 23.3782 42.8644 23.146 42.6677 22.8967C42.6516 22.8762 42.6357 22.8558 42.62 22.8356C42.4566 22.6256 42.306 22.4319 42.0238 22.3487C41.9264 22.3199 41.8469 22.229 41.7764 22.1483C41.7473 22.115 41.7198 22.0835 41.6931 22.0588C41.6708 21.762 41.6834 21.5196 41.8269 21.2956C41.871 21.227 41.8743 21.1249 41.8771 21.0367L41.8774 21.0279C41.8821 20.8817 41.8812 20.735 41.8802 20.5783C41.8797 20.5105 41.8793 20.4408 41.8793 20.3684C41.8075 20.3122 41.7193 20.2424 41.5893 20.1396C41.6078 20.1405 41.5612 20.1347 41.5147 20.1347C41.3726 20.1345 41.2305 20.1327 41.0884 20.1309H41.088C40.729 20.1265 40.3702 20.1221 40.0125 20.1415C39.8164 20.152 39.644 20.0895 39.4716 20.0269C39.3583 19.9858 39.2451 19.9447 39.1251 19.9243C39.0388 19.9097 38.9665 19.8123 38.8925 19.7124C38.8584 19.6665 38.824 19.6201 38.7876 19.581C38.6991 19.1725 38.8397 18.7838 38.9799 18.3959L39.0155 18.297C39.0941 18.0759 39.1251 17.8683 38.9127 17.7054C38.8555 17.6618 38.7799 17.6288 38.7091 17.6162C38.262 17.5328 37.8518 17.3776 37.5521 17.0169C37.4266 16.8655 37.2571 16.7905 37.0903 16.7168C37.0637 16.705 37.0372 16.6933 37.011 16.6813C36.7627 16.5678 36.5212 16.6483 36.3253 16.821C35.9946 17.1119 35.7066 17.4416 35.5 17.8354C35.4711 17.8906 35.4431 17.9467 35.4152 18.0028L35.4151 18.0029C35.3355 18.1628 35.2557 18.3231 35.1509 18.4638C35.0957 18.5376 35.0152 18.5911 34.9339 18.6451C34.871 18.6868 34.8077 18.7289 34.7552 18.7809C34.5303 19.003 34.2936 19.2076 34.0405 19.3987C33.5585 19.7614 33.029 19.965 32.4229 19.9388C32.3056 19.934 32.1834 19.8942 32.0767 19.8428C31.7799 19.7003 31.4822 19.5567 31.199 19.388C31.0283 19.2862 30.8325 19.1678 30.7423 19.0049C30.6472 18.8333 30.5464 18.6655 30.4377 18.5026C30.4196 18.4753 30.4 18.4483 30.3804 18.4213C30.3274 18.3485 30.2741 18.2753 30.2486 18.1932C30.2141 18.0809 30.1959 17.9634 30.1776 17.8455H30.1775C30.1675 17.7811 30.1575 17.7167 30.1449 17.653C30.1341 17.5982 30.1207 17.5437 30.1073 17.4891C30.0844 17.3959 30.0616 17.3027 30.0518 17.2079C30.04 17.0941 30.043 16.9788 30.0457 16.8746C30.0468 16.8323 30.0479 16.7918 30.0479 16.754C29.852 16.5581 29.6716 16.3778 29.4563 16.1634C29.4269 16.1626 29.3964 16.161 29.3649 16.1594H29.3648C29.1502 16.1485 28.8931 16.1355 28.6698 16.3215C28.6388 16.3477 28.5806 16.3574 28.5389 16.3516C28.3047 16.3154 28.0778 16.3568 27.8508 16.3982C27.7065 16.4246 27.5621 16.4509 27.4159 16.4573C27.2557 16.4641 27.0964 16.5021 26.9492 16.5372C26.887 16.552 26.827 16.5663 26.77 16.5775C26.3918 16.3351 26.3278 16.0122 26.3714 15.6194L26.2184 15.5121L26.0495 15.3934H25.6451C25.4996 15.4953 25.3764 15.6116 25.3852 15.8415C25.3919 16.0306 25.4598 16.1537 25.5684 16.305C25.6464 16.4143 25.7177 16.5282 25.7892 16.6421V16.6422C25.9035 16.8246 26.018 17.0073 26.16 17.172C26.3802 17.428 26.642 17.5628 26.9872 17.5202C27.0731 17.5097 27.1607 17.5121 27.2585 17.5147C27.3054 17.5159 27.3547 17.5173 27.4072 17.5173C27.4246 17.4904 27.4427 17.4623 27.4613 17.4334L27.4614 17.4333V17.4332C27.5118 17.3548 27.5661 17.2704 27.6234 17.1875C27.7611 16.9887 27.9405 16.8821 28.1917 16.9344C28.3149 16.9596 28.3779 17.0275 28.4002 17.1526C28.4448 17.4048 28.343 17.5764 28.1364 17.7122C27.7068 17.9944 27.6884 18.0545 27.8038 18.5249C27.8179 18.5827 27.8172 18.6446 27.8166 18.706C27.8164 18.7249 27.8162 18.7438 27.8164 18.7625C27.8213 19.1203 27.799 19.1417 27.4333 19.164L26.7768 18.5074C26.7434 18.5029 26.718 18.4996 26.6977 18.497C26.6616 18.4924 26.6419 18.4898 26.6226 18.4861C26.2308 18.4221 25.936 18.5928 25.6548 18.8459C25.5362 18.9523 25.4051 19.0446 25.2739 19.1369H25.2738C25.1528 19.2221 25.0318 19.3072 24.9206 19.4035C24.7829 19.5228 24.6685 19.6809 24.5783 19.8409C24.4464 20.0746 24.3174 20.317 24.2418 20.5721C24.202 20.705 24.2069 20.8669 24.2844 21.0308C24.3863 21.2471 24.4522 21.4905 24.428 21.7485C24.4147 21.8915 24.4176 22.036 24.4204 22.1804V22.1805C24.4224 22.2788 24.4243 22.377 24.4212 22.4748C24.4134 22.725 24.1613 22.8501 23.9508 22.7163C23.7889 22.6135 23.6686 22.3856 23.7511 22.2236C23.9367 21.8569 23.8311 21.52 23.7229 21.1745L23.7016 21.1065C23.6844 21.0504 23.6669 20.9944 23.6494 20.9385L23.6492 20.9379C23.4889 20.4246 23.3288 19.9121 23.3515 19.3579C23.3719 18.873 23.5455 18.4648 23.8713 18.1176C24.0457 17.932 24.2277 17.7529 24.4078 17.5757V17.5756C24.4781 17.5065 24.548 17.4377 24.6171 17.3689C24.6171 17.3351 24.618 17.3022 24.6188 17.27C24.6207 17.2004 24.6224 17.1339 24.6151 17.0683C24.5977 16.9141 24.4231 16.7453 24.2709 16.7405C23.9828 16.7308 23.7278 16.8074 23.5106 17.0149C23.4221 17.0994 23.3208 17.1702 23.2118 17.2465C23.1594 17.2831 23.1053 17.3209 23.0499 17.3621C23.01 17.3164 22.9701 17.273 22.9311 17.2306C22.7872 17.0741 22.6545 16.9297 22.5699 16.723C22.3526 16.1945 22.0724 15.695 21.6078 15.3265C21.4488 15.2004 21.3431 15.0385 21.3111 14.8184C21.2888 14.6612 21.2209 14.4896 21.12 14.3693C20.9016 14.1099 20.7864 13.8035 20.6713 13.4973C20.6121 13.34 20.553 13.1827 20.48 13.032C20.4092 12.8865 20.3801 12.7052 20.3646 12.552C20.3306 12.2038 20.1764 11.909 20.0174 11.6258C19.8932 11.4057 19.8496 11.2001 19.8719 10.9596C20.0998 10.8422 20.2492 10.9567 20.4053 11.1176C20.4478 11.1615 20.49 11.2059 20.5322 11.2502C20.7631 11.4927 20.9941 11.7355 21.2868 11.9109C21.4672 12.0186 21.7591 12.0011 21.9473 11.9032C22.1722 11.7849 22.2586 11.5783 22.2799 11.3698C22.3129 11.0478 22.3294 10.721 22.0656 10.4417C21.9211 10.2894 21.9589 10.0499 22.0471 9.86371L22.0771 9.80065C22.182 9.58097 22.1926 9.55867 22.1926 9.22268C22.1367 9.18104 22.0861 9.13197 22.0342 9.08175C21.9484 8.99862 21.8593 8.91231 21.7378 8.85125C21.5652 8.76397 21.4187 8.59135 21.3567 8.38866C21.2752 8.12003 21.0618 8.0056 20.8301 7.92122C20.4703 7.78933 20.3112 7.60701 20.4606 7.29474C20.614 6.9743 20.506 6.73703 20.3935 6.48978C20.3453 6.38383 20.2963 6.27606 20.2666 6.15912C20.1562 6.1809 20.0525 6.17889 19.9519 6.17694C19.7972 6.17395 19.6496 6.17109 19.4956 6.25513C19.3741 6.32142 19.198 6.29973 19.0331 6.27942V6.27941C18.9953 6.27477 18.9582 6.2702 18.9225 6.26677C18.5152 6.22797 18.1486 6.35502 17.8538 6.60425C17.6792 6.75166 17.5076 6.78851 17.3311 6.74681C16.7948 6.62171 16.4049 6.34144 16.4815 5.84782C16.5145 5.6364 16.6483 5.42887 16.7754 5.24655C16.8644 5.11939 16.998 5.03949 17.1312 4.95988C17.2113 4.91198 17.2912 4.86419 17.3611 4.80627C17.5251 4.6699 17.6701 4.71873 17.8132 4.76695C17.896 4.79485 17.9783 4.82256 18.0633 4.81402C18.264 5.03999 18.4938 4.89743 18.65 4.79366C18.8168 4.6831 19.0098 4.55024 19.003 4.26609C18.9981 4.02074 19.2338 3.85587 19.4869 3.84424C19.6622 3.83576 19.8373 3.82664 20.0125 3.81753C20.5187 3.79119 21.0247 3.76485 21.5312 3.75405C21.7164 3.75017 21.8716 3.68907 21.9977 3.59112C22.3051 3.35255 22.6261 3.2003 23.0082 3.27012L23.2749 3.53681C23.1032 3.77247 23.0237 4.04886 23.0771 4.39411C23.1063 4.42077 23.1363 4.45333 23.168 4.48763C23.2445 4.57059 23.3305 4.66372 23.4369 4.70832C23.7928 4.85767 24.1021 4.82857 24.46 4.56576C25.004 4.16718 25.6014 3.79769 26.3365 3.8423L26.3682 3.84423C26.5192 3.85348 26.6736 3.86295 26.8204 3.83939C27.2404 3.77344 27.6225 3.91212 27.9861 4.07408C28.2709 4.20062 28.5609 4.26468 28.859 4.33048L28.8968 4.33883C28.9512 4.35104 29.0065 4.36141 29.0619 4.37183C29.2266 4.40276 29.3935 4.43408 29.5494 4.51533C29.7327 4.61134 29.948 4.71123 30.1439 4.70153C30.2837 4.69469 30.4142 4.72653 30.5433 4.75806C30.6704 4.78907 30.7962 4.81979 30.9285 4.81306C31.0469 4.80679 31.1379 4.86414 31.2287 4.92146C31.2785 4.95281 31.3281 4.98416 31.3823 5.00507C31.7062 5.12824 31.9593 5.34159 32.2202 5.56561C32.3082 5.64101 32.3951 5.71853 32.482 5.79617V5.7962C32.8759 6.14793 33.2724 6.50196 33.7952 6.67117C33.9783 6.82669 34.1917 6.9316 34.4052 7.03657C34.6271 7.14564 34.8492 7.25477 35.0374 7.42081C35.0814 7.45952 35.1442 7.47553 35.208 7.49179C35.2497 7.50242 35.2918 7.51315 35.3294 7.5304C35.8259 7.7583 35.9297 7.89795 36.2603 8.43327L36.3108 8.51468V8.51473C36.5529 8.90565 36.7979 9.30124 37.1361 9.62223C37.3543 9.82955 37.5744 10.0345 37.7945 10.2394L37.795 10.2399L37.7951 10.24C38.0649 10.4911 38.3346 10.7422 38.6004 10.9974C38.7013 11.0942 38.782 11.2125 38.8622 11.33C38.8783 11.3537 38.8945 11.3774 38.9108 11.4008C39.2192 11.8411 39.2318 11.9652 39.0737 12.52C39.0567 12.5802 39.0609 12.6466 39.0654 12.7183C39.0676 12.7528 39.0698 12.7886 39.0698 12.8254C39.2226 12.9776 39.3759 13.1311 39.5299 13.2853L39.5301 13.2855C39.9069 13.6627 40.2877 14.0439 40.6739 14.4198C40.7806 14.5238 40.8971 14.618 41.0136 14.7122C41.1046 14.7858 41.1956 14.8594 41.2819 14.9376C41.5808 15.2088 41.792 15.5446 42.0033 15.8805V15.8806C42.095 16.0264 42.1867 16.1722 42.2856 16.3128C42.5201 16.6467 42.6808 17.0135 42.8414 17.3801V17.3802C42.9332 17.5897 43.0249 17.7991 43.1303 18.0022C43.3349 18.3959 43.6172 18.6665 44.0157 18.8265C44.0809 18.8525 44.1544 18.8589 44.2279 18.8653C44.2639 18.8684 44.2998 18.8715 44.3348 18.8769C44.3758 18.8831 44.4178 18.8809 44.4598 18.8786C44.5559 18.8735 44.6522 18.8684 44.7373 18.9642C44.8527 19.0941 44.969 19.2328 44.9739 19.3977C44.9816 19.6586 45.1097 19.8351 45.2813 20.0009C45.3081 20.0265 45.3337 20.0536 45.3593 20.0806C45.4005 20.1242 45.4418 20.1678 45.4879 20.2055C45.8292 20.4819 46.0319 20.8165 45.9514 21.2752C46.082 21.73 46.066 22.192 46.0501 22.6534V22.6536C46.0435 22.8436 46.037 23.0334 46.0407 23.2225C46.0474 23.4436 46.0077 23.688 45.9165 23.8907ZM62.2 6.47884C60.5609 8.22843 59.7413 10.5305 59.7413 13.3851C59.7413 16.2581 60.5609 18.5694 62.2 20.319C63.839 22.0686 66.0398 22.9433 68.8023 22.9433C71.5464 22.9433 73.738 22.0686 75.3771 20.319C77.0346 18.551 77.8633 16.2397 77.8633 13.3851C77.8633 10.5121 77.0438 8.2008 75.4047 6.45122C73.7656 4.70163 71.5648 3.82684 68.8023 3.82684C66.0583 3.82684 63.8575 4.71084 62.2 6.47884ZM64.2995 13.3851C64.2995 11.6355 64.7046 10.2543 65.515 9.24134C66.3253 8.21001 67.4211 7.69434 68.8023 7.69434C70.1836 7.69434 71.2794 8.21001 72.0897 9.24134C72.9 10.2543 73.3052 11.6355 73.3052 13.3851C73.3052 15.1347 72.9 16.5251 72.0897 17.5565C71.2794 18.5694 70.1836 19.0758 68.8023 19.0758C67.4211 19.0758 66.3253 18.5694 65.515 17.5565C64.7046 16.5251 64.2995 15.1347 64.2995 13.3851ZM80.773 4.13072V22.75H85.0273V15.0426C85.0273 12.851 84.8891 10.9265 84.6129 9.26897L84.8339 9.95959C84.9996 10.42 85.3035 11.1383 85.7455 12.1143C86.2059 13.072 86.7308 14.0481 87.3201 15.0426L91.7678 22.75H96.4364V4.13072H92.1821V11.8381C92.1821 14.2507 92.2742 16.1384 92.4584 17.5012L92.2374 16.8935C92.1085 16.5067 91.8138 15.8437 91.3534 14.9045C90.9114 13.9468 90.3865 12.9247 89.7788 11.8381L85.4417 4.13072H80.773ZM104.317 19.3521H111.61V22.75H100.035V4.13072H111.499V7.52859H104.317V11.7552H110.726V15.1255H104.317V19.3521ZM127.631 13.3575H126.222V7.52859H127.879C129.961 7.52859 131.001 8.44943 131.001 10.2911C131.001 12.3353 129.878 13.3575 127.631 13.3575ZM128.377 4.13072H121.968V22.75H126.222V16.7277H128.377C130.329 16.7277 131.968 16.166 133.294 15.0426C134.638 13.9192 135.311 12.3353 135.311 10.2911C135.311 8.50468 134.666 7.03134 133.377 5.87109C132.106 4.71084 130.439 4.13072 128.377 4.13072ZM141.788 19.0206H148.667V22.75H137.534V4.13072H141.788V19.0206ZM160.747 14.8492L160.94 15.5122H156.465L156.658 14.8492C157.874 10.7791 158.555 8.23764 158.702 7.22472L158.813 7.77722C158.886 8.14555 159.089 8.96509 159.421 10.2358C159.77 11.5066 160.212 13.0444 160.747 14.8492ZM161.962 18.9377L163.095 22.75H167.653L161.437 4.13072H156.078L149.862 22.75H154.31L155.443 18.9377H161.962ZM170.096 22.75V4.13072H174.764L179.101 11.8381C179.709 12.9247 180.234 13.9468 180.676 14.9045C181.136 15.8437 181.431 16.5067 181.56 16.8935L181.781 17.5012C181.597 16.1384 181.505 14.2507 181.505 11.8381V4.13072H185.759V22.75H181.09L176.643 15.0426C176.053 14.0481 175.529 13.072 175.068 12.1143C174.626 11.1383 174.322 10.42 174.157 9.95959L173.936 9.26897C174.212 10.9265 174.35 12.851 174.35 15.0426V22.75H170.096ZM200.932 19.3521H193.639V15.1255H200.048V11.7552H193.639V7.52859H200.822V4.13072H189.358V22.75H200.932V19.3521ZM216.788 4.13072V7.55622H212.257V22.75H207.975V7.55622H203.417V4.13072H216.788ZM67.0348 42.9487H62.111V38.87H66.3685V37.9437H62.111V33.8487H66.9373V32.9225H61.1035V43.875H67.0348V42.9487ZM70.0773 42.9487H72.2711C73.0186 42.9487 73.6794 42.8187 74.2536 42.5587C74.8277 42.2987 75.2827 41.9466 75.6186 41.5025C75.9544 41.0583 76.2036 40.5708 76.3661 40.04C76.5394 39.5091 76.6261 38.9404 76.6261 38.3337C76.6261 37.0879 76.209 36.0316 75.3748 35.165C74.5515 34.2875 73.4898 33.8487 72.1898 33.8487H70.0773V42.9487ZM69.0698 32.9225H72.1898C73.7932 32.9225 75.1094 33.4208 76.1386 34.4175C77.1677 35.4141 77.6823 36.7196 77.6823 38.3337C77.6823 39.3196 77.4927 40.2241 77.1136 41.0475C76.7344 41.86 76.1223 42.5371 75.2773 43.0787C74.4432 43.6096 73.4411 43.875 72.2711 43.875H69.0698V32.9225ZM86.4943 32.9225V39.7637C86.4943 41.9412 85.5247 43.03 83.5855 43.03C82.708 43.03 82.0093 42.7754 81.4893 42.2662C80.9801 41.7462 80.7255 40.9391 80.7255 39.845V32.9225H79.718V39.8612C79.718 41.2154 80.0538 42.2446 80.7255 42.9487C81.408 43.6529 82.3613 44.005 83.5855 44.005C84.8313 44.005 85.7955 43.6475 86.478 42.9325C87.1605 42.2066 87.5018 41.1396 87.5018 39.7312V32.9225H86.4943ZM97.8477 33.3612V34.4175C97.371 34.1683 96.9485 33.995 96.5802 33.8975C96.2118 33.7891 95.7027 33.735 95.0527 33.735C93.796 33.735 92.7452 34.1629 91.9002 35.0187C91.066 35.8637 90.6489 36.9687 90.6489 38.3337C90.6489 39.7637 91.0606 40.9066 91.8839 41.7625C92.7181 42.6183 93.8231 43.0462 95.1989 43.0462C96.2714 43.0462 97.1652 42.7646 97.8802 42.2012V43.3062C97.2193 43.7721 96.3093 44.005 95.1502 44.005C93.4927 44.005 92.1548 43.5012 91.1364 42.4937C90.1181 41.4862 89.6089 40.0996 89.6089 38.3337C89.6089 36.6871 90.1343 35.3491 91.1852 34.32C92.236 33.2908 93.536 32.7762 95.0852 32.7762C96.1577 32.7762 97.0785 32.9712 97.8477 33.3612ZM105.837 39.9425H101.595L101.839 39.26C102.966 36.0316 103.6 34.2008 103.74 33.7675L105.593 39.2437L105.837 39.9425ZM106.129 40.8362L107.169 43.875H108.258L104.472 32.9225H103.009L99.1417 43.875H100.23L101.287 40.8362H106.129ZM116.183 32.9225V33.8487H113.145V43.875H112.137V33.8487H109.115V32.9225H116.183ZM117.806 32.9225V43.875H118.813V32.9225H117.806ZM121.014 38.35C121.014 36.6275 121.442 35.2571 122.298 34.2387C123.164 33.2096 124.334 32.695 125.808 32.695C127.324 32.695 128.505 33.2041 129.35 34.2225C130.195 35.23 130.618 36.6058 130.618 38.35C130.618 40.0833 130.19 41.4591 129.334 42.4775C128.478 43.4958 127.314 44.005 125.84 44.005C124.389 44.005 123.219 43.4904 122.33 42.4612C121.453 41.4321 121.014 40.0616 121.014 38.35ZM122.054 38.35C122.054 39.7908 122.395 40.9337 123.078 41.7787C123.771 42.6129 124.692 43.03 125.84 43.03C127.032 43.03 127.953 42.6183 128.603 41.795C129.253 40.9608 129.578 39.8125 129.578 38.35C129.578 36.8766 129.247 35.7283 128.586 34.905C127.936 34.0816 127.01 33.67 125.808 33.67C124.638 33.67 123.717 34.0871 123.045 34.9212C122.384 35.7446 122.054 36.8875 122.054 38.35ZM132.737 32.9225V43.875H133.744V39.2437C133.744 36.9904 133.733 35.2787 133.712 34.1087L136.816 39.2762L139.594 43.875H140.976V32.9225H139.968V37.57C139.968 39.8558 139.979 41.5621 140.001 42.6887L136.913 37.5537L134.118 32.9225H132.737ZM147.511 43.875V32.9225H148.892L151.687 37.5537L154.775 42.6887C154.753 41.5621 154.742 39.8558 154.742 37.57V32.9225H155.75V43.875H154.368L151.59 39.2762L148.486 34.1087C148.508 35.2787 148.518 36.9904 148.518 39.2437V43.875H147.511ZM164.281 42.9487H159.357V38.87H163.615V37.9437H159.357V33.8487H164.183V32.9225H158.35V43.875H164.281V42.9487ZM172.328 32.9225V33.8487H169.29V43.875H168.282V33.8487H165.26V32.9225H172.328ZM180.776 33.085H179.59L178.452 36.985C178.062 38.3066 177.504 40.2621 176.778 42.8512L175.3 36.985L174.276 32.9225H173.22L176.063 43.875H177.445L178.468 40.4137C179.216 37.9004 179.795 35.8962 180.207 34.4012L182.06 40.4137L183.148 43.875H184.53L187.016 32.9225H186.008L185.098 37.0175C184.838 38.1766 184.41 40.1429 183.815 42.9162L181.995 37.0012L180.776 33.085ZM188.474 38.35C188.474 36.6275 188.902 35.2571 189.757 34.2387C190.624 33.2096 191.794 32.695 193.267 32.695C194.784 32.695 195.965 33.2041 196.81 34.2225C197.655 35.23 198.077 36.6058 198.077 38.35C198.077 40.0833 197.65 41.4591 196.794 42.4775C195.938 43.4958 194.773 44.005 193.3 44.005C191.848 44.005 190.678 43.4904 189.79 42.4612C188.912 41.4321 188.474 40.0616 188.474 38.35ZM189.514 38.35C189.514 39.7908 189.855 40.9337 190.537 41.7787C191.231 42.6129 192.152 43.03 193.3 43.03C194.492 43.03 195.412 42.6183 196.062 41.795C196.712 40.9608 197.037 39.8125 197.037 38.35C197.037 36.8766 196.707 35.7283 196.046 34.905C195.396 34.0816 194.47 33.67 193.267 33.67C192.097 33.67 191.177 34.0871 190.505 34.9212C189.844 35.7446 189.514 36.8875 189.514 38.35ZM202.975 38.5287H201.204V33.8162H202.78C204.579 33.8162 205.478 34.6125 205.478 36.205C205.478 36.8658 205.261 37.4183 204.828 37.8625C204.394 38.3066 203.777 38.5287 202.975 38.5287ZM205.917 43.875H207.119L204.21 39.2437C204.925 39.0487 205.478 38.6858 205.868 38.155C206.258 37.6241 206.464 36.9904 206.485 36.2537C206.485 35.1921 206.166 34.3741 205.527 33.8C204.898 33.215 203.945 32.9225 202.667 32.9225H200.197V43.875H201.204V39.4225H202.862H203.17L205.917 43.875ZM208.829 43.875V32.9225H209.837V43.875H208.829ZM211.413 38.48L215.963 43.875H214.631L210.129 38.48L214.468 32.9225H215.736L211.413 38.48ZM20.2199 22.3387C20.157 22.3471 20.093 22.345 20.0287 22.3429C19.9996 22.3419 19.9705 22.3409 19.9414 22.3409C19.3712 22.3398 19.369 22.3398 19.34 21.7937C19.3278 21.5686 19.2086 21.4075 19.0716 21.2398C18.9732 21.1198 18.8589 21.1232 18.7337 21.1269C18.6873 21.1283 18.6395 21.1298 18.5904 21.125C18.5193 21.2594 18.4489 21.3895 18.38 21.517C18.2275 21.7989 18.0819 22.0682 17.95 22.3432C17.7841 22.6874 17.9066 23.1089 18.2006 23.2182C18.3512 23.2744 18.5163 23.2972 18.6794 23.3198C18.7081 23.3237 18.7368 23.3277 18.7653 23.3318C18.8185 23.3396 18.8779 23.3372 18.9363 23.3347C19.0344 23.3306 19.1301 23.3266 19.1908 23.3715C19.2991 23.4515 19.4082 23.4441 19.5147 23.4369C19.5845 23.4322 19.6532 23.4276 19.7198 23.4477L19.7404 23.4539C19.919 23.508 20.0915 23.5603 20.2867 23.5624C20.5752 23.5657 20.799 23.473 21.0106 23.2855C21.1368 23.1741 21.1275 23.0483 21.1185 22.9269C21.1137 22.8618 21.109 22.7979 21.1254 22.7382C20.8826 22.4491 20.5986 22.2891 20.2199 22.3387ZM26.7443 33.8128L26.7442 33.8127C26.6067 33.7608 26.4692 33.7088 26.3305 33.6616C25.9773 33.5407 25.8881 33.1581 26.1579 32.8836C26.6151 32.4184 27.1398 32.3719 27.7136 32.7684C27.88 32.8835 28.0362 33.0139 28.1978 33.1487C28.2714 33.2102 28.3461 33.2726 28.4234 33.3348C28.4234 33.3639 28.424 33.3843 28.4245 33.3996V33.3997C28.4251 33.4209 28.4254 33.4322 28.4234 33.443C28.4104 33.5125 28.4189 33.5922 28.4274 33.6715C28.4449 33.8364 28.4622 33.9996 28.2863 34.0664C28.0611 34.1513 27.7708 34.135 27.5296 34.0745C27.2623 34.0084 27.0033 33.9106 26.7443 33.8128ZM218.6 34.2607V33.6797H218.805C219.002 33.6797 219.1 33.7751 219.1 33.9658C219.1 34.1624 219.011 34.2607 218.832 34.2607H218.6ZM218.761 33.3759H218.233V35.2349H218.6V34.5556H218.788L219.19 35.2349H219.619L219.154 34.4841C219.363 34.3947 219.467 34.222 219.467 33.9658C219.467 33.5725 219.231 33.3759 218.761 33.3759ZM219.878 35.4404C219.61 35.7086 219.255 35.8426 218.814 35.8426C218.367 35.8426 218.01 35.7086 217.742 35.4404C217.474 35.1664 217.34 34.8089 217.34 34.3679C217.34 33.927 217.474 33.5695 217.742 33.2954C218.01 33.0214 218.367 32.8843 218.814 32.8843C219.255 32.8843 219.61 33.0214 219.878 33.2954C220.152 33.5695 220.289 33.927 220.289 34.3679C220.289 34.8089 220.152 35.1664 219.878 35.4404ZM218.805 32.5C218.263 32.5 217.816 32.6758 217.465 33.0273C217.113 33.3789 216.938 33.8257 216.938 34.3679C216.938 34.9101 217.113 35.357 217.465 35.7086C217.816 36.0541 218.263 36.2269 218.805 36.2269C219.348 36.2269 219.795 36.0541 220.146 35.7086C220.498 35.357 220.673 34.9101 220.673 34.3679C220.673 33.8257 220.498 33.3789 220.146 33.0273C219.795 32.6758 219.348 32.5 218.805 32.5Z" fill="white"/>
</svg>
