<svg width="222" height="52" viewBox="0 0 222 52" fill="none" xmlns="http://www.w3.org/2000/svg">
<g clip-path="url(#clip0)">
<path fill-rule="evenodd" clip-rule="evenodd" d="M26.1299 0C11.7703 0 0.129883 11.6404 0.129883 26C0.129883 40.3596 11.7703 52 26.1299 52C40.4895 52 52.1299 40.3596 52.1299 26C52.1299 11.6404 40.4895 0 26.1299 0ZM35.3089 45.3317C35.3055 45.3836 35.2416 45.4326 35.1783 45.4811C35.1517 45.5015 35.1252 45.5218 35.1033 45.5422C35.096 45.5487 35.0793 45.5463 35.0643 45.5443L35.0558 45.5432C34.5564 45.4869 34.183 45.7129 33.8659 46.0794V46.6652C33.903 46.6989 33.942 46.7348 33.9854 46.7747C34.0294 46.8152 34.0779 46.8598 34.1336 46.9106H34.8076C34.8097 46.9192 34.8123 46.9277 34.8149 46.9359C34.8172 46.9429 34.8195 46.9496 34.8218 46.9561C34.8311 46.983 34.8385 47.0044 34.8308 47.0134C34.6146 47.2723 34.0628 47.6534 33.767 47.667C33.5216 47.678 33.3276 47.7895 33.1347 47.9004C33.0561 47.9455 32.9777 47.9906 32.8961 48.0287C32.8019 48.073 32.7096 48.1266 32.6171 48.1803L32.6169 48.1804C32.5657 48.2101 32.5144 48.2399 32.4626 48.2683C32.313 48.3491 32.18 48.4597 32.037 48.5788H32.0369C31.9722 48.6326 31.9055 48.6882 31.8342 48.7435C31.755 48.7435 31.672 48.7426 31.5861 48.7417H31.586C31.3732 48.7394 31.1433 48.737 30.9139 48.7473C30.7267 48.7561 30.5638 48.6872 30.4552 48.5718C30.1351 48.2314 29.7152 48.0869 29.2924 47.9793C29.0049 47.9059 28.8253 47.7254 28.6401 47.5394C28.6197 47.5189 28.5993 47.4984 28.5786 47.4779C28.5545 47.4538 28.5483 47.4123 28.5419 47.3705C28.5386 47.3483 28.5352 47.326 28.5292 47.3062C28.5204 47.278 28.5124 47.2493 28.5044 47.2206V47.2205C28.484 47.1476 28.4636 47.0743 28.4302 47.0075C28.3061 46.7583 28.2246 46.7418 28.0045 46.8921C27.9216 46.9484 27.8407 47.0074 27.7598 47.0663L27.7597 47.0664C27.5226 47.2392 27.2859 47.4118 27.0017 47.5138C26.7341 47.6098 26.1309 47.7252 25.9068 47.6738C25.8205 47.6544 25.7371 47.6127 25.6605 47.5681C25.517 47.4837 25.4772 47.3605 25.5635 47.2063C25.6372 47.0735 25.7226 46.9309 25.839 46.8388C26.0038 46.7088 26.0271 46.5546 26.0038 46.3694C25.8613 46.2239 25.7148 46.0756 25.58 45.9388C25.3803 45.9078 25.2261 45.9398 25.1 46.1037C25.0059 46.2259 24.875 46.3258 24.746 46.4121C24.4687 46.5983 24.1777 46.7244 23.8722 46.4596C23.7984 46.4547 23.725 46.4444 23.652 46.4342H23.6519C23.3937 46.3981 23.1391 46.3625 22.8821 46.5643C22.6784 46.7244 22.4156 46.8417 22.1121 46.8097C21.9014 46.7875 21.688 46.7928 21.4743 46.7982H21.474C21.3798 46.8006 21.2857 46.8029 21.1917 46.8029C20.5837 46.8019 20.251 46.576 20.0338 46.0125C20.0125 45.9563 20.0038 45.8942 19.9989 45.8331C19.9669 45.4743 19.7603 45.2687 19.4122 45.2512C19.3637 45.2483 19.3152 45.2464 19.2667 45.2512C18.9942 45.2813 18.7847 45.1649 18.6053 44.9739C18.5758 44.9417 18.5445 44.9109 18.5065 44.8736C18.4885 44.8558 18.4689 44.8365 18.4472 44.8148C18.4543 44.7556 18.4505 44.6926 18.4466 44.6287C18.436 44.4553 18.425 44.2754 18.6305 44.1457C18.6316 44.0732 18.6336 44.0007 18.6355 43.9281C18.6405 43.7434 18.6454 43.5585 18.6364 43.3747C18.6296 43.2525 18.422 43.174 18.2872 43.2312C18.239 43.2515 18.1925 43.2776 18.1462 43.3035C18.0733 43.3444 18.0009 43.385 17.9226 43.4028C17.7054 43.4523 17.59 43.3524 17.5754 43.139C17.5721 43.0948 17.5729 43.05 17.5737 43.0051C17.5741 42.9851 17.5744 42.9651 17.5744 42.9451V42.755C17.5351 42.731 17.4975 42.7061 17.4607 42.6816C17.377 42.626 17.2974 42.573 17.2098 42.5407C17.1682 42.525 17.1237 42.5252 17.0783 42.5255C17.0031 42.5259 16.9256 42.5263 16.8549 42.4544C16.658 42.2527 16.4941 42.0393 16.368 41.7823C16.3206 41.6846 16.3215 41.5932 16.3223 41.5036C16.3228 41.4429 16.3234 41.383 16.3089 41.3226C16.5125 41.2228 16.6793 41.2596 16.8122 41.4361C16.9585 41.631 17.1622 41.7455 17.366 41.8601C17.4714 41.9194 17.5768 41.9786 17.6743 42.049C17.7723 42.1198 17.8819 42.179 18.0205 42.1508C18.2275 42.1078 18.4254 42.159 18.6217 42.2097C18.6819 42.2253 18.742 42.2409 18.8022 42.2536C18.8937 42.2731 18.9765 42.3507 19.0543 42.4238C19.0697 42.4382 19.0849 42.4524 19.0999 42.466C19.2143 42.5698 19.3404 42.5795 19.4287 42.4689C19.6779 42.1596 20.0076 42.1431 20.3655 42.1431C20.8145 42.1431 21.0327 41.8017 20.9163 41.3624C20.8727 41.1985 20.862 41.0172 20.8766 40.8474C20.9018 40.541 20.8455 40.2598 20.6758 40.0076C20.5129 39.7642 20.4557 39.5014 20.4828 39.2143C20.4906 39.1338 20.4935 39.0514 20.4819 38.9719C20.4508 38.7479 20.2035 38.614 19.9979 38.7071C19.9285 38.7388 19.8576 38.7684 19.7865 38.7981C19.6074 38.8729 19.4278 38.9479 19.2716 39.0562C19.064 39.2005 18.8297 39.2479 18.5959 39.2951C18.4321 39.3283 18.2685 39.3613 18.1146 39.4277C18.0535 39.4548 17.9478 39.4383 17.8886 39.4015C17.6604 39.2565 17.4064 39.2103 17.1512 39.1639C17.1257 39.1593 17.1002 39.1547 17.0747 39.1499C17.0583 39.1469 17.0419 39.1438 17.0255 39.1406C16.6784 39.0737 16.4805 38.8429 16.5096 38.5403C16.5164 38.4686 16.5474 38.391 16.5911 38.3338C16.7831 38.0835 16.8713 37.8033 16.9014 37.4891C16.915 37.346 16.9747 37.2056 17.0333 37.0678C17.0458 37.0384 17.0582 37.0091 17.0701 36.9799C17.1982 36.6657 17.3165 36.3525 17.2854 36.0004C17.2754 35.8872 17.278 35.7731 17.2806 35.6589C17.2828 35.5629 17.2849 35.4668 17.2796 35.3711C17.267 35.1364 17.3485 34.9492 17.5133 34.7882C17.7849 34.5225 18.0651 34.2694 18.358 34.026C18.6178 33.8102 18.853 33.5651 19.0957 33.3121L19.0958 33.3119C19.2 33.2033 19.3056 33.0932 19.4151 32.9834V32.453C19.3425 32.383 19.273 32.3155 19.2071 32.2515L19.2058 32.2502L19.2035 32.248C19.1474 32.1936 19.094 32.1418 19.0437 32.0932V31.5772C19.0825 31.5495 19.128 31.5225 19.1756 31.4942C19.2898 31.4264 19.4163 31.3512 19.4936 31.2417C19.5467 31.1662 19.6081 31.0936 19.6696 31.0207H19.6697C19.8881 30.762 20.1095 30.5 19.9756 30.0944L18.744 28.8628C18.7151 28.8628 18.6809 28.8637 18.643 28.8647H18.6429C18.5423 28.8672 18.4152 28.8705 18.2892 28.8599C18.2326 28.8551 18.1746 28.8601 18.1166 28.865C17.9857 28.8761 17.8546 28.8873 17.7383 28.7872C17.6476 28.709 17.5434 28.6457 17.4391 28.5824C17.2056 28.4405 16.9722 28.2987 16.8917 27.991C16.8539 27.847 16.7899 27.7093 16.7276 27.5752V27.5751C16.7085 27.534 16.6895 27.4932 16.6716 27.4527C16.4805 27.0192 16.2439 26.5819 15.6766 26.5314C15.6283 26.5014 15.5794 26.4725 15.5306 26.4437C15.2417 26.273 14.9569 26.1048 14.8474 25.7265C14.7679 25.454 14.54 25.3347 14.2393 25.2571C13.8625 25.1607 13.4921 25.1732 13.1216 25.1857L13.0145 25.1893C12.7847 25.1964 12.5524 25.2842 12.3307 25.368L12.2775 25.3881C12.069 25.4666 11.8682 25.5762 11.6781 25.6945C11.4677 25.8264 11.2718 26.1232 11.1777 26.5023C11.0914 26.8505 10.9925 27.1715 10.7248 27.4363C10.6356 27.5245 10.5231 27.6942 10.5939 27.8571C10.6318 27.9453 10.6917 28.0242 10.7427 28.0913C10.7635 28.1187 10.7828 28.1441 10.7985 28.1675C11.2718 28.2276 11.6927 28.1558 12.1116 28.0841C12.3541 28.0424 12.5034 28.1665 12.6246 28.3459C12.7265 28.4962 12.8225 28.6504 12.9107 28.8095C13.0921 29.1353 13.3733 29.2391 13.705 29.0927C13.7497 29.0729 13.7935 29.0508 13.8372 29.0287H13.8373C13.914 28.9899 13.9906 28.9512 14.0716 28.9258C14.185 28.89 14.3101 28.8735 14.4294 28.8783C14.4741 28.8799 14.518 28.8989 14.5623 28.9182C14.6025 28.9356 14.6429 28.9532 14.6845 28.9579C14.9851 28.9918 15.2722 28.9569 15.5262 28.7687C15.5628 28.7417 15.6057 28.7237 15.6488 28.7055C15.6753 28.6943 15.7018 28.6831 15.727 28.6698L15.7461 28.6597C15.8927 28.5818 16.0479 28.4994 16.2012 28.6165C16.3622 28.7387 16.5145 28.8997 16.4999 29.1179C16.4915 29.2374 16.4933 29.3564 16.4952 29.4755C16.4988 29.7137 16.5025 29.9525 16.4243 30.1982C16.2807 30.6482 16.4795 31.0972 16.7433 31.456C16.9383 31.7208 17.011 31.9739 16.9829 32.3172C16.8726 32.4128 16.7653 32.5171 16.6557 32.6236C16.4819 32.7925 16.3026 32.9667 16.0974 33.1202C15.6126 33.4819 15.5903 33.8756 15.9297 34.4265C16.1673 34.8115 16.2536 35.1955 16.2051 35.6193C16.1896 35.757 16.1004 35.951 15.9908 36.0024C15.831 36.0761 15.7189 36.1955 15.6053 36.3165C15.5216 36.4056 15.4372 36.4955 15.3323 36.5687C15.3551 36.6457 15.3526 36.7228 15.35 36.8013C15.3463 36.9167 15.3424 37.0351 15.4186 37.1603C15.5169 37.322 15.3738 37.5371 15.2704 37.6925L15.2625 37.7044C15.1933 37.8074 15.0881 37.8868 14.9829 37.9662L14.9828 37.9663C14.9346 38.0027 14.8864 38.039 14.8416 38.0777C14.7456 38.1602 14.6515 38.2436 14.5574 38.3279C14.4255 38.4463 14.4187 38.5675 14.5506 38.6935C14.7494 38.8836 14.7834 39.1241 14.7533 39.3947C14.6699 39.4752 14.5768 39.5644 14.4682 39.6682C14.4682 39.7091 14.4644 39.7524 14.4606 39.7964C14.452 39.8953 14.4431 39.9976 14.476 40.0842C14.6069 40.4275 14.8707 40.6797 15.1335 40.9211C15.1762 41.1655 15.148 41.3866 14.9909 41.5845C14.9356 41.6543 14.8901 41.7367 14.859 41.8201C14.8488 41.8469 14.8375 41.8738 14.8262 41.901C14.7708 42.0332 14.7136 42.1699 14.7659 42.3099C14.7982 42.3967 14.8566 42.4732 14.9156 42.5504C14.9417 42.5845 14.9678 42.6188 14.9919 42.6542C15.6106 42.5446 15.9927 42.8665 16.3302 43.3214C16.189 43.5575 15.9827 43.5288 15.7799 43.5007C15.7403 43.4952 15.7008 43.4897 15.662 43.4862C15.6425 43.4843 15.6228 43.4663 15.6038 43.449C15.5842 43.4311 15.5653 43.4139 15.5486 43.4164C15.3298 43.4506 15.1178 43.4089 14.9085 43.3677H14.9084C14.7195 43.3306 14.5327 43.2938 14.345 43.3136C14.229 43.19 14.1132 43.0675 13.9979 42.9454L13.9969 42.9444C13.727 42.6587 13.4595 42.3756 13.1968 42.0878C13.0193 41.8929 12.9524 41.6504 13.0436 41.4002C13.1939 40.989 13.1338 40.6399 12.806 40.3422C12.612 40.1657 12.4898 39.9533 12.5315 39.6818C12.5616 39.483 12.4821 39.3181 12.3938 39.1561C12.1029 38.6237 11.908 38.0651 11.9526 37.4503C11.9671 37.2505 11.8934 37.0905 11.8129 36.9247C11.7867 36.8704 11.7623 36.8149 11.7378 36.7593V36.7592C11.6835 36.6358 11.6291 36.5122 11.555 36.4019C11.4463 36.24 11.4318 36.1081 11.5181 35.9277C11.5986 35.7599 11.6112 35.5728 11.4677 35.4002C11.3859 35.3012 11.3377 35.1706 11.2919 35.0467L11.2892 35.0394C11.281 35.0173 11.2726 34.9955 11.2642 34.9737C11.2192 34.8564 11.1746 34.7405 11.1632 34.604C11.1292 34.2005 10.9518 34.0134 10.5532 34.0143C10.11 34.0153 9.77538 33.8417 9.48833 33.5333C9.04126 33.0533 8.60582 32.5664 8.24797 32.0127C8.18212 31.9108 8.08957 31.8271 7.99646 31.7429C7.93187 31.6845 7.867 31.6259 7.8106 31.5608C7.69034 31.4221 7.58658 31.2689 7.48766 31.1137C7.32764 30.8625 7.35771 30.6152 7.55554 30.4009C7.71265 30.2312 7.80381 30.0469 7.77471 29.8345L7.61953 29.6801L7.61934 29.6799C7.50894 29.5699 7.40528 29.4667 7.31213 29.3749C7.25006 29.0238 7.34607 28.7542 7.48475 28.4933C7.49069 28.4819 7.49273 28.4667 7.49469 28.4521C7.49721 28.4334 7.4996 28.4156 7.50996 28.408C7.59233 28.3515 7.67216 28.29 7.75199 28.2284H7.75201C8.03404 28.011 8.31623 27.7935 8.71153 27.798C8.78173 27.7986 8.85215 27.7966 8.9225 27.7945C9.06302 27.7904 9.20327 27.7864 9.34092 27.8038C9.59501 27.8358 9.77151 27.7456 9.92958 27.5177C9.84521 27.0289 9.78896 26.5111 9.80642 25.9864C9.8103 25.8584 9.76666 25.7052 9.69198 25.6024C9.51983 25.3648 9.3688 25.1149 9.21772 24.8649H9.21771C9.14921 24.7515 9.08071 24.6382 9.01022 24.5259C8.97822 24.4755 8.92294 24.4241 8.86766 24.4076C8.73441 24.3674 8.61308 24.2974 8.49162 24.2272C8.29927 24.1161 8.10662 24.0048 7.86587 24.0119C7.81435 24.0135 7.75988 23.9789 7.70752 23.9456H7.70746C7.69282 23.9363 7.67835 23.9271 7.66416 23.9188C7.30534 23.7113 7.26073 23.4039 7.64282 23.1459C7.69343 23.1118 7.7518 23.0899 7.81017 23.068C7.86479 23.0475 7.91942 23.027 7.9677 22.9966L7.99271 22.9806H7.99274C8.12778 22.8944 8.26794 22.805 8.37113 22.6872C8.60776 22.4166 8.62328 22.0966 8.48848 21.7737C8.42544 21.6224 8.34689 21.4721 8.24894 21.3402C7.87751 20.8417 7.89206 20.3064 8.10832 19.7652C8.12662 19.7196 8.14542 19.6744 8.16415 19.6294C8.26151 19.3956 8.35668 19.167 8.36725 18.9002C8.37792 18.6335 8.59612 18.4541 8.79202 18.3076C8.99816 18.1528 9.21298 18.0096 9.42773 17.8664C9.61911 17.7388 9.81044 17.6113 9.99553 17.4756C10.2584 17.2836 10.4058 17.0139 10.3961 16.6736C10.3927 16.5633 10.3935 16.4534 10.3944 16.3412V16.3411C10.3947 16.2906 10.3951 16.2395 10.3951 16.1877C10.434 16.1635 10.4721 16.1339 10.5097 16.1047C10.591 16.0416 10.6701 15.9802 10.751 15.9782C11.0322 15.9705 11.1263 15.7852 11.2117 15.5825C11.329 15.3052 11.4948 15.0666 11.7518 14.863C11.7518 14.7874 11.7525 14.7106 11.7532 14.633V14.6328C11.7548 14.4454 11.7565 14.2532 11.7489 14.0619C11.7412 13.8495 11.7935 13.6653 11.9332 13.5072C12.2872 13.1038 12.1805 12.5927 11.8323 12.3144C11.7854 12.277 11.7398 12.2369 11.6942 12.1969C11.5861 12.102 11.4781 12.0071 11.3532 11.9478C11.2613 11.9039 11.1441 11.9111 11.0283 11.9183C10.9854 11.9209 10.9426 11.9235 10.9013 11.9235C10.8889 11.9235 10.8778 11.9382 10.8661 11.9538C10.8559 11.9674 10.8451 11.9817 10.8325 11.9875C10.4688 12.1543 10.4096 12.1427 10.1313 11.8721C10.1533 11.5794 10.3364 11.4074 10.5181 11.2367C10.5525 11.2043 10.5869 11.172 10.6201 11.139C10.6685 11.0905 10.7368 11.0585 10.8013 11.0281L10.8131 11.0226C11.1428 10.8703 11.4299 10.6609 11.6626 10.3825C11.9103 10.0845 12.2691 9.97475 12.6107 9.87022L12.613 9.86953C12.8162 9.80821 13.0221 9.88196 13.2258 9.95487C13.2895 9.97767 13.3529 10.0004 13.416 10.0189C13.4266 10.0222 13.4372 10.0276 13.4477 10.0331C13.4652 10.0421 13.4825 10.0511 13.4994 10.0499C13.6051 10.0442 13.6904 10.0964 13.7739 10.1476C13.8467 10.1921 13.9182 10.2359 14.0008 10.24C14.2767 10.2531 14.5537 10.2505 14.8257 10.2479H14.8258C14.9351 10.2468 15.0436 10.2458 15.1509 10.2458L15.3009 10.4047L15.5408 10.6589C15.5844 10.8199 15.535 11.0692 15.4293 11.2912C15.3362 11.487 15.339 11.6798 15.3419 11.8783L15.342 11.8847C15.3449 12.0962 15.4157 12.1825 15.6096 12.1825C15.8916 12.1833 16.1514 12.2641 16.4155 12.3461L16.5009 12.3725C17.0352 12.5364 17.3465 12.5229 17.9216 12.3803C17.9806 12.3657 18.0394 12.3665 18.0992 12.3673C18.1899 12.3686 18.2829 12.3699 18.3823 12.3173C18.549 12.2294 18.6666 12.106 18.7849 11.9818L18.8099 11.9555C18.9331 11.8275 19.0631 11.7548 19.2308 11.8004C19.4219 11.8527 19.4742 12.0545 19.4966 12.196C19.5087 12.2741 19.5212 12.3522 19.5337 12.4304C19.5553 12.5647 19.5768 12.6993 19.5964 12.8342L19.6023 12.8742C19.6341 13.0882 19.6703 13.3317 19.4258 13.4868C19.4172 13.4924 19.4175 13.5093 19.4179 13.5279C19.4183 13.545 19.4187 13.5635 19.4122 13.5761C19.2308 13.932 19.3521 14.1754 19.7429 14.22C19.8372 14.2307 19.9326 14.2267 20.0004 14.2238C20.0245 14.2228 20.0452 14.2219 20.061 14.2219C20.3111 14.2759 20.3416 14.4367 20.3711 14.5924C20.3894 14.6884 20.4072 14.7825 20.476 14.8484C20.4983 15.214 20.6748 15.4342 21.0443 15.5263C21.1514 15.5525 21.2453 15.6297 21.3349 15.7033V15.7034C21.3744 15.7358 21.4131 15.7676 21.4516 15.794C21.4284 16.241 21.506 16.6251 21.795 16.9451C21.8125 16.9644 21.8236 16.9907 21.8342 17.0157L21.8376 17.0236C21.8623 17.0846 21.8836 17.148 21.9048 17.2113C21.9511 17.3495 21.9973 17.4873 22.0791 17.5997C22.156 17.7053 22.2688 17.7846 22.3819 17.8641H22.382C22.4372 17.9029 22.4924 17.9418 22.5436 17.9837C22.8549 18.2398 22.852 18.5937 22.789 18.9351C22.7634 19.0727 22.7109 19.2053 22.6584 19.3378C22.6054 19.4715 22.5525 19.6051 22.5271 19.7439C22.4845 19.9776 22.3739 20.1425 22.2149 20.2957C22.1761 20.3332 22.1382 20.3715 22.1003 20.4098L22.1002 20.41C22.0812 20.4291 22.0623 20.4483 22.0432 20.4674L22.0121 20.4985C21.6527 20.8575 21.6393 20.8709 21.5535 21.4265C21.5224 21.6292 21.4371 21.7863 21.2868 21.8959C21.0754 22.0501 21.0327 22.2489 21.0734 22.5117C21.3518 22.8375 21.6698 23.1576 22.0985 23.337C22.1196 23.3458 22.1407 23.3552 22.1619 23.3647H22.162C22.2799 23.4172 22.4005 23.471 22.5427 23.4398C22.5861 23.4304 22.6323 23.4329 22.6786 23.4354H22.6787C22.7141 23.4373 22.7497 23.4392 22.7841 23.4359C23.1992 23.3952 23.5541 23.4786 23.8422 23.8238C23.9216 23.9191 24.0475 23.976 24.1737 24.033C24.2325 24.0596 24.2913 24.0862 24.3455 24.1167C24.3931 24.1433 24.4402 24.1714 24.4886 24.2003L24.5453 24.234V24.7325C24.3358 24.8663 24.1447 24.9895 23.975 25.0991V25.6286C24.0373 25.6805 24.1012 25.7311 24.1651 25.7817L24.1652 25.7818C24.3102 25.8966 24.4555 26.0116 24.5841 26.1435C24.7065 26.2687 24.8101 26.4122 24.9068 26.5461C24.9472 26.6021 24.9864 26.6564 25.0253 26.707C25.1909 26.7423 25.3583 26.7378 25.5232 26.7334C25.8332 26.725 26.1342 26.7169 26.3976 26.9746C26.3976 27.0009 26.3978 27.0287 26.3981 27.0576C26.3987 27.129 26.3994 27.2072 26.3966 27.2859C26.3898 27.5061 26.48 27.6991 26.6536 27.8048C26.8628 27.9335 27.0316 28.1016 27.2005 28.2698C27.2656 28.3347 27.3308 28.3996 27.3984 28.4623C27.5933 28.6436 27.7892 28.6339 27.9609 28.4167C28.0654 28.2848 28.1628 28.1478 28.2602 28.0107C28.3318 27.91 28.4034 27.8093 28.4778 27.7107C28.6601 27.4683 28.9151 27.4392 29.1731 27.6195C29.211 27.646 29.2496 27.6714 29.2883 27.6967L29.2884 27.6968C29.3518 27.7383 29.4151 27.7798 29.4747 27.8261C29.8209 28.0938 29.8519 28.4613 29.7598 28.8463C29.6667 29.2362 29.6793 29.3031 30.0275 29.5475C30.3485 29.7725 30.3727 30.1003 30.0362 30.1963C29.8585 30.2468 29.748 30.3457 29.6357 30.4461C29.5929 30.4844 29.5499 30.5229 29.5028 30.559V31.7489C29.5276 31.7725 29.5533 31.7971 29.5796 31.8224L29.5803 31.8231C29.6609 31.9005 29.748 31.9841 29.8384 32.0651L29.8466 32.0724C29.8896 32.1109 29.9405 32.1565 29.9906 32.1611C30.2706 32.1881 30.4408 32.3697 30.6076 32.5477V32.5478C30.6195 32.5605 30.6314 32.5732 30.6433 32.5858C30.6501 32.5929 30.6569 32.6001 30.6637 32.6072C30.6743 32.932 30.4998 33.0979 30.2127 33.1289C30.0168 33.1502 29.8199 33.1929 29.7307 33.3558C29.7036 33.4053 29.6689 33.4529 29.6339 33.5009L29.6338 33.501C29.5321 33.6404 29.4275 33.7838 29.4989 33.9872C29.5087 34.0145 29.507 34.0453 29.5043 34.0928C29.5028 34.1212 29.5009 34.1555 29.5009 34.1986C29.5033 34.2 29.5074 34.202 29.5126 34.2046C29.5363 34.2163 29.5847 34.2404 29.6221 34.2762L29.6272 34.281C29.8995 34.5419 29.8995 34.5419 30.2205 34.3945C30.3035 34.3564 30.3539 34.3333 30.4068 34.3192C30.4885 34.2975 30.5759 34.2975 30.7985 34.2975C31.1689 34.5574 31.1844 34.9298 31.1398 35.3245C30.7238 35.6718 30.5304 36.082 30.2876 36.5972C30.2429 36.692 30.1965 36.7904 30.1468 36.8927C30.0717 37.0469 30.0802 37.1997 30.0886 37.3515C30.094 37.4488 30.0994 37.5457 30.0828 37.6423C30.2692 37.8535 30.182 38.0549 30.0982 38.2488C30.0673 38.3201 30.0369 38.3904 30.0207 38.4598C30.0057 38.5232 29.9818 38.5864 29.9579 38.6496C29.9043 38.7912 29.8506 38.933 29.8975 39.0786C29.9782 39.3258 30.1753 39.5009 30.3679 39.6719C30.3883 39.6901 30.4088 39.7082 30.429 39.7264C30.4445 39.7404 30.4685 39.7443 30.493 39.7483C30.5159 39.7521 30.5391 39.7559 30.556 39.7681C30.6666 39.8495 30.7024 40.0008 30.6346 40.0968C30.5512 40.2132 30.4387 40.2549 30.3048 40.1909C30.1962 40.1395 30.0876 40.0862 29.9897 40.0173C29.832 39.9069 29.6577 39.8401 29.4821 39.7729L29.4819 39.7728C29.4339 39.7544 29.3858 39.736 29.338 39.7167C29.177 39.6517 29.0034 39.5091 28.9306 39.3559C28.8634 39.2157 28.7788 39.0841 28.6941 38.9524C28.5345 38.7043 28.3747 38.4558 28.3303 38.1485C28.3207 38.0845 28.2062 38.0176 28.1267 37.9856C27.9801 37.9267 27.8296 37.877 27.679 37.8272L27.6782 37.8269C27.6159 37.8064 27.5536 37.7858 27.4915 37.7645C27.4352 37.5485 27.2696 37.4156 27.1116 37.2886C27.0992 37.2787 27.0869 37.2688 27.0746 37.2589C27.0628 37.2493 27.0511 37.2397 27.0396 37.2301C26.8708 37.0905 26.6526 37.0013 26.4441 36.9208C26.2744 36.8548 26.1037 36.9411 25.9582 37.0245C25.6673 37.1913 25.3832 37.1409 25.1155 37.0061C24.9545 36.9256 24.7916 36.7957 24.8634 36.5426H25.389C25.6276 36.1963 25.9738 36.0557 26.3539 35.9384C26.8689 35.7793 27.3567 35.5437 27.8154 35.2547C27.9114 35.1946 27.9783 35.1063 27.9541 34.9725C27.9447 34.9188 27.9469 34.8624 27.9491 34.8048V34.8047C27.9501 34.779 27.9512 34.7531 27.9512 34.7271L27.95 34.7262C27.7468 34.5577 27.5443 34.39 27.2645 34.5884C27.021 34.5248 26.8513 34.6529 26.684 34.7792C26.6421 34.8108 26.6003 34.8423 26.5576 34.8706C26.2841 35.052 26.0106 35.212 25.6625 35.1732C25.5999 35.1661 25.5364 35.1687 25.4731 35.1713C25.4067 35.1741 25.3405 35.1768 25.2755 35.1684C24.8878 35.1183 24.5404 35.246 24.1932 35.3736C24.1096 35.4043 24.0261 35.435 23.9421 35.4632C23.9138 35.4725 23.8858 35.4901 23.8584 35.5073H23.8583C23.817 35.5332 23.7771 35.5582 23.7403 35.5524C23.5645 35.5235 23.4692 35.6225 23.3658 35.73C23.3409 35.7559 23.3155 35.7823 23.2884 35.8075C23.3111 35.8788 23.3073 35.9525 23.3034 36.0282C23.2975 36.144 23.2913 36.2649 23.3786 36.3903C23.4911 36.5523 23.3815 36.7016 23.1643 36.8199C22.6852 37.0808 22.6687 37.2127 23.0731 37.6142C23.2603 37.8004 23.4504 37.9681 23.6967 38.0952C23.9304 38.2154 24.105 38.1582 24.3009 38.0777C24.3332 38.0647 24.3589 38.0367 24.3849 38.0084C24.4034 37.9883 24.4221 37.9679 24.4434 37.9526C24.7703 37.7218 24.8304 37.7267 25.1107 38.005C25.1775 38.0718 25.2416 38.1407 25.3021 38.2055C25.3241 38.2292 25.3457 38.2523 25.3667 38.2746C25.4529 38.2746 25.5372 38.2762 25.6201 38.2777H25.6203C25.8061 38.2812 25.9849 38.2845 26.1619 38.2697C26.3318 38.2556 26.5003 38.2232 26.6706 38.1904L26.6707 38.1903C26.7453 38.176 26.8204 38.1615 26.896 38.1485C26.9242 38.1795 26.9524 38.2076 26.9796 38.2348C27.075 38.3302 27.1593 38.4144 27.1947 38.5714C27.2248 38.703 27.3885 38.8155 27.5293 38.9123L27.5295 38.9125C27.5474 38.9248 27.5649 38.9368 27.5817 38.9486C27.7281 39.0514 27.8261 39.1755 27.8988 39.3346C27.9706 39.4888 27.9502 39.6061 27.8833 39.77C27.8247 39.9154 27.8372 40.0928 27.8494 40.2648C27.8516 40.2965 27.8538 40.3281 27.8556 40.3592C27.8561 40.3687 27.8566 40.3783 27.8571 40.3878C27.8639 40.5332 28.0588 40.6903 28.2179 40.6981C28.239 40.6991 28.2603 40.7002 28.2816 40.7013C28.3902 40.7071 28.5002 40.713 28.6048 40.6952C28.7473 40.6711 28.8763 40.709 29.0049 40.7468C29.0679 40.7654 29.1309 40.7839 29.1954 40.7951C29.3467 40.8213 29.4117 40.9095 29.4058 41.0589C29.4031 41.1267 29.4037 41.1946 29.4043 41.2624V41.2625C29.4045 41.2811 29.4047 41.2997 29.4048 41.3183C29.4048 41.3288 29.4049 41.3393 29.4049 41.3498C29.405 41.3765 29.4047 41.4031 29.4045 41.4296C29.4026 41.6513 29.4008 41.8674 29.593 42.0509C29.7356 42.1867 29.7239 42.404 29.691 42.5863C29.6149 42.9968 29.6176 43.0151 29.6763 43.4054L29.6871 43.4775C29.7133 43.6521 29.691 43.8373 29.6337 44.0303C29.5337 44.3679 29.3893 44.6811 29.2441 44.9959C29.2204 45.0473 29.1966 45.0988 29.1731 45.1504C29.0528 45.4142 29.0984 45.6275 29.2953 45.7778C29.3932 45.8525 29.69 45.8729 29.7831 45.7924C29.8355 45.7468 29.8907 45.6595 29.8839 45.5975C29.8452 45.2125 30.0624 44.9506 30.3456 44.7838C30.5929 44.6393 30.7286 44.4386 30.8586 44.2126C30.8732 44.1868 30.8846 44.1587 30.896 44.1308C30.9133 44.0883 30.9304 44.0462 30.9585 44.0128C31.1437 43.7937 31.1922 43.5435 31.1437 43.2826C31.0919 43.224 31.0415 43.1653 30.9913 43.107L30.9912 43.1068C30.8835 42.9816 30.7774 42.8582 30.6637 42.7424C30.3396 42.4109 30.3558 42.0081 30.372 41.6074V41.6073C30.3747 41.5404 30.3774 41.4735 30.3785 41.407C30.3824 41.1937 30.6307 41.088 30.8566 41.1258C31.101 41.1665 31.3658 41.2063 31.5995 41.1529C31.8352 41.0986 32.0252 41.0928 32.2638 41.1626C32.4411 41.2143 32.6365 41.2035 32.8319 41.1928C32.9155 41.1883 32.9991 41.1837 33.0813 41.184L33.1208 41.1839C33.2787 41.1833 33.4197 41.1828 33.4886 41.4031C33.4991 41.4362 33.5126 41.4676 33.5257 41.498C33.5732 41.6086 33.6148 41.7053 33.4809 41.8134C33.4765 41.8172 33.4771 41.8266 33.4777 41.8369C33.4782 41.8448 33.4787 41.8532 33.477 41.8599C33.3295 42.4216 33.3368 42.4261 33.6195 42.6014L33.6196 42.6015C33.677 42.6371 33.7459 42.6798 33.8271 42.7356C33.9126 42.7944 34.0012 42.8491 34.0899 42.9039H34.09L34.0901 42.904C34.1564 42.9449 34.2227 42.9858 34.2878 43.0285C34.4175 43.1134 34.5452 43.201 34.6668 43.2844L34.7348 43.3311V44.3581C34.7559 44.3771 34.777 44.4003 34.7989 44.4244C34.8498 44.4803 34.905 44.5409 34.9734 44.5646C35.3493 44.6894 35.3305 44.9875 35.3124 45.2755L35.3089 45.3317ZM46.0464 23.8907C45.932 24.1448 45.6537 24.235 45.4005 24.3L45.3298 24.3178C44.982 24.4052 44.9624 24.4102 44.6916 24.6782C44.3386 24.7626 44.1214 24.6151 43.9866 24.298C43.94 24.1875 43.8634 24.0856 43.7829 23.9954C43.6672 23.8653 43.548 23.7379 43.4289 23.6105C43.2116 23.3782 42.9943 23.146 42.7976 22.8967C42.7815 22.8762 42.7656 22.8558 42.7499 22.8356C42.5865 22.6256 42.4359 22.4319 42.1537 22.3487C42.0563 22.3199 41.9768 22.229 41.9063 22.1483C41.8772 22.115 41.8497 22.0835 41.823 22.0588C41.8007 21.762 41.8133 21.5196 41.9568 21.2956C42.0009 21.227 42.0042 21.1249 42.007 21.0367L42.0073 21.0279C42.012 20.8817 42.0111 20.735 42.0101 20.5783C42.0096 20.5105 42.0092 20.4408 42.0092 20.3684C41.9374 20.3122 41.8492 20.2424 41.7192 20.1396C41.7377 20.1405 41.6911 20.1347 41.6446 20.1347C41.5025 20.1345 41.3604 20.1327 41.2183 20.1309H41.2179C40.8589 20.1265 40.5001 20.1221 40.1424 20.1415C39.9463 20.152 39.7739 20.0895 39.6015 20.0269C39.4882 19.9858 39.375 19.9447 39.255 19.9243C39.1687 19.9097 39.0964 19.8123 39.0224 19.7124C38.9883 19.6665 38.9539 19.6201 38.9175 19.581C38.829 19.1725 38.9696 18.7838 39.1098 18.3959L39.1454 18.297C39.224 18.0759 39.255 17.8683 39.0426 17.7054C38.9854 17.6618 38.9098 17.6288 38.839 17.6162C38.3919 17.5328 37.9817 17.3776 37.682 17.0169C37.5565 16.8655 37.387 16.7905 37.2202 16.7168C37.1936 16.705 37.1671 16.6933 37.1409 16.6813C36.8926 16.5678 36.6511 16.6483 36.4552 16.821C36.1245 17.1119 35.8365 17.4416 35.6299 17.8354C35.601 17.8906 35.573 17.9467 35.5451 18.0028L35.545 18.0029C35.4654 18.1628 35.3856 18.3231 35.2808 18.4638C35.2256 18.5376 35.1451 18.5911 35.0638 18.6451C35.0009 18.6868 34.9376 18.7289 34.8851 18.7809C34.6602 19.003 34.4235 19.2076 34.1704 19.3987C33.6884 19.7614 33.1589 19.965 32.5528 19.9388C32.4355 19.934 32.3133 19.8942 32.2066 19.8428C31.9098 19.7003 31.6121 19.5567 31.3289 19.388C31.1582 19.2862 30.9624 19.1678 30.8722 19.0049C30.7771 18.8333 30.6763 18.6655 30.5676 18.5026C30.5495 18.4753 30.5299 18.4483 30.5103 18.4213C30.4573 18.3485 30.404 18.2753 30.3785 18.1932C30.344 18.0809 30.3258 17.9634 30.3075 17.8455H30.3074C30.2974 17.7811 30.2874 17.7167 30.2748 17.653C30.264 17.5982 30.2506 17.5437 30.2372 17.4891C30.2143 17.3959 30.1915 17.3027 30.1817 17.2079C30.1699 17.0941 30.1729 16.9788 30.1756 16.8746C30.1767 16.8323 30.1778 16.7918 30.1778 16.754C29.9819 16.5581 29.8015 16.3778 29.5862 16.1634C29.5568 16.1626 29.5263 16.161 29.4948 16.1594H29.4947C29.2801 16.1485 29.023 16.1355 28.7997 16.3215C28.7687 16.3477 28.7105 16.3574 28.6688 16.3516C28.4346 16.3154 28.2077 16.3568 27.9807 16.3982C27.8364 16.4246 27.692 16.4509 27.5458 16.4573C27.3856 16.4641 27.2263 16.5021 27.0791 16.5372C27.0169 16.552 26.9569 16.5663 26.8999 16.5775C26.5217 16.3351 26.4577 16.0122 26.5013 15.6194L26.3483 15.5121L26.1794 15.3934H25.775C25.6295 15.4953 25.5063 15.6116 25.5151 15.8415C25.5218 16.0306 25.5897 16.1537 25.6983 16.305C25.7763 16.4143 25.8476 16.5282 25.9191 16.6421V16.6422C26.0334 16.8246 26.1479 17.0073 26.2899 17.172C26.5101 17.428 26.7719 17.5628 27.1171 17.5202C27.203 17.5097 27.2906 17.5121 27.3884 17.5147C27.4353 17.5159 27.4846 17.5173 27.5371 17.5173C27.5545 17.4904 27.5726 17.4623 27.5912 17.4334L27.5913 17.4333V17.4332C27.6417 17.3548 27.696 17.2704 27.7533 17.1875C27.891 16.9887 28.0704 16.8821 28.3216 16.9344C28.4448 16.9596 28.5078 17.0275 28.5301 17.1526C28.5747 17.4048 28.4729 17.5764 28.2663 17.7122C27.8367 17.9944 27.8183 18.0545 27.9337 18.5249C27.9478 18.5827 27.9471 18.6446 27.9465 18.706C27.9463 18.7249 27.9461 18.7438 27.9463 18.7625C27.9512 19.1203 27.9289 19.1417 27.5632 19.164L26.9067 18.5074C26.8733 18.5029 26.8479 18.4996 26.8276 18.497C26.7915 18.4924 26.7718 18.4898 26.7525 18.4861C26.3607 18.4221 26.0659 18.5928 25.7847 18.8459C25.6661 18.9523 25.535 19.0446 25.4038 19.1369H25.4037C25.2827 19.2221 25.1617 19.3072 25.0505 19.4035C24.9128 19.5228 24.7984 19.6809 24.7082 19.8409C24.5763 20.0746 24.4473 20.317 24.3717 20.5721C24.3319 20.705 24.3368 20.8669 24.4143 21.0308C24.5162 21.2471 24.5821 21.4905 24.5579 21.7485C24.5446 21.8915 24.5475 22.036 24.5503 22.1804V22.1805C24.5523 22.2788 24.5542 22.377 24.5511 22.4748C24.5433 22.725 24.2912 22.8501 24.0807 22.7163C23.9188 22.6135 23.7985 22.3856 23.881 22.2236C24.0666 21.8569 23.961 21.52 23.8528 21.1745L23.8315 21.1065C23.8143 21.0504 23.7968 20.9944 23.7793 20.9385L23.7791 20.9379C23.6188 20.4246 23.4587 19.9121 23.4814 19.3579C23.5018 18.873 23.6754 18.4648 24.0012 18.1176C24.1756 17.932 24.3576 17.7529 24.5377 17.5757V17.5756C24.608 17.5065 24.6779 17.4377 24.747 17.3689C24.747 17.3351 24.7479 17.3022 24.7487 17.27C24.7506 17.2004 24.7523 17.1339 24.745 17.0683C24.7276 16.9141 24.553 16.7453 24.4008 16.7405C24.1127 16.7308 23.8577 16.8074 23.6405 17.0149C23.552 17.0994 23.4507 17.1702 23.3417 17.2465C23.2893 17.2831 23.2352 17.3209 23.1798 17.3621C23.1399 17.3164 23.1 17.273 23.061 17.2306C22.9171 17.0741 22.7844 16.9297 22.6998 16.723C22.4825 16.1945 22.2023 15.695 21.7377 15.3265C21.5787 15.2004 21.473 15.0385 21.441 14.8184C21.4187 14.6612 21.3508 14.4896 21.2499 14.3693C21.0315 14.1099 20.9163 13.8035 20.8012 13.4973C20.742 13.34 20.6829 13.1827 20.6099 13.032C20.5391 12.8865 20.51 12.7052 20.4945 12.552C20.4605 12.2038 20.3063 11.909 20.1473 11.6258C20.0231 11.4057 19.9795 11.2001 20.0018 10.9596C20.2297 10.8422 20.3791 10.9567 20.5352 11.1176C20.5777 11.1615 20.6199 11.2059 20.6621 11.2502C20.893 11.4927 21.124 11.7355 21.4167 11.9109C21.5971 12.0186 21.889 12.0011 22.0772 11.9032C22.3021 11.7849 22.3885 11.5783 22.4098 11.3698C22.4428 11.0478 22.4593 10.721 22.1955 10.4417C22.051 10.2894 22.0888 10.0499 22.177 9.86371L22.207 9.80065C22.3119 9.58097 22.3225 9.55867 22.3225 9.22268C22.2666 9.18104 22.216 9.13197 22.1641 9.08175C22.0783 8.99862 21.9892 8.91231 21.8677 8.85125C21.6951 8.76397 21.5486 8.59135 21.4866 8.38866C21.4051 8.12003 21.1917 8.0056 20.96 7.92122C20.6002 7.78933 20.4411 7.60701 20.5905 7.29474C20.7439 6.9743 20.6359 6.73703 20.5234 6.48978C20.4752 6.38383 20.4262 6.27606 20.3965 6.15912C20.2861 6.1809 20.1824 6.17889 20.0818 6.17694C19.9271 6.17395 19.7795 6.17109 19.6255 6.25513C19.504 6.32142 19.3279 6.29973 19.163 6.27942V6.27941C19.1252 6.27477 19.0881 6.2702 19.0524 6.26677C18.6451 6.22797 18.2785 6.35502 17.9837 6.60425C17.8091 6.75166 17.6375 6.78851 17.461 6.74681C16.9247 6.62171 16.5348 6.34144 16.6114 5.84782C16.6444 5.6364 16.7782 5.42887 16.9053 5.24655C16.9943 5.11939 17.1279 5.03949 17.2611 4.95988C17.3412 4.91198 17.4211 4.86419 17.491 4.80627C17.655 4.6699 17.8 4.71873 17.9431 4.76695C18.0259 4.79485 18.1082 4.82256 18.1932 4.81402C18.3939 5.03999 18.6237 4.89743 18.7799 4.79366C18.9467 4.6831 19.1397 4.55024 19.1329 4.26609C19.128 4.02074 19.3637 3.85587 19.6168 3.84424C19.7921 3.83576 19.9672 3.82664 20.1424 3.81753C20.6486 3.79119 21.1546 3.76485 21.6611 3.75405C21.8463 3.75017 22.0015 3.68907 22.1276 3.59112C22.435 3.35255 22.756 3.2003 23.1381 3.27012L23.4048 3.53681C23.2331 3.77247 23.1536 4.04886 23.207 4.39411C23.2362 4.42077 23.2662 4.45333 23.2979 4.48763C23.3744 4.57059 23.4604 4.66372 23.5668 4.70832C23.9227 4.85767 24.232 4.82857 24.5899 4.56576C25.1339 4.16718 25.7313 3.79769 26.4664 3.8423L26.4981 3.84423C26.6491 3.85348 26.8035 3.86295 26.9503 3.83939C27.3703 3.77344 27.7524 3.91212 28.116 4.07408C28.4008 4.20062 28.6908 4.26468 28.9889 4.33048L29.0267 4.33883C29.0811 4.35104 29.1364 4.36141 29.1918 4.37183C29.3565 4.40276 29.5234 4.43408 29.6793 4.51533C29.8626 4.61134 30.0779 4.71123 30.2738 4.70153C30.4136 4.69469 30.5441 4.72653 30.6732 4.75806C30.8003 4.78907 30.9261 4.81979 31.0584 4.81306C31.1768 4.80679 31.2678 4.86414 31.3586 4.92146C31.4084 4.95281 31.458 4.98416 31.5122 5.00507C31.8361 5.12824 32.0892 5.34159 32.3501 5.56561C32.4381 5.64101 32.525 5.71853 32.6119 5.79617V5.7962C33.0058 6.14793 33.4023 6.50196 33.9251 6.67117C34.1082 6.82669 34.3216 6.9316 34.5351 7.03657C34.757 7.14564 34.9791 7.25477 35.1673 7.42081C35.2113 7.45952 35.2741 7.47553 35.3379 7.49179C35.3796 7.50242 35.4217 7.51315 35.4593 7.5304C35.9558 7.7583 36.0596 7.89795 36.3902 8.43327L36.4407 8.51468V8.51473C36.6828 8.90565 36.9278 9.30124 37.266 9.62223C37.4842 9.82955 37.7043 10.0345 37.9244 10.2394L37.9249 10.2399L37.925 10.24C38.1948 10.4911 38.4645 10.7422 38.7303 10.9974C38.8312 11.0942 38.9119 11.2125 38.9921 11.33C39.0082 11.3537 39.0244 11.3774 39.0407 11.4008C39.3491 11.8411 39.3617 11.9652 39.2036 12.52C39.1866 12.5802 39.1908 12.6466 39.1953 12.7183C39.1975 12.7528 39.1997 12.7886 39.1997 12.8254C39.3525 12.9776 39.5058 13.1311 39.6598 13.2853L39.66 13.2855C40.0368 13.6627 40.4176 14.0439 40.8038 14.4198C40.9105 14.5238 41.027 14.618 41.1435 14.7122C41.2345 14.7858 41.3255 14.8594 41.4118 14.9376C41.7107 15.2088 41.9219 15.5446 42.1332 15.8805V15.8806C42.2249 16.0264 42.3166 16.1722 42.4155 16.3128C42.65 16.6467 42.8107 17.0135 42.9713 17.3801V17.3802C43.0631 17.5897 43.1548 17.7991 43.2602 18.0022C43.4648 18.3959 43.7471 18.6665 44.1456 18.8265C44.2108 18.8525 44.2843 18.8589 44.3578 18.8653C44.3938 18.8684 44.4297 18.8715 44.4647 18.8769C44.5057 18.8831 44.5477 18.8809 44.5897 18.8786C44.6858 18.8735 44.7821 18.8684 44.8672 18.9642C44.9826 19.0941 45.0989 19.2328 45.1038 19.3977C45.1115 19.6586 45.2396 19.8351 45.4112 20.0009C45.438 20.0265 45.4636 20.0536 45.4892 20.0806C45.5304 20.1242 45.5717 20.1678 45.6178 20.2055C45.9591 20.4819 46.1618 20.8165 46.0813 21.2752C46.2119 21.73 46.1959 22.192 46.18 22.6534V22.6536C46.1734 22.8436 46.1669 23.0334 46.1706 23.2225C46.1773 23.4436 46.1376 23.688 46.0464 23.8907ZM62.3299 6.47884C60.6908 8.22843 59.8712 10.5305 59.8712 13.3851C59.8712 16.2581 60.6908 18.5694 62.3299 20.319C63.9689 22.0686 66.1697 22.9433 68.9322 22.9433C71.6763 22.9433 73.8679 22.0686 75.507 20.319C77.1645 18.551 77.9932 16.2397 77.9932 13.3851C77.9932 10.5121 77.1737 8.2008 75.5346 6.45122C73.8955 4.70163 71.6947 3.82684 68.9322 3.82684C66.1882 3.82684 63.9874 4.71084 62.3299 6.47884ZM64.4294 13.3851C64.4294 11.6355 64.8345 10.2543 65.6449 9.24134C66.4552 8.21001 67.551 7.69434 68.9322 7.69434C70.3135 7.69434 71.4093 8.21001 72.2196 9.24134C73.0299 10.2543 73.4351 11.6355 73.4351 13.3851C73.4351 15.1347 73.0299 16.5251 72.2196 17.5565C71.4093 18.5694 70.3135 19.0758 68.9322 19.0758C67.551 19.0758 66.4552 18.5694 65.6449 17.5565C64.8345 16.5251 64.4294 15.1347 64.4294 13.3851ZM80.9029 4.13072V22.75H85.1572V15.0426C85.1572 12.851 85.019 10.9265 84.7428 9.26897L84.9638 9.95959C85.1295 10.42 85.4334 11.1383 85.8754 12.1143C86.3358 13.072 86.8607 14.0481 87.45 15.0426L91.8977 22.75H96.5663V4.13072H92.312V11.8381C92.312 14.2507 92.4041 16.1384 92.5883 17.5012L92.3673 16.8935C92.2384 16.5067 91.9437 15.8437 91.4833 14.9045C91.0413 13.9468 90.5164 12.9247 89.9087 11.8381L85.5716 4.13072H80.9029ZM104.447 19.3521H111.74V22.75H100.165V4.13072H111.629V7.52859H104.447V11.7552H110.856V15.1255H104.447V19.3521ZM127.761 13.3575H126.352V7.52859H128.009C130.091 7.52859 131.131 8.44943 131.131 10.2911C131.131 12.3353 130.008 13.3575 127.761 13.3575ZM128.507 4.13072H122.098V22.75H126.352V16.7277H128.507C130.459 16.7277 132.098 16.166 133.424 15.0426C134.768 13.9192 135.441 12.3353 135.441 10.2911C135.441 8.50468 134.796 7.03134 133.507 5.87109C132.236 4.71084 130.569 4.13072 128.507 4.13072ZM141.918 19.0206H148.797V22.75H137.664V4.13072H141.918V19.0206ZM160.877 14.8492L161.07 15.5122H156.595L156.788 14.8492C158.004 10.7791 158.685 8.23764 158.832 7.22472L158.943 7.77722C159.016 8.14555 159.219 8.96509 159.551 10.2358C159.9 11.5066 160.342 13.0444 160.877 14.8492ZM162.092 18.9377L163.225 22.75H167.783L161.567 4.13072H156.208L149.992 22.75H154.44L155.573 18.9377H162.092ZM170.226 22.75V4.13072H174.894L179.231 11.8381C179.839 12.9247 180.364 13.9468 180.806 14.9045C181.266 15.8437 181.561 16.5067 181.69 16.8935L181.911 17.5012C181.727 16.1384 181.635 14.2507 181.635 11.8381V4.13072H185.889V22.75H181.22L176.773 15.0426C176.183 14.0481 175.659 13.072 175.198 12.1143C174.756 11.1383 174.452 10.42 174.287 9.95959L174.066 9.26897C174.342 10.9265 174.48 12.851 174.48 15.0426V22.75H170.226ZM201.062 19.3521H193.769V15.1255H200.178V11.7552H193.769V7.52859H200.952V4.13072H189.488V22.75H201.062V19.3521ZM216.918 4.13072V7.55622H212.387V22.75H208.105V7.55622H203.547V4.13072H216.918ZM67.1647 42.9487H62.2409V38.87H66.4984V37.9437H62.2409V33.8487H67.0672V32.9225H61.2334V43.875H67.1647V42.9487ZM70.2072 42.9487H72.401C73.1485 42.9487 73.8093 42.8187 74.3835 42.5587C74.9576 42.2987 75.4126 41.9466 75.7485 41.5025C76.0843 41.0583 76.3335 40.5708 76.496 40.04C76.6693 39.5091 76.756 38.9404 76.756 38.3337C76.756 37.0879 76.3389 36.0316 75.5047 35.165C74.6814 34.2875 73.6197 33.8487 72.3197 33.8487H70.2072V42.9487ZM69.1997 32.9225H72.3197C73.9231 32.9225 75.2393 33.4208 76.2685 34.4175C77.2976 35.4141 77.8122 36.7196 77.8122 38.3337C77.8122 39.3196 77.6226 40.2241 77.2435 41.0475C76.8643 41.86 76.2522 42.5371 75.4072 43.0787C74.5731 43.6096 73.571 43.875 72.401 43.875H69.1997V32.9225ZM86.6242 32.9225V39.7637C86.6242 41.9412 85.6546 43.03 83.7154 43.03C82.8379 43.03 82.1392 42.7754 81.6192 42.2662C81.11 41.7462 80.8554 40.9391 80.8554 39.845V32.9225H79.8479V39.8612C79.8479 41.2154 80.1837 42.2446 80.8554 42.9487C81.5379 43.6529 82.4912 44.005 83.7154 44.005C84.9612 44.005 85.9254 43.6475 86.6079 42.9325C87.2904 42.2066 87.6317 41.1396 87.6317 39.7312V32.9225H86.6242ZM97.9776 33.3612V34.4175C97.5009 34.1683 97.0784 33.995 96.7101 33.8975C96.3417 33.7891 95.8326 33.735 95.1826 33.735C93.9259 33.735 92.8751 34.1629 92.0301 35.0187C91.1959 35.8637 90.7788 36.9687 90.7788 38.3337C90.7788 39.7637 91.1905 40.9066 92.0138 41.7625C92.848 42.6183 93.953 43.0462 95.3288 43.0462C96.4013 43.0462 97.2951 42.7646 98.0101 42.2012V43.3062C97.3492 43.7721 96.4392 44.005 95.2801 44.005C93.6226 44.005 92.2847 43.5012 91.2663 42.4937C90.248 41.4862 89.7388 40.0996 89.7388 38.3337C89.7388 36.6871 90.2642 35.3491 91.3151 34.32C92.3659 33.2908 93.6659 32.7762 95.2151 32.7762C96.2876 32.7762 97.2084 32.9712 97.9776 33.3612ZM105.967 39.9425H101.725L101.969 39.26C103.096 36.0316 103.73 34.2008 103.87 33.7675L105.723 39.2437L105.967 39.9425ZM106.259 40.8362L107.299 43.875H108.388L104.602 32.9225H103.139L99.2716 43.875H100.36L101.417 40.8362H106.259ZM116.313 32.9225V33.8487H113.275V43.875H112.267V33.8487H109.245V32.9225H116.313ZM117.936 32.9225V43.875H118.943V32.9225H117.936ZM121.144 38.35C121.144 36.6275 121.572 35.2571 122.428 34.2387C123.294 33.2096 124.464 32.695 125.938 32.695C127.454 32.695 128.635 33.2041 129.48 34.2225C130.325 35.23 130.748 36.6058 130.748 38.35C130.748 40.0833 130.32 41.4591 129.464 42.4775C128.608 43.4958 127.444 44.005 125.97 44.005C124.519 44.005 123.349 43.4904 122.46 42.4612C121.583 41.4321 121.144 40.0616 121.144 38.35ZM122.184 38.35C122.184 39.7908 122.525 40.9337 123.208 41.7787C123.901 42.6129 124.822 43.03 125.97 43.03C127.162 43.03 128.083 42.6183 128.733 41.795C129.383 40.9608 129.708 39.8125 129.708 38.35C129.708 36.8766 129.377 35.7283 128.716 34.905C128.066 34.0816 127.14 33.67 125.938 33.67C124.768 33.67 123.847 34.0871 123.175 34.9212C122.514 35.7446 122.184 36.8875 122.184 38.35ZM132.867 32.9225V43.875H133.874V39.2437C133.874 36.9904 133.863 35.2787 133.842 34.1087L136.946 39.2762L139.724 43.875H141.106V32.9225H140.098V37.57C140.098 39.8558 140.109 41.5621 140.131 42.6887L137.043 37.5537L134.248 32.9225H132.867ZM147.641 43.875V32.9225H149.022L151.817 37.5537L154.905 42.6887C154.883 41.5621 154.872 39.8558 154.872 37.57V32.9225H155.88V43.875H154.498L151.72 39.2762L148.616 34.1087C148.638 35.2787 148.648 36.9904 148.648 39.2437V43.875H147.641ZM164.411 42.9487H159.487V38.87H163.745V37.9437H159.487V33.8487H164.313V32.9225H158.48V43.875H164.411V42.9487ZM172.458 32.9225V33.8487H169.42V43.875H168.412V33.8487H165.39V32.9225H172.458ZM180.906 33.085H179.72L178.582 36.985C178.192 38.3066 177.634 40.2621 176.908 42.8512L175.43 36.985L174.406 32.9225H173.35L176.193 43.875H177.575L178.598 40.4137C179.346 37.9004 179.925 35.8962 180.337 34.4012L182.19 40.4137L183.278 43.875H184.66L187.146 32.9225H186.138L185.228 37.0175C184.968 38.1766 184.54 40.1429 183.945 42.9162L182.125 37.0012L180.906 33.085ZM188.604 38.35C188.604 36.6275 189.032 35.2571 189.887 34.2387C190.754 33.2096 191.924 32.695 193.397 32.695C194.914 32.695 196.095 33.2041 196.94 34.2225C197.785 35.23 198.207 36.6058 198.207 38.35C198.207 40.0833 197.78 41.4591 196.924 42.4775C196.068 43.4958 194.903 44.005 193.43 44.005C191.978 44.005 190.808 43.4904 189.92 42.4612C189.042 41.4321 188.604 40.0616 188.604 38.35ZM189.644 38.35C189.644 39.7908 189.985 40.9337 190.667 41.7787C191.361 42.6129 192.282 43.03 193.43 43.03C194.622 43.03 195.542 42.6183 196.192 41.795C196.842 40.9608 197.167 39.8125 197.167 38.35C197.167 36.8766 196.837 35.7283 196.176 34.905C195.526 34.0816 194.6 33.67 193.397 33.67C192.227 33.67 191.307 34.0871 190.635 34.9212C189.974 35.7446 189.644 36.8875 189.644 38.35ZM203.105 38.5287H201.334V33.8162H202.91C204.709 33.8162 205.608 34.6125 205.608 36.205C205.608 36.8658 205.391 37.4183 204.958 37.8625C204.524 38.3066 203.907 38.5287 203.105 38.5287ZM206.047 43.875H207.249L204.34 39.2437C205.055 39.0487 205.608 38.6858 205.998 38.155C206.388 37.6241 206.594 36.9904 206.615 36.2537C206.615 35.1921 206.296 34.3741 205.657 33.8C205.028 33.215 204.075 32.9225 202.797 32.9225H200.327V43.875H201.334V39.4225H202.992H203.3L206.047 43.875ZM208.959 43.875V32.9225H209.967V43.875H208.959ZM211.543 38.48L216.093 43.875H214.761L210.259 38.48L214.598 32.9225H215.866L211.543 38.48ZM20.3498 22.3387C20.2869 22.3471 20.2229 22.345 20.1586 22.3429C20.1295 22.3419 20.1004 22.3409 20.0713 22.3409C19.5011 22.3398 19.4989 22.3398 19.4699 21.7937C19.4577 21.5686 19.3385 21.4075 19.2015 21.2398C19.1031 21.1198 18.9888 21.1232 18.8636 21.1269C18.8172 21.1283 18.7694 21.1298 18.7203 21.125C18.6492 21.2594 18.5788 21.3895 18.5099 21.517C18.3574 21.7989 18.2118 22.0682 18.0799 22.3432C17.914 22.6874 18.0365 23.1089 18.3305 23.2182C18.4811 23.2744 18.6462 23.2972 18.8093 23.3198C18.838 23.3237 18.8667 23.3277 18.8952 23.3318C18.9484 23.3396 19.0078 23.3372 19.0662 23.3347C19.1643 23.3306 19.26 23.3266 19.3207 23.3715C19.429 23.4515 19.5381 23.4441 19.6446 23.4369C19.7144 23.4322 19.7831 23.4276 19.8497 23.4477L19.8703 23.4539C20.0489 23.508 20.2214 23.5603 20.4166 23.5624C20.7051 23.5657 20.9289 23.473 21.1405 23.2855C21.2667 23.1741 21.2574 23.0483 21.2484 22.9269C21.2436 22.8618 21.2389 22.7979 21.2553 22.7382C21.0125 22.4491 20.7285 22.2891 20.3498 22.3387ZM26.8742 33.8128L26.8741 33.8127C26.7366 33.7608 26.5991 33.7088 26.4604 33.6616C26.1072 33.5407 26.018 33.1581 26.2878 32.8836C26.745 32.4184 27.2697 32.3719 27.8435 32.7684C28.0099 32.8835 28.1661 33.0139 28.3277 33.1487C28.4013 33.2102 28.476 33.2726 28.5533 33.3348C28.5533 33.3639 28.5539 33.3843 28.5544 33.3996V33.3997C28.555 33.4209 28.5553 33.4322 28.5533 33.443C28.5403 33.5125 28.5488 33.5922 28.5573 33.6715C28.5748 33.8364 28.5921 33.9996 28.4162 34.0664C28.191 34.1513 27.9007 34.135 27.6595 34.0745C27.3922 34.0084 27.1332 33.9106 26.8742 33.8128ZM218.73 34.2607V33.6797H218.935C219.132 33.6797 219.23 33.7751 219.23 33.9658C219.23 34.1624 219.141 34.2607 218.962 34.2607H218.73ZM218.891 33.3759H218.363V35.2349H218.73V34.5556H218.918L219.32 35.2349H219.749L219.284 34.4841C219.493 34.3947 219.597 34.222 219.597 33.9658C219.597 33.5725 219.361 33.3759 218.891 33.3759ZM220.008 35.4404C219.74 35.7086 219.385 35.8426 218.944 35.8426C218.497 35.8426 218.14 35.7086 217.872 35.4404C217.604 35.1664 217.47 34.8089 217.47 34.3679C217.47 33.927 217.604 33.5695 217.872 33.2954C218.14 33.0214 218.497 32.8843 218.944 32.8843C219.385 32.8843 219.74 33.0214 220.008 33.2954C220.282 33.5695 220.419 33.927 220.419 34.3679C220.419 34.8089 220.282 35.1664 220.008 35.4404ZM218.935 32.5C218.393 32.5 217.946 32.6758 217.595 33.0273C217.243 33.3789 217.068 33.8257 217.068 34.3679C217.068 34.9101 217.243 35.357 217.595 35.7086C217.946 36.0541 218.393 36.2269 218.935 36.2269C219.478 36.2269 219.925 36.0541 220.276 35.7086C220.628 35.357 220.803 34.9101 220.803 34.3679C220.803 33.8257 220.628 33.3789 220.276 33.0273C219.925 32.6758 219.478 32.5 218.935 32.5Z" fill="black"/>
</g>
<defs>
<clipPath id="clip0">
<rect width="221" height="52" fill="white" transform="translate(0.129883)"/>
</clipPath>
</defs>
</svg>
